solid OpenSCAD_Model
  facet normal -1 0 0
    outer loop
      vertex -20 -26.25 0
      vertex -20 -26.25 10.5
      vertex -20 26.25 0
    endloop
  endfacet
  facet normal -1 0 0
    outer loop
      vertex -20 26.25 0
      vertex -20 -26.25 10.5
      vertex -20 26.25 10.5
    endloop
  endfacet
  facet normal 0 -1 0
    outer loop
      vertex -20 -26.25 10.5
      vertex -20 -26.25 0
      vertex 20 -26.25 0
    endloop
  endfacet
  facet normal 0 -1 0
    outer loop
      vertex 20 -26.25 10.5
      vertex -20 -26.25 10.5
      vertex 20 -26.25 0
    endloop
  endfacet
  facet normal 0 0 -1
    outer loop
      vertex 7.5 7.75 0
      vertex 20 -26.25 0
      vertex -7.5 7.75 0
    endloop
  endfacet
  facet normal 0 0 -1
    outer loop
      vertex -7.5 22.75 0
      vertex -20 26.25 0
      vertex 20 26.25 0
    endloop
  endfacet
  facet normal 0 0 -1
    outer loop
      vertex 7.5 22.75 0
      vertex -7.5 22.75 0
      vertex 20 26.25 0
    endloop
  endfacet
  facet normal 0 0 -1
    outer loop
      vertex -20 -26.25 0
      vertex -20 26.25 0
      vertex -7.5 7.75 0
    endloop
  endfacet
  facet normal 0 0 -1
    outer loop
      vertex -20 -26.25 0
      vertex -7.5 7.75 0
      vertex 20 -26.25 0
    endloop
  endfacet
  facet normal 0 0 -1
    outer loop
      vertex 20 -26.25 0
      vertex 7.5 7.75 0
      vertex 20 26.25 0
    endloop
  endfacet
  facet normal 0 0 -1
    outer loop
      vertex 7.5 7.75 0
      vertex 7.5 22.75 0
      vertex 20 26.25 0
    endloop
  endfacet
  facet normal 0 0 -1
    outer loop
      vertex -7.5 7.75 0
      vertex -20 26.25 0
      vertex -7.5 22.75 0
    endloop
  endfacet
  facet normal 0 1 0
    outer loop
      vertex -20 26.25 0
      vertex -20 26.25 10.5
      vertex 20 26.25 0
    endloop
  endfacet
  facet normal 0 1 0
    outer loop
      vertex 20 26.25 0
      vertex -20 26.25 10.5
      vertex 20 26.25 10.5
    endloop
  endfacet
  facet normal 0 0 1
    outer loop
      vertex -18.5 -24.75 10.5
      vertex -20 -26.25 10.5
      vertex 20 -26.25 10.5
    endloop
  endfacet
  facet normal 0 0 1
    outer loop
      vertex 18.5 -24.75 10.5
      vertex -18.5 -24.75 10.5
      vertex 20 -26.25 10.5
    endloop
  endfacet
  facet normal 0 0 1
    outer loop
      vertex -20 26.25 10.5
      vertex -20 -26.25 10.5
      vertex -18.5 -24.75 10.5
    endloop
  endfacet
  facet normal 0 0 1
    outer loop
      vertex 20 26.25 10.5
      vertex -20 26.25 10.5
      vertex -18.5 24.75 10.5
    endloop
  endfacet
  facet normal 0 0 1
    outer loop
      vertex 20 26.25 10.5
      vertex -18.5 24.75 10.5
      vertex 2.5 24.75 10.5
    endloop
  endfacet
  facet normal 0 0 1
    outer loop
      vertex 20 26.25 10.5
      vertex 18.5 22.75 10.5
      vertex 20 -26.25 10.5
    endloop
  endfacet
  facet normal 0 0 1
    outer loop
      vertex 20 26.25 10.5
      vertex 2.5 24.75 10.5
      vertex 18.5 22.75 10.5
    endloop
  endfacet
  facet normal 0 0 1
    outer loop
      vertex 2.5 22.75 10.5
      vertex 18.5 22.75 10.5
      vertex 2.5 24.75 10.5
    endloop
  endfacet
  facet normal 0 0 1
    outer loop
      vertex 18.5 22.75 10.5
      vertex 18.5 -24.75 10.5
      vertex 20 -26.25 10.5
    endloop
  endfacet
  facet normal 0 0 1
    outer loop
      vertex -18.5 -24.75 10.5
      vertex -18.5 24.75 10.5
      vertex -20 26.25 10.5
    endloop
  endfacet
  facet normal 1 0 0
    outer loop
      vertex 20 -26.25 10.5
      vertex 20 -26.25 0
      vertex 20 26.25 0
    endloop
  endfacet
  facet normal 1 0 0
    outer loop
      vertex 20 26.25 10.5
      vertex 20 -26.25 10.5
      vertex 20 26.25 0
    endloop
  endfacet
  facet normal 1 0 0
    outer loop
      vertex -7.5 22.75 0
      vertex -7.5 22.75 1.5
      vertex -7.5 7.75 1.5
    endloop
  endfacet
  facet normal 1 0 0
    outer loop
      vertex -7.5 7.75 0
      vertex -7.5 22.75 0
      vertex -7.5 7.75 1.5
    endloop
  endfacet
  facet normal 0 -1 0
    outer loop
      vertex 18.5 22.75 10.5
      vertex 7.5 22.75 1.5
      vertex 18.5 22.75 1.5
    endloop
  endfacet
  facet normal 0 -1 0
    outer loop
      vertex 2.5 22.75 10.5
      vertex 7.5 22.75 1.5
      vertex 18.5 22.75 10.5
    endloop
  endfacet
  facet normal 0 -1 0
    outer loop
      vertex 7.5 22.75 0
      vertex 7.5 22.75 1.5
      vertex 2.5 22.75 10.5
    endloop
  endfacet
  facet normal 0 -1 0
    outer loop
      vertex 2.5 22.75 1.5
      vertex 7.5 22.75 0
      vertex 2.5 22.75 10.5
    endloop
  endfacet
  facet normal 0 -1 0
    outer loop
      vertex -7.5 22.75 1.5
      vertex 7.5 22.75 0
      vertex 2.5 22.75 1.5
    endloop
  endfacet
  facet normal 0 -1 0
    outer loop
      vertex -7.5 22.75 0
      vertex 7.5 22.75 0
      vertex -7.5 22.75 1.5
    endloop
  endfacet
  facet normal -1 0 0
    outer loop
      vertex 7.5 22.75 1.5
      vertex 7.5 22.75 0
      vertex 7.5 7.75 1.5
    endloop
  endfacet
  facet normal -1 0 0
    outer loop
      vertex 7.5 7.75 1.5
      vertex 7.5 22.75 0
      vertex 7.5 7.75 0
    endloop
  endfacet
  facet normal 0 1 0
    outer loop
      vertex 7.5 7.75 1.5
      vertex 7.5 7.75 0
      vertex -7.5 7.75 1.5
    endloop
  endfacet
  facet normal 0 1 0
    outer loop
      vertex -7.5 7.75 1.5
      vertex 7.5 7.75 0
      vertex -7.5 7.75 0
    endloop
  endfacet
  facet normal 1 0 0
    outer loop
      vertex -18.5 24.75 1.5
      vertex -18.5 24.75 10.5
      vertex -18.5 -24.75 10.5
    endloop
  endfacet
  facet normal 1 0 0
    outer loop
      vertex -18.5 -24.75 1.5
      vertex -18.5 24.75 1.5
      vertex -18.5 -24.75 10.5
    endloop
  endfacet
  facet normal 0 1 0
    outer loop
      vertex 18.5 -24.75 10.5
      vertex 18.5 -24.75 1.5
      vertex -18.5 -24.75 10.5
    endloop
  endfacet
  facet normal 0 1 0
    outer loop
      vertex -18.5 -24.75 10.5
      vertex 18.5 -24.75 1.5
      vertex -18.5 -24.75 1.5
    endloop
  endfacet
  facet normal -1 0 0
    outer loop
      vertex 18.5 22.75 10.5
      vertex 18.5 22.75 1.5
      vertex 18.5 -24.75 10.5
    endloop
  endfacet
  facet normal -1 0 0
    outer loop
      vertex 18.5 -24.75 10.5
      vertex 18.5 22.75 1.5
      vertex 18.5 -24.75 1.5
    endloop
  endfacet
  facet normal -1 0 0
    outer loop
      vertex 2.5 24.75 10.5
      vertex 2.5 24.75 1.5
      vertex 2.5 22.75 10.5
    endloop
  endfacet
  facet normal -1 0 0
    outer loop
      vertex 2.5 22.75 10.5
      vertex 2.5 24.75 1.5
      vertex 2.5 22.75 1.5
    endloop
  endfacet
  facet normal 0 -1 0
    outer loop
      vertex 2.5 24.75 1.5
      vertex 2.5 24.75 10.5
      vertex -18.5 24.75 10.5
    endloop
  endfacet
  facet normal 0 -1 0
    outer loop
      vertex -18.5 24.75 1.5
      vertex 2.5 24.75 1.5
      vertex -18.5 24.75 10.5
    endloop
  endfacet
  facet normal 0 0 1
    outer loop
      vertex 18.5 -24.75 1.5
      vertex 18.5 22.75 1.5
      vertex 7.5 22.75 1.5
    endloop
  endfacet
  facet normal 0 0 1
    outer loop
      vertex -7.5 7.75 1.5
      vertex 18.5 -24.75 1.5
      vertex 7.5 7.75 1.5
    endloop
  endfacet
  facet normal 0 0 1
    outer loop
      vertex 7.5 7.75 1.5
      vertex 18.5 -24.75 1.5
      vertex 7.5 22.75 1.5
    endloop
  endfacet
  facet normal 0 0 1
    outer loop
      vertex -18.5 -24.75 1.5
      vertex 18.5 -24.75 1.5
      vertex -7.5 7.75 1.5
    endloop
  endfacet
  facet normal 0 0 1
    outer loop
      vertex 2.5 24.75 1.5
      vertex -7.5 22.75 1.5
      vertex 2.5 22.75 1.5
    endloop
  endfacet
  facet normal 0 0 1
    outer loop
      vertex -18.5 24.75 1.5
      vertex -7.5 7.75 1.5
      vertex -7.5 22.75 1.5
    endloop
  endfacet
  facet normal 0 0 1
    outer loop
      vertex -18.5 24.75 1.5
      vertex -7.5 22.75 1.5
      vertex 2.5 24.75 1.5
    endloop
  endfacet
  facet normal 0 0 1
    outer loop
      vertex -18.5 -24.75 1.5
      vertex -7.5 7.75 1.5
      vertex -18.5 24.75 1.5
    endloop
  endfacet
endsolid OpenSCAD_Model
