solid OpenSCAD_Model
  facet normal -1 0 0
    outer loop
      vertex 0 0 0
      vertex 0 35 110
      vertex 0 35 0
    endloop
  endfacet
  facet normal -1 -0 0
    outer loop
      vertex 0 35 110
      vertex 0 0 0
      vertex 0 0 110
    endloop
  endfacet
  facet normal 0 0 1
    outer loop
      vertex 150 35 110
      vertex 147 32 110
      vertex 150 0 110
    endloop
  endfacet
  facet normal 0 0 1
    outer loop
      vertex 150 35 110
      vertex 80 32 110
      vertex 147 32 110
    endloop
  endfacet
  facet normal 0 0 1
    outer loop
      vertex 80 32 110
      vertex 77 32 110
      vertex 80 0 110
    endloop
  endfacet
  facet normal 0 0 1
    outer loop
      vertex 150 35 110
      vertex 77 32 110
      vertex 80 32 110
    endloop
  endfacet
  facet normal -0 0 1
    outer loop
      vertex 0 35 110
      vertex 77 32 110
      vertex 150 35 110
    endloop
  endfacet
  facet normal 0 0 1
    outer loop
      vertex 77 32 110
      vertex 0 35 110
      vertex 3 32 110
    endloop
  endfacet
  facet normal 0 0 1
    outer loop
      vertex 0 0 110
      vertex 3 32 110
      vertex 0 35 110
    endloop
  endfacet
  facet normal 0 0 1
    outer loop
      vertex 3 32 110
      vertex 0 0 110
      vertex 3 0 110
    endloop
  endfacet
  facet normal 0 0 1
    outer loop
      vertex 150 0 110
      vertex 147 32 110
      vertex 147 0 110
    endloop
  endfacet
  facet normal 0 0 1
    outer loop
      vertex 80 0 110
      vertex 77 32 110
      vertex 77 0 110
    endloop
  endfacet
  facet normal 1 -0 0
    outer loop
      vertex 150 0 110
      vertex 150 35 0
      vertex 150 35 110
    endloop
  endfacet
  facet normal 1 0 0
    outer loop
      vertex 150 35 0
      vertex 150 0 110
      vertex 150 0 0
    endloop
  endfacet
  facet normal 0 1 -0
    outer loop
      vertex 150 35 0
      vertex 0 35 110
      vertex 150 35 110
    endloop
  endfacet
  facet normal 0 1 0
    outer loop
      vertex 0 35 110
      vertex 150 35 0
      vertex 0 35 0
    endloop
  endfacet
  facet normal 0 0 -1
    outer loop
      vertex 0 0 0
      vertex 150 35 0
      vertex 150 0 0
    endloop
  endfacet
  facet normal -0 0 -1
    outer loop
      vertex 150 35 0
      vertex 0 0 0
      vertex 0 35 0
    endloop
  endfacet
  facet normal 0 -1 0
    outer loop
      vertex 0 0 110
      vertex 3 0 43
      vertex 3 0 110
    endloop
  endfacet
  facet normal 0 -1 0
    outer loop
      vertex 0 0 0
      vertex 77 0 43
      vertex 3 0 43
    endloop
  endfacet
  facet normal 0 -1 0
    outer loop
      vertex 150 0 0
      vertex 77 0 43
      vertex 0 0 0
    endloop
  endfacet
  facet normal 0 -1 0
    outer loop
      vertex 77 0 43
      vertex 150 0 0
      vertex 80 0 43
    endloop
  endfacet
  facet normal 0 -1 0
    outer loop
      vertex 0 0 0
      vertex 3 0 43
      vertex 0 0 110
    endloop
  endfacet
  facet normal 0 -1 0
    outer loop
      vertex 77 0 43
      vertex 80 0 110
      vertex 77 0 110
    endloop
  endfacet
  facet normal 0 -1 -0
    outer loop
      vertex 80 0 110
      vertex 77 0 43
      vertex 80 0 43
    endloop
  endfacet
  facet normal 0 -1 0
    outer loop
      vertex 147 0 43
      vertex 150 0 110
      vertex 147 0 110
    endloop
  endfacet
  facet normal 0 -1 0
    outer loop
      vertex 147 0 43
      vertex 150 0 0
      vertex 150 0 110
    endloop
  endfacet
  facet normal 0 -1 0
    outer loop
      vertex 80 0 43
      vertex 150 0 0
      vertex 147 0 43
    endloop
  endfacet
  facet normal 1 0 0
    outer loop
      vertex 3 32 110
      vertex 3 3 43
      vertex 3 32 3
    endloop
  endfacet
  facet normal 1 -0 0
    outer loop
      vertex 3 0 110
      vertex 3 3 43
      vertex 3 32 110
    endloop
  endfacet
  facet normal 1 0 0
    outer loop
      vertex 3 3 43
      vertex 3 0 110
      vertex 3 0 43
    endloop
  endfacet
  facet normal 1 0 0
    outer loop
      vertex 3 32 3
      vertex 3 3 43
      vertex 3 3 3
    endloop
  endfacet
  facet normal -1 0 0
    outer loop
      vertex 77 3 43
      vertex 77 32 3
      vertex 77 3 3
    endloop
  endfacet
  facet normal -1 0 0
    outer loop
      vertex 77 32 3
      vertex 77 3 43
      vertex 77 32 110
    endloop
  endfacet
  facet normal -1 0 0
    outer loop
      vertex 77 0 110
      vertex 77 3 43
      vertex 77 0 43
    endloop
  endfacet
  facet normal -1 0 0
    outer loop
      vertex 77 3 43
      vertex 77 0 110
      vertex 77 32 110
    endloop
  endfacet
  facet normal -0 0 1
    outer loop
      vertex 3 32 3
      vertex 77 3 3
      vertex 77 32 3
    endloop
  endfacet
  facet normal 0 0 1
    outer loop
      vertex 77 3 3
      vertex 3 32 3
      vertex 3 3 3
    endloop
  endfacet
  facet normal 0 1 -0
    outer loop
      vertex 77 3 3
      vertex 3 3 43
      vertex 77 3 43
    endloop
  endfacet
  facet normal 0 1 0
    outer loop
      vertex 3 3 43
      vertex 77 3 3
      vertex 3 3 3
    endloop
  endfacet
  facet normal 0 -1 0
    outer loop
      vertex 3 32 3
      vertex 77 32 110
      vertex 3 32 110
    endloop
  endfacet
  facet normal 0 -1 -0
    outer loop
      vertex 77 32 110
      vertex 3 32 3
      vertex 77 32 3
    endloop
  endfacet
  facet normal -0 0 1
    outer loop
      vertex 3 3 43
      vertex 77 0 43
      vertex 77 3 43
    endloop
  endfacet
  facet normal 0 0 1
    outer loop
      vertex 77 0 43
      vertex 3 3 43
      vertex 3 0 43
    endloop
  endfacet
  facet normal 1 0 0
    outer loop
      vertex 80 32 110
      vertex 80 3 43
      vertex 80 32 3
    endloop
  endfacet
  facet normal 1 -0 0
    outer loop
      vertex 80 0 110
      vertex 80 3 43
      vertex 80 32 110
    endloop
  endfacet
  facet normal 1 0 0
    outer loop
      vertex 80 3 43
      vertex 80 0 110
      vertex 80 0 43
    endloop
  endfacet
  facet normal 1 0 0
    outer loop
      vertex 80 32 3
      vertex 80 3 43
      vertex 80 3 3
    endloop
  endfacet
  facet normal -1 0 0
    outer loop
      vertex 147 3 43
      vertex 147 32 3
      vertex 147 3 3
    endloop
  endfacet
  facet normal -1 0 0
    outer loop
      vertex 147 32 3
      vertex 147 3 43
      vertex 147 32 110
    endloop
  endfacet
  facet normal -1 0 0
    outer loop
      vertex 147 0 110
      vertex 147 3 43
      vertex 147 0 43
    endloop
  endfacet
  facet normal -1 0 0
    outer loop
      vertex 147 3 43
      vertex 147 0 110
      vertex 147 32 110
    endloop
  endfacet
  facet normal 0 -1 0
    outer loop
      vertex 80 32 3
      vertex 147 32 110
      vertex 80 32 110
    endloop
  endfacet
  facet normal 0 -1 -0
    outer loop
      vertex 147 32 110
      vertex 80 32 3
      vertex 147 32 3
    endloop
  endfacet
  facet normal -0 0 1
    outer loop
      vertex 80 32 3
      vertex 147 3 3
      vertex 147 32 3
    endloop
  endfacet
  facet normal 0 0 1
    outer loop
      vertex 147 3 3
      vertex 80 32 3
      vertex 80 3 3
    endloop
  endfacet
  facet normal 0 1 -0
    outer loop
      vertex 147 3 3
      vertex 80 3 43
      vertex 147 3 43
    endloop
  endfacet
  facet normal 0 1 0
    outer loop
      vertex 80 3 43
      vertex 147 3 3
      vertex 80 3 3
    endloop
  endfacet
  facet normal -0 0 1
    outer loop
      vertex 80 3 43
      vertex 147 0 43
      vertex 147 3 43
    endloop
  endfacet
  facet normal 0 0 1
    outer loop
      vertex 147 0 43
      vertex 80 3 43
      vertex 80 0 43
    endloop
  endfacet
endsolid OpenSCAD_Model
