solid OpenSCAD_Model
  facet normal -1 0 0
    outer loop
      vertex -59 47 2
      vertex -59 47 0
      vertex -59 -47 2
    endloop
  endfacet
  facet normal -1 0 0
    outer loop
      vertex -59 -47 2
      vertex -59 47 0
      vertex -59 -47 1.15117e-14
    endloop
  endfacet
  facet normal 0 1 -1.22465e-16
    outer loop
      vertex -59 47 2
      vertex 59 47 2
      vertex -59 47 0
    endloop
  endfacet
  facet normal 0 1 -1.22465e-16
    outer loop
      vertex -59 47 0
      vertex 59 47 2
      vertex 59 47 0
    endloop
  endfacet
  facet normal 0 1.22465e-16 1
    outer loop
      vertex -57 -45 2
      vertex -59 47 2
      vertex -59 -47 2
    endloop
  endfacet
  facet normal 0 1.22465e-16 1
    outer loop
      vertex -57 45 2
      vertex 57 45 2
      vertex 59 47 2
    endloop
  endfacet
  facet normal 0 1.22465e-16 1
    outer loop
      vertex -57 45 2
      vertex -59 47 2
      vertex -57 -45 2
    endloop
  endfacet
  facet normal 0 1.22465e-16 1
    outer loop
      vertex 59 47 2
      vertex -59 47 2
      vertex -57 45 2
    endloop
  endfacet
  facet normal 0 1.22465e-16 1
    outer loop
      vertex 59 -47 2
      vertex 59 47 2
      vertex 57 45 2
    endloop
  endfacet
  facet normal 0 1.22465e-16 1
    outer loop
      vertex 59 -47 2
      vertex 57 -45 2
      vertex -59 -47 2
    endloop
  endfacet
  facet normal 0 1.22465e-16 1
    outer loop
      vertex 59 -47 2
      vertex 57 45 2
      vertex 57 -45 2
    endloop
  endfacet
  facet normal 0 1.22465e-16 1
    outer loop
      vertex 57 -45 2
      vertex -57 -45 2
      vertex -59 -47 2
    endloop
  endfacet
  facet normal 0 -1 1.22465e-16
    outer loop
      vertex 59 -47 2
      vertex -59 -47 2
      vertex -59 -47 1.15117e-14
    endloop
  endfacet
  facet normal 0 -1 1.22465e-16
    outer loop
      vertex 59 -47 1.15117e-14
      vertex 59 -47 2
      vertex -59 -47 1.15117e-14
    endloop
  endfacet
  facet normal 0 -1.22465e-16 -1
    outer loop
      vertex 53 -44 1.11443e-14
      vertex 59 47 0
      vertex 59 -47 1.15117e-14
    endloop
  endfacet
  facet normal 0 -1.22465e-16 -1
    outer loop
      vertex -19 10 4.53119e-15
      vertex 14 25 2.69422e-15
      vertex 14 21 3.18408e-15
    endloop
  endfacet
  facet normal 0 -1.22465e-16 -1
    outer loop
      vertex -59 -47 1.15117e-14
      vertex -29 -40 1.06544e-14
      vertex -29 -44 1.11443e-14
    endloop
  endfacet
  facet normal 0 -1.22465e-16 -1
    outer loop
      vertex -59 -47 1.15117e-14
      vertex -29 -44 1.11443e-14
      vertex 59 -47 1.15117e-14
    endloop
  endfacet
  facet normal 0 -1.22465e-16 -1
    outer loop
      vertex 53 10 4.53119e-15
      vertex 59 47 0
      vertex 53 -44 1.11443e-14
    endloop
  endfacet
  facet normal 0 -1.22465e-16 -1
    outer loop
      vertex -59 47 0
      vertex 59 47 0
      vertex -19 10 4.53119e-15
    endloop
  endfacet
  facet normal 0 -1.22465e-16 -1
    outer loop
      vertex -59 47 0
      vertex -19 10 4.53119e-15
      vertex -59 -47 1.15117e-14
    endloop
  endfacet
  facet normal 0 -1.22465e-16 -1
    outer loop
      vertex 47 6 5.02105e-15
      vertex -59 -47 1.15117e-14
      vertex -19 6 5.02105e-15
    endloop
  endfacet
  facet normal 0 -1.22465e-16 -1
    outer loop
      vertex -19 10 4.53119e-15
      vertex -19 6 5.02105e-15
      vertex -59 -47 1.15117e-14
    endloop
  endfacet
  facet normal 0 -1.22465e-16 -1
    outer loop
      vertex 14 25 2.69422e-15
      vertex 59 47 0
      vertex 26 25 2.69422e-15
    endloop
  endfacet
  facet normal 0 -1.22465e-16 -1
    outer loop
      vertex -29 -40 1.06544e-14
      vertex 47 6 5.02105e-15
      vertex 47 -40 1.06544e-14
    endloop
  endfacet
  facet normal 0 -1.22465e-16 -1
    outer loop
      vertex -19 10 4.53119e-15
      vertex 59 47 0
      vertex 14 25 2.69422e-15
    endloop
  endfacet
  facet normal 0 -1.22465e-16 -1
    outer loop
      vertex 47 6 5.02105e-15
      vertex -29 -40 1.06544e-14
      vertex -59 -47 1.15117e-14
    endloop
  endfacet
  facet normal 0 -1.22465e-16 -1
    outer loop
      vertex 26 25 2.69422e-15
      vertex 59 47 0
      vertex 26 21 3.18408e-15
    endloop
  endfacet
  facet normal 0 -1.22465e-16 -1
    outer loop
      vertex 53 -44 1.11443e-14
      vertex 59 -47 1.15117e-14
      vertex -29 -44 1.11443e-14
    endloop
  endfacet
  facet normal 0 -1.22465e-16 -1
    outer loop
      vertex -19 10 4.53119e-15
      vertex 14 21 3.18408e-15
      vertex 26 21 3.18408e-15
    endloop
  endfacet
  facet normal 0 -1.22465e-16 -1
    outer loop
      vertex 26 21 3.18408e-15
      vertex 59 47 0
      vertex 53 10 4.53119e-15
    endloop
  endfacet
  facet normal 0 -1.22465e-16 -1
    outer loop
      vertex -19 10 4.53119e-15
      vertex 26 21 3.18408e-15
      vertex 53 10 4.53119e-15
    endloop
  endfacet
  facet normal 1 0 0
    outer loop
      vertex 59 47 0
      vertex 59 47 2
      vertex 59 -47 2
    endloop
  endfacet
  facet normal 1 0 0
    outer loop
      vertex 59 -47 1.15117e-14
      vertex 59 47 0
      vertex 59 -47 2
    endloop
  endfacet
  facet normal -1 0 0
    outer loop
      vertex -57 45 9
      vertex -57 45 2
      vertex -57 43 9
    endloop
  endfacet
  facet normal -1 0 0
    outer loop
      vertex -57 43 4
      vertex -57 45 2
      vertex -57 -45 2
    endloop
  endfacet
  facet normal -1 0 0
    outer loop
      vertex -57 -43 9
      vertex -57 -45 2
      vertex -57 -45 9
    endloop
  endfacet
  facet normal -1 0 0
    outer loop
      vertex -57 -43 4
      vertex -57 -45 2
      vertex -57 -43 9
    endloop
  endfacet
  facet normal -1 0 0
    outer loop
      vertex -57 43 9
      vertex -57 45 2
      vertex -57 43 4
    endloop
  endfacet
  facet normal -1 0 0
    outer loop
      vertex -57 43 4
      vertex -57 -45 2
      vertex -57 -43 4
    endloop
  endfacet
  facet normal 0 -1 1.22465e-16
    outer loop
      vertex -52 -45 9
      vertex -57 -45 9
      vertex -57 -45 2
    endloop
  endfacet
  facet normal 0 -1 1.22465e-16
    outer loop
      vertex -52 -45 4
      vertex -52 -45 9
      vertex -57 -45 2
    endloop
  endfacet
  facet normal 0 -1 1.22465e-16
    outer loop
      vertex 57 -45 9
      vertex 55 -45 9
      vertex 57 -45 2
    endloop
  endfacet
  facet normal 0 -1 1.22465e-16
    outer loop
      vertex 55 -45 9
      vertex 55 -45 4
      vertex 57 -45 2
    endloop
  endfacet
  facet normal 0 -1 1.22465e-16
    outer loop
      vertex 57 -45 2
      vertex -52 -45 4
      vertex -57 -45 2
    endloop
  endfacet
  facet normal 0 -1 1.22465e-16
    outer loop
      vertex 55 -45 4
      vertex -52 -45 4
      vertex 57 -45 2
    endloop
  endfacet
  facet normal 1 0 0
    outer loop
      vertex 57 45 2
      vertex 57 45 9
      vertex 57 43 9
    endloop
  endfacet
  facet normal 1 0 0
    outer loop
      vertex 57 -40 4
      vertex 57 45 2
      vertex 57 43 4
    endloop
  endfacet
  facet normal 1 0 0
    outer loop
      vertex 57 43 4
      vertex 57 45 2
      vertex 57 43 9
    endloop
  endfacet
  facet normal 1 0 0
    outer loop
      vertex 57 -45 2
      vertex 57 45 2
      vertex 57 -40 4
    endloop
  endfacet
  facet normal 1 0 0
    outer loop
      vertex 57 -45 9
      vertex 57 -40 4
      vertex 57 -40 9
    endloop
  endfacet
  facet normal 1 0 0
    outer loop
      vertex 57 -45 2
      vertex 57 -40 4
      vertex 57 -45 9
    endloop
  endfacet
  facet normal 0 1 -1.22465e-16
    outer loop
      vertex -57 45 9
      vertex -52 45 9
      vertex -57 45 2
    endloop
  endfacet
  facet normal 0 1 -1.22465e-16
    outer loop
      vertex -57 45 2
      vertex -52 45 9
      vertex -52 45 4
    endloop
  endfacet
  facet normal 0 1 -1.22465e-16
    outer loop
      vertex -57 45 2
      vertex -52 45 4
      vertex 52 45 4
    endloop
  endfacet
  facet normal 0 1 -1.22465e-16
    outer loop
      vertex 52 45 4
      vertex 52 45 9
      vertex 57 45 9
    endloop
  endfacet
  facet normal 0 1 -1.22465e-16
    outer loop
      vertex 52 45 4
      vertex 57 45 9
      vertex 57 45 2
    endloop
  endfacet
  facet normal 0 1 -1.22465e-16
    outer loop
      vertex 52 45 4
      vertex 57 45 2
      vertex -57 45 2
    endloop
  endfacet
  facet normal 1 0 0
    outer loop
      vertex -29 -44 3
      vertex -29 -44 1.11443e-14
      vertex -29 -40 1.06544e-14
    endloop
  endfacet
  facet normal 1 0 0
    outer loop
      vertex -29 -40 3
      vertex -29 -44 3
      vertex -29 -40 1.06544e-14
    endloop
  endfacet
  facet normal 0 -1 1.22465e-16
    outer loop
      vertex -29 -40 1.06544e-14
      vertex 47 -40 1.06544e-14
      vertex 47 -40 3
    endloop
  endfacet
  facet normal 0 -1 1.22465e-16
    outer loop
      vertex -29 -40 3
      vertex -29 -40 1.06544e-14
      vertex 47 -40 3
    endloop
  endfacet
  facet normal 1 0 0
    outer loop
      vertex 47 -40 3
      vertex 47 -40 1.06544e-14
      vertex 47 6 5.02105e-15
    endloop
  endfacet
  facet normal 1 0 0
    outer loop
      vertex 47 6 3
      vertex 47 -40 3
      vertex 47 6 5.02105e-15
    endloop
  endfacet
  facet normal 0 1 -1.22465e-16
    outer loop
      vertex 47 6 5.02105e-15
      vertex -19 6 5.02105e-15
      vertex 47 6 3
    endloop
  endfacet
  facet normal 0 1 -1.22465e-16
    outer loop
      vertex 47 6 3
      vertex -19 6 5.02105e-15
      vertex -19 6 3
    endloop
  endfacet
  facet normal 1 0 0
    outer loop
      vertex -19 6 3
      vertex -19 6 5.02105e-15
      vertex -19 10 4.53119e-15
    endloop
  endfacet
  facet normal 1 0 0
    outer loop
      vertex -19 10 3
      vertex -19 6 3
      vertex -19 10 4.53119e-15
    endloop
  endfacet
  facet normal 0 -1 1.22465e-16
    outer loop
      vertex -19 10 4.53119e-15
      vertex 53 10 4.53119e-15
      vertex 53 10 3
    endloop
  endfacet
  facet normal 0 -1 1.22465e-16
    outer loop
      vertex -19 10 3
      vertex -19 10 4.53119e-15
      vertex 53 10 3
    endloop
  endfacet
  facet normal -1 0 0
    outer loop
      vertex 53 -44 1.11443e-14
      vertex 53 -44 3
      vertex 53 10 4.53119e-15
    endloop
  endfacet
  facet normal -1 0 0
    outer loop
      vertex 53 10 4.53119e-15
      vertex 53 -44 3
      vertex 53 10 3
    endloop
  endfacet
  facet normal 0 1 -1.22465e-16
    outer loop
      vertex 55 -44 3
      vertex 53 -44 3
      vertex 55 -44 4
    endloop
  endfacet
  facet normal 0 1 -1.22465e-16
    outer loop
      vertex -29 -44 1.11443e-14
      vertex 53 -44 3
      vertex 53 -44 1.11443e-14
    endloop
  endfacet
  facet normal 0 1 -1.22465e-16
    outer loop
      vertex 55 -44 4
      vertex 53 -44 3
      vertex -29 -44 1.11443e-14
    endloop
  endfacet
  facet normal 0 1 -1.22465e-16
    outer loop
      vertex 55 -44 4
      vertex -29 -44 1.11443e-14
      vertex -29 -44 3
    endloop
  endfacet
  facet normal 0 1 -1.22465e-16
    outer loop
      vertex 55 -44 4
      vertex -29 -44 3
      vertex -52 -44 3
    endloop
  endfacet
  facet normal 0 1 -1.22465e-16
    outer loop
      vertex 55 -44 4
      vertex -52 -44 3
      vertex -52 -44 4
    endloop
  endfacet
  facet normal 1 0 0
    outer loop
      vertex 14 21 3
      vertex 14 21 3.18408e-15
      vertex 14 25 2.69422e-15
    endloop
  endfacet
  facet normal 1 0 0
    outer loop
      vertex 14 25 3
      vertex 14 21 3
      vertex 14 25 2.69422e-15
    endloop
  endfacet
  facet normal 0 -1 1.22465e-16
    outer loop
      vertex 14 25 2.69422e-15
      vertex 26 25 2.69422e-15
      vertex 26 25 3
    endloop
  endfacet
  facet normal 0 -1 1.22465e-16
    outer loop
      vertex 14 25 3
      vertex 14 25 2.69422e-15
      vertex 26 25 3
    endloop
  endfacet
  facet normal -1 0 0
    outer loop
      vertex 26 21 3.18408e-15
      vertex 26 21 3
      vertex 26 25 2.69422e-15
    endloop
  endfacet
  facet normal -1 0 0
    outer loop
      vertex 26 25 2.69422e-15
      vertex 26 21 3
      vertex 26 25 3
    endloop
  endfacet
  facet normal 0 1 -1.22465e-16
    outer loop
      vertex 26 21 3.18408e-15
      vertex 14 21 3.18408e-15
      vertex 26 21 3
    endloop
  endfacet
  facet normal 0 1 -1.22465e-16
    outer loop
      vertex 26 21 3
      vertex 14 21 3.18408e-15
      vertex 14 21 3
    endloop
  endfacet
  facet normal 0 1.22465e-16 1
    outer loop
      vertex -52 45 9
      vertex -57 45 9
      vertex -57 43 9
    endloop
  endfacet
  facet normal 0 1.22465e-16 1
    outer loop
      vertex -52 43 9
      vertex -52 45 9
      vertex -57 43 9
    endloop
  endfacet
  facet normal 0 -1 1.22465e-16
    outer loop
      vertex -52 43 9
      vertex -57 43 9
      vertex -57 43 4
    endloop
  endfacet
  facet normal 0 -1 1.22465e-16
    outer loop
      vertex -56 43 3
      vertex -52 43 9
      vertex -56 43 4
    endloop
  endfacet
  facet normal 0 -1 1.22465e-16
    outer loop
      vertex -56 43 4
      vertex -52 43 9
      vertex -57 43 4
    endloop
  endfacet
  facet normal 0 -1 1.22465e-16
    outer loop
      vertex -52 43 3
      vertex -52 43 9
      vertex -56 43 3
    endloop
  endfacet
  facet normal 0 1.22465e-16 1
    outer loop
      vertex -56 43 4
      vertex -57 43 4
      vertex -57 -43 4
    endloop
  endfacet
  facet normal 0 1.22465e-16 1
    outer loop
      vertex -56 -43 4
      vertex -56 43 4
      vertex -57 -43 4
    endloop
  endfacet
  facet normal 0 1 -1.22465e-16
    outer loop
      vertex -57 -43 9
      vertex -52 -43 9
      vertex -57 -43 4
    endloop
  endfacet
  facet normal 0 1 -1.22465e-16
    outer loop
      vertex -56 -43 4
      vertex -52 -43 9
      vertex -52 -43 3
    endloop
  endfacet
  facet normal 0 1 -1.22465e-16
    outer loop
      vertex -57 -43 4
      vertex -52 -43 9
      vertex -56 -43 4
    endloop
  endfacet
  facet normal 0 1 -1.22465e-16
    outer loop
      vertex -56 -43 4
      vertex -52 -43 3
      vertex -56 -43 3
    endloop
  endfacet
  facet normal 0 1.22465e-16 1
    outer loop
      vertex -52 -43 9
      vertex -57 -43 9
      vertex -57 -45 9
    endloop
  endfacet
  facet normal 0 1.22465e-16 1
    outer loop
      vertex -52 -45 9
      vertex -52 -43 9
      vertex -57 -45 9
    endloop
  endfacet
  facet normal 1 0 0
    outer loop
      vertex -52 -43 3
      vertex -52 -43 9
      vertex -52 -45 9
    endloop
  endfacet
  facet normal 1 0 0
    outer loop
      vertex -52 -44 4
      vertex -52 -43 3
      vertex -52 -45 9
    endloop
  endfacet
  facet normal 1 0 0
    outer loop
      vertex -52 -45 4
      vertex -52 -44 4
      vertex -52 -45 9
    endloop
  endfacet
  facet normal 1 0 0
    outer loop
      vertex -52 -44 4
      vertex -52 -44 3
      vertex -52 -43 3
    endloop
  endfacet
  facet normal 0 1.22465e-16 1
    outer loop
      vertex 55 -44 4
      vertex -52 -44 4
      vertex -52 -45 4
    endloop
  endfacet
  facet normal 0 1.22465e-16 1
    outer loop
      vertex 55 -45 4
      vertex 55 -44 4
      vertex -52 -45 4
    endloop
  endfacet
  facet normal -1 0 0
    outer loop
      vertex 55 -40 9
      vertex 55 -40 3
      vertex 55 -45 9
    endloop
  endfacet
  facet normal -1 0 0
    outer loop
      vertex 55 -44 4
      vertex 55 -40 3
      vertex 55 -44 3
    endloop
  endfacet
  facet normal -1 0 0
    outer loop
      vertex 55 -45 9
      vertex 55 -40 3
      vertex 55 -44 4
    endloop
  endfacet
  facet normal -1 0 0
    outer loop
      vertex 55 -45 4
      vertex 55 -45 9
      vertex 55 -44 4
    endloop
  endfacet
  facet normal 0 1.22465e-16 1
    outer loop
      vertex 57 -40 9
      vertex 55 -40 9
      vertex 55 -45 9
    endloop
  endfacet
  facet normal 0 1.22465e-16 1
    outer loop
      vertex 57 -45 9
      vertex 57 -40 9
      vertex 55 -45 9
    endloop
  endfacet
  facet normal 0 1 -1.22465e-16
    outer loop
      vertex 55 -40 9
      vertex 57 -40 9
      vertex 55 -40 3
    endloop
  endfacet
  facet normal 0 1 -1.22465e-16
    outer loop
      vertex 56 -40 4
      vertex 57 -40 9
      vertex 57 -40 4
    endloop
  endfacet
  facet normal 0 1 -1.22465e-16
    outer loop
      vertex 55 -40 3
      vertex 57 -40 9
      vertex 56 -40 4
    endloop
  endfacet
  facet normal 0 1 -1.22465e-16
    outer loop
      vertex 56 -40 3
      vertex 55 -40 3
      vertex 56 -40 4
    endloop
  endfacet
  facet normal 0 1.22465e-16 1
    outer loop
      vertex 57 43 4
      vertex 56 43 4
      vertex 56 -40 4
    endloop
  endfacet
  facet normal 0 1.22465e-16 1
    outer loop
      vertex 57 -40 4
      vertex 57 43 4
      vertex 56 -40 4
    endloop
  endfacet
  facet normal 0 -1 1.22465e-16
    outer loop
      vertex 57 43 9
      vertex 52 43 9
      vertex 52 43 3
    endloop
  endfacet
  facet normal 0 -1 1.22465e-16
    outer loop
      vertex 56 43 4
      vertex 57 43 9
      vertex 52 43 3
    endloop
  endfacet
  facet normal 0 -1 1.22465e-16
    outer loop
      vertex 56 43 3
      vertex 56 43 4
      vertex 52 43 3
    endloop
  endfacet
  facet normal 0 -1 1.22465e-16
    outer loop
      vertex 56 43 4
      vertex 57 43 4
      vertex 57 43 9
    endloop
  endfacet
  facet normal 0 1.22465e-16 1
    outer loop
      vertex 57 45 9
      vertex 52 45 9
      vertex 52 43 9
    endloop
  endfacet
  facet normal 0 1.22465e-16 1
    outer loop
      vertex 57 43 9
      vertex 57 45 9
      vertex 52 43 9
    endloop
  endfacet
  facet normal -1 0 0
    outer loop
      vertex 52 45 9
      vertex 52 45 4
      vertex 52 43 9
    endloop
  endfacet
  facet normal -1 0 0
    outer loop
      vertex 52 43 9
      vertex 52 45 4
      vertex 52 44 4
    endloop
  endfacet
  facet normal -1 0 0
    outer loop
      vertex 52 43 9
      vertex 52 44 4
      vertex 52 44 3
    endloop
  endfacet
  facet normal -1 0 0
    outer loop
      vertex 52 43 9
      vertex 52 44 3
      vertex 52 43 3
    endloop
  endfacet
  facet normal 0 1.22465e-16 1
    outer loop
      vertex 52 45 4
      vertex -52 45 4
      vertex -52 44 4
    endloop
  endfacet
  facet normal 0 1.22465e-16 1
    outer loop
      vertex 52 44 4
      vertex 52 45 4
      vertex -52 44 4
    endloop
  endfacet
  facet normal 1 0 0
    outer loop
      vertex -52 45 4
      vertex -52 45 9
      vertex -52 43 9
    endloop
  endfacet
  facet normal 1 0 0
    outer loop
      vertex -52 44 4
      vertex -52 45 4
      vertex -52 43 9
    endloop
  endfacet
  facet normal 1 0 0
    outer loop
      vertex -52 43 3
      vertex -52 44 4
      vertex -52 43 9
    endloop
  endfacet
  facet normal 1 0 0
    outer loop
      vertex -52 44 3
      vertex -52 44 4
      vertex -52 43 3
    endloop
  endfacet
  facet normal 0 1.22465e-16 1
    outer loop
      vertex -29 -44 3
      vertex -52 -43 3
      vertex -52 -44 3
    endloop
  endfacet
  facet normal 0 1.22465e-16 1
    outer loop
      vertex -29 -40 3
      vertex -52 -43 3
      vertex -29 -44 3
    endloop
  endfacet
  facet normal 0 1.22465e-16 1
    outer loop
      vertex -56 -43 3
      vertex -52 -43 3
      vertex -29 -40 3
    endloop
  endfacet
  facet normal 0 1.22465e-16 1
    outer loop
      vertex 47 6 3
      vertex -56 -43 3
      vertex -29 -40 3
    endloop
  endfacet
  facet normal 0 1.22465e-16 1
    outer loop
      vertex 47 6 3
      vertex -29 -40 3
      vertex 47 -40 3
    endloop
  endfacet
  facet normal 0 1.22465e-16 1
    outer loop
      vertex -19 6 3
      vertex -56 -43 3
      vertex 47 6 3
    endloop
  endfacet
  facet normal 0 1.22465e-16 1
    outer loop
      vertex -19 10 3
      vertex -56 -43 3
      vertex -19 6 3
    endloop
  endfacet
  facet normal 0 1.22465e-16 1
    outer loop
      vertex -52 43 3
      vertex -56 -43 3
      vertex -19 10 3
    endloop
  endfacet
  facet normal 0 1.22465e-16 1
    outer loop
      vertex 26 21 3
      vertex -19 10 3
      vertex 53 10 3
    endloop
  endfacet
  facet normal 0 1.22465e-16 1
    outer loop
      vertex 55 -44 3
      vertex 53 10 3
      vertex 53 -44 3
    endloop
  endfacet
  facet normal 0 1.22465e-16 1
    outer loop
      vertex 55 -40 3
      vertex 53 10 3
      vertex 55 -44 3
    endloop
  endfacet
  facet normal 0 1.22465e-16 1
    outer loop
      vertex 56 -40 3
      vertex 53 10 3
      vertex 55 -40 3
    endloop
  endfacet
  facet normal 0 1.22465e-16 1
    outer loop
      vertex 56 43 3
      vertex 53 10 3
      vertex 56 -40 3
    endloop
  endfacet
  facet normal 0 1.22465e-16 1
    outer loop
      vertex 52 44 3
      vertex -19 10 3
      vertex 52 43 3
    endloop
  endfacet
  facet normal 0 1.22465e-16 1
    outer loop
      vertex -52 44 3
      vertex -19 10 3
      vertex 52 44 3
    endloop
  endfacet
  facet normal 0 1.22465e-16 1
    outer loop
      vertex -52 44 3
      vertex -52 43 3
      vertex -19 10 3
    endloop
  endfacet
  facet normal 0 1.22465e-16 1
    outer loop
      vertex 14 21 3
      vertex 14 25 3
      vertex -19 10 3
    endloop
  endfacet
  facet normal 0 1.22465e-16 1
    outer loop
      vertex 52 43 3
      vertex 14 25 3
      vertex 56 43 3
    endloop
  endfacet
  facet normal 0 1.22465e-16 1
    outer loop
      vertex 52 43 3
      vertex -19 10 3
      vertex 14 25 3
    endloop
  endfacet
  facet normal 0 1.22465e-16 1
    outer loop
      vertex 56 43 3
      vertex 26 25 3
      vertex 53 10 3
    endloop
  endfacet
  facet normal 0 1.22465e-16 1
    outer loop
      vertex 14 21 3
      vertex -19 10 3
      vertex 26 21 3
    endloop
  endfacet
  facet normal 0 1.22465e-16 1
    outer loop
      vertex 26 25 3
      vertex 26 21 3
      vertex 53 10 3
    endloop
  endfacet
  facet normal 0 1.22465e-16 1
    outer loop
      vertex 14 25 3
      vertex 26 25 3
      vertex 56 43 3
    endloop
  endfacet
  facet normal 0 1.22465e-16 1
    outer loop
      vertex -52 43 3
      vertex -56 43 3
      vertex -56 -43 3
    endloop
  endfacet
  facet normal 1 0 0
    outer loop
      vertex -56 -43 4
      vertex -56 -43 3
      vertex -56 43 3
    endloop
  endfacet
  facet normal 1 0 0
    outer loop
      vertex -56 43 4
      vertex -56 -43 4
      vertex -56 43 3
    endloop
  endfacet
  facet normal -1 0 0
    outer loop
      vertex 56 -40 3
      vertex 56 -40 4
      vertex 56 43 3
    endloop
  endfacet
  facet normal -1 0 0
    outer loop
      vertex 56 43 3
      vertex 56 -40 4
      vertex 56 43 4
    endloop
  endfacet
  facet normal 0 -1 1.22465e-16
    outer loop
      vertex -52 44 3
      vertex 52 44 3
      vertex 52 44 4
    endloop
  endfacet
  facet normal 0 -1 1.22465e-16
    outer loop
      vertex -52 44 4
      vertex -52 44 3
      vertex 52 44 4
    endloop
  endfacet
endsolid OpenSCAD_Model
