solid OpenSCAD_Model
  facet normal -1 0 0
    outer loop
      vertex -61 4 12
      vertex -61 -49 29
      vertex -61 49 0
    endloop
  endfacet
  facet normal -1 0 0
    outer loop
      vertex -61 49 0
      vertex -61 -49 29
      vertex -61 49 29
    endloop
  endfacet
  facet normal -1 0 0
    outer loop
      vertex -61 -49 0
      vertex -61 -49 29
      vertex -61 -36 15
    endloop
  endfacet
  facet normal -1 0 0
    outer loop
      vertex -61 -49 0
      vertex -61 -36 15
      vertex -61 -36 8
    endloop
  endfacet
  facet normal -1 0 0
    outer loop
      vertex -61 -49 0
      vertex -61 -36 8
      vertex -61 49 0
    endloop
  endfacet
  facet normal -1 0 0
    outer loop
      vertex -61 -36 8
      vertex -61 -19 8
      vertex -61 49 0
    endloop
  endfacet
  facet normal -1 0 0
    outer loop
      vertex -61 -36 15
      vertex -61 -49 29
      vertex -61 -19 15
    endloop
  endfacet
  facet normal -1 0 0
    outer loop
      vertex -61 -9 8
      vertex -61 -19 15
      vertex -61 -9 12
    endloop
  endfacet
  facet normal -1 0 0
    outer loop
      vertex -61 -9 12
      vertex -61 -19 15
      vertex -61 4 12
    endloop
  endfacet
  facet normal -1 0 0
    outer loop
      vertex -61 -19 8
      vertex -61 -9 8
      vertex -61 49 0
    endloop
  endfacet
  facet normal -1 0 0
    outer loop
      vertex -61 -19 15
      vertex -61 -49 29
      vertex -61 4 12
    endloop
  endfacet
  facet normal -1 0 0
    outer loop
      vertex -61 4 8
      vertex -61 49 0
      vertex -61 -9 8
    endloop
  endfacet
  facet normal -1 0 0
    outer loop
      vertex -61 4 12
      vertex -61 49 0
      vertex -61 4 8
    endloop
  endfacet
  facet normal -1 0 0
    outer loop
      vertex -61 -19 15
      vertex -61 -9 8
      vertex -61 -19 8
    endloop
  endfacet
  facet normal 0 -1 0
    outer loop
      vertex -47 -49 8
      vertex -61 -49 0
      vertex 61 -49 0
    endloop
  endfacet
  facet normal 0 -1 0
    outer loop
      vertex -24 -49 8
      vertex -47 -49 8
      vertex 61 -49 0
    endloop
  endfacet
  facet normal 0 -1 0
    outer loop
      vertex -61 -49 29
      vertex -61 -49 0
      vertex -47 -49 8
    endloop
  endfacet
  facet normal 0 -1 0
    outer loop
      vertex -61 -49 29
      vertex -47 -49 8
      vertex -47 -49 14
    endloop
  endfacet
  facet normal 0 -1 0
    outer loop
      vertex -5 -49 23
      vertex 29 -49 23
      vertex 61 -49 29
    endloop
  endfacet
  facet normal 0 -1 0
    outer loop
      vertex -61 -49 29
      vertex -47 -49 14
      vertex -24 -49 14
    endloop
  endfacet
  facet normal 0 -1 0
    outer loop
      vertex -22 -49 8
      vertex -24 -49 8
      vertex 61 -49 0
    endloop
  endfacet
  facet normal 0 -1 0
    outer loop
      vertex -22 -49 17
      vertex -5 -49 17
      vertex -61 -49 29
    endloop
  endfacet
  facet normal 0 -1 0
    outer loop
      vertex -22 -49 8
      vertex -22 -49 17
      vertex -24 -49 14
    endloop
  endfacet
  facet normal 0 -1 0
    outer loop
      vertex -61 -49 29
      vertex -24 -49 14
      vertex -22 -49 17
    endloop
  endfacet
  facet normal 0 -1 0
    outer loop
      vertex -5 -49 23
      vertex -61 -49 29
      vertex -5 -49 17
    endloop
  endfacet
  facet normal 0 -1 0
    outer loop
      vertex 29 -49 22
      vertex 47 -49 22
      vertex 29 -49 23
    endloop
  endfacet
  facet normal 0 -1 0
    outer loop
      vertex 61 -49 29
      vertex -61 -49 29
      vertex -5 -49 23
    endloop
  endfacet
  facet normal 0 -1 0
    outer loop
      vertex 47 -49 22
      vertex 47 -49 8
      vertex 61 -49 0
    endloop
  endfacet
  facet normal 0 -1 0
    outer loop
      vertex 61 -49 29
      vertex 47 -49 22
      vertex 61 -49 0
    endloop
  endfacet
  facet normal 0 -1 0
    outer loop
      vertex 61 -49 29
      vertex 29 -49 23
      vertex 47 -49 22
    endloop
  endfacet
  facet normal 0 -1 0
    outer loop
      vertex -24 -49 14
      vertex -24 -49 8
      vertex -22 -49 8
    endloop
  endfacet
  facet normal 0 -1 0
    outer loop
      vertex 47 -49 8
      vertex -22 -49 8
      vertex 61 -49 0
    endloop
  endfacet
  facet normal 0 0 -1
    outer loop
      vertex -61 -49 0
      vertex -61 49 0
      vertex 61 -49 0
    endloop
  endfacet
  facet normal 0 0 -1
    outer loop
      vertex 61 -49 0
      vertex -61 49 0
      vertex 61 49 0
    endloop
  endfacet
  facet normal 0 1 0
    outer loop
      vertex -43 49 16
      vertex -61 49 29
      vertex 61 49 0
    endloop
  endfacet
  facet normal 0 1 0
    outer loop
      vertex 61 49 0
      vertex -61 49 29
      vertex 61 49 29
    endloop
  endfacet
  facet normal 0 1 0
    outer loop
      vertex -61 49 0
      vertex -61 49 29
      vertex -51 49 16
    endloop
  endfacet
  facet normal 0 1 0
    outer loop
      vertex -61 49 0
      vertex -51 49 16
      vertex -51 49 8
    endloop
  endfacet
  facet normal 0 1 0
    outer loop
      vertex -61 49 0
      vertex -51 49 8
      vertex 61 49 0
    endloop
  endfacet
  facet normal 0 1 0
    outer loop
      vertex -51 49 8
      vertex -43 49 8
      vertex 61 49 0
    endloop
  endfacet
  facet normal 0 1 0
    outer loop
      vertex -51 49 16
      vertex -61 49 29
      vertex -43 49 16
    endloop
  endfacet
  facet normal 0 1 0
    outer loop
      vertex -43 49 16
      vertex 61 49 0
      vertex -43 49 8
    endloop
  endfacet
  facet normal 0 0 1
    outer loop
      vertex -58 -46 29
      vertex -61 -49 29
      vertex 61 -49 29
    endloop
  endfacet
  facet normal 0 0 1
    outer loop
      vertex -61 49 29
      vertex -61 -49 29
      vertex -58 -46 29
    endloop
  endfacet
  facet normal 0 0 1
    outer loop
      vertex -58 46 29
      vertex 58 46 29
      vertex -61 49 29
    endloop
  endfacet
  facet normal 0 0 1
    outer loop
      vertex -61 49 29
      vertex -58 -46 29
      vertex -58 46 29
    endloop
  endfacet
  facet normal 0 0 1
    outer loop
      vertex 61 49 29
      vertex 58 46 29
      vertex 61 -49 29
    endloop
  endfacet
  facet normal 0 0 1
    outer loop
      vertex 61 49 29
      vertex -61 49 29
      vertex 58 46 29
    endloop
  endfacet
  facet normal 0 0 1
    outer loop
      vertex 58 46 29
      vertex 58 -46 29
      vertex 61 -49 29
    endloop
  endfacet
  facet normal 0 0 1
    outer loop
      vertex 58 -46 29
      vertex -58 -46 29
      vertex 61 -49 29
    endloop
  endfacet
  facet normal 0 0 -1
    outer loop
      vertex -58 -19 15
      vertex -58 -36 15
      vertex -61 -19 15
    endloop
  endfacet
  facet normal 0 0 -1
    outer loop
      vertex -61 -19 15
      vertex -58 -36 15
      vertex -61 -36 15
    endloop
  endfacet
  facet normal 0 1 0
    outer loop
      vertex -58 -36 15
      vertex -58 -36 8
      vertex -61 -36 15
    endloop
  endfacet
  facet normal 0 1 0
    outer loop
      vertex -61 -36 15
      vertex -58 -36 8
      vertex -61 -36 8
    endloop
  endfacet
  facet normal 0 -1 0
    outer loop
      vertex -58 -19 8
      vertex -58 -19 15
      vertex -61 -19 15
    endloop
  endfacet
  facet normal 0 -1 0
    outer loop
      vertex -61 -19 8
      vertex -58 -19 8
      vertex -61 -19 15
    endloop
  endfacet
  facet normal 0 0 1
    outer loop
      vertex -58 -36 8
      vertex -58 -19 8
      vertex -61 -19 8
    endloop
  endfacet
  facet normal 0 0 1
    outer loop
      vertex -61 -36 8
      vertex -58 -36 8
      vertex -61 -19 8
    endloop
  endfacet
  facet normal 0 0 -1
    outer loop
      vertex -58 4 12
      vertex -58 -9 12
      vertex -61 4 12
    endloop
  endfacet
  facet normal 0 0 -1
    outer loop
      vertex -61 4 12
      vertex -58 -9 12
      vertex -61 -9 12
    endloop
  endfacet
  facet normal 0 1 0
    outer loop
      vertex -58 -9 12
      vertex -58 -9 8
      vertex -61 -9 12
    endloop
  endfacet
  facet normal 0 1 0
    outer loop
      vertex -61 -9 12
      vertex -58 -9 8
      vertex -61 -9 8
    endloop
  endfacet
  facet normal 0 -1 0
    outer loop
      vertex -58 4 8
      vertex -58 4 12
      vertex -61 4 12
    endloop
  endfacet
  facet normal 0 -1 0
    outer loop
      vertex -61 4 8
      vertex -58 4 8
      vertex -61 4 12
    endloop
  endfacet
  facet normal 0 0 1
    outer loop
      vertex -58 -9 8
      vertex -58 4 8
      vertex -61 4 8
    endloop
  endfacet
  facet normal 0 0 1
    outer loop
      vertex -61 -9 8
      vertex -58 -9 8
      vertex -61 4 8
    endloop
  endfacet
  facet normal 1 0 0
    outer loop
      vertex 61 -49 29
      vertex 61 -49 0
      vertex 61 49 0
    endloop
  endfacet
  facet normal 1 0 0
    outer loop
      vertex 61 49 29
      vertex 61 -49 29
      vertex 61 49 0
    endloop
  endfacet
  facet normal 1 0 0
    outer loop
      vertex -47 -46 8
      vertex -47 -46 14
      vertex -47 -49 14
    endloop
  endfacet
  facet normal 1 0 0
    outer loop
      vertex -47 -49 8
      vertex -47 -46 8
      vertex -47 -49 14
    endloop
  endfacet
  facet normal 0 0 1
    outer loop
      vertex -24 -49 8
      vertex -24 -46 8
      vertex -47 -46 8
    endloop
  endfacet
  facet normal 0 0 1
    outer loop
      vertex -47 -49 8
      vertex -24 -49 8
      vertex -47 -46 8
    endloop
  endfacet
  facet normal -1 0 0
    outer loop
      vertex -24 -46 14
      vertex -24 -46 8
      vertex -24 -49 14
    endloop
  endfacet
  facet normal -1 0 0
    outer loop
      vertex -24 -49 14
      vertex -24 -46 8
      vertex -24 -49 8
    endloop
  endfacet
  facet normal 0 0 -1
    outer loop
      vertex -24 -46 14
      vertex -24 -49 14
      vertex -47 -46 14
    endloop
  endfacet
  facet normal 0 0 -1
    outer loop
      vertex -47 -46 14
      vertex -24 -49 14
      vertex -47 -49 14
    endloop
  endfacet
  facet normal 1 0 0
    outer loop
      vertex -22 -46 8
      vertex -22 -46 17
      vertex -22 -49 17
    endloop
  endfacet
  facet normal 1 0 0
    outer loop
      vertex -22 -49 8
      vertex -22 -46 8
      vertex -22 -49 17
    endloop
  endfacet
  facet normal 0 0 1
    outer loop
      vertex 47 -49 8
      vertex 47 -46 8
      vertex -22 -46 8
    endloop
  endfacet
  facet normal 0 0 1
    outer loop
      vertex -22 -49 8
      vertex 47 -49 8
      vertex -22 -46 8
    endloop
  endfacet
  facet normal -1 0 0
    outer loop
      vertex 47 -46 22
      vertex 47 -46 8
      vertex 47 -49 22
    endloop
  endfacet
  facet normal -1 0 0
    outer loop
      vertex 47 -49 22
      vertex 47 -46 8
      vertex 47 -49 8
    endloop
  endfacet
  facet normal 0 0 -1
    outer loop
      vertex 47 -46 22
      vertex 47 -49 22
      vertex 29 -46 22
    endloop
  endfacet
  facet normal 0 0 -1
    outer loop
      vertex 29 -46 22
      vertex 47 -49 22
      vertex 29 -49 22
    endloop
  endfacet
  facet normal -1 0 0
    outer loop
      vertex 29 -46 23
      vertex 29 -46 22
      vertex 29 -49 23
    endloop
  endfacet
  facet normal -1 0 0
    outer loop
      vertex 29 -49 23
      vertex 29 -46 22
      vertex 29 -49 22
    endloop
  endfacet
  facet normal 0 0 -1
    outer loop
      vertex 29 -46 23
      vertex 29 -49 23
      vertex -5 -46 23
    endloop
  endfacet
  facet normal 0 0 -1
    outer loop
      vertex -5 -46 23
      vertex 29 -49 23
      vertex -5 -49 23
    endloop
  endfacet
  facet normal 1 0 0
    outer loop
      vertex -5 -46 17
      vertex -5 -46 23
      vertex -5 -49 23
    endloop
  endfacet
  facet normal 1 0 0
    outer loop
      vertex -5 -49 17
      vertex -5 -46 17
      vertex -5 -49 23
    endloop
  endfacet
  facet normal 0 0 -1
    outer loop
      vertex -5 -46 17
      vertex -5 -49 17
      vertex -22 -46 17
    endloop
  endfacet
  facet normal 0 0 -1
    outer loop
      vertex -22 -46 17
      vertex -5 -49 17
      vertex -22 -49 17
    endloop
  endfacet
  facet normal 1 0 0
    outer loop
      vertex -51 49 8
      vertex -51 49 16
      vertex -51 46 16
    endloop
  endfacet
  facet normal 1 0 0
    outer loop
      vertex -51 46 8
      vertex -51 49 8
      vertex -51 46 16
    endloop
  endfacet
  facet normal 0 0 -1
    outer loop
      vertex -43 49 16
      vertex -43 46 16
      vertex -51 49 16
    endloop
  endfacet
  facet normal 0 0 -1
    outer loop
      vertex -51 49 16
      vertex -43 46 16
      vertex -51 46 16
    endloop
  endfacet
  facet normal -1 0 0
    outer loop
      vertex -43 49 16
      vertex -43 49 8
      vertex -43 46 16
    endloop
  endfacet
  facet normal -1 0 0
    outer loop
      vertex -43 46 16
      vertex -43 49 8
      vertex -43 46 8
    endloop
  endfacet
  facet normal 0 0 1
    outer loop
      vertex -43 46 8
      vertex -43 49 8
      vertex -51 49 8
    endloop
  endfacet
  facet normal 0 0 1
    outer loop
      vertex -51 46 8
      vertex -43 46 8
      vertex -51 49 8
    endloop
  endfacet
  facet normal 1 0 0
    outer loop
      vertex -58 -36 8
      vertex -58 -46 2
      vertex -58 46 2
    endloop
  endfacet
  facet normal 1 0 0
    outer loop
      vertex -58 46 29
      vertex -58 -46 29
      vertex -58 46 2
    endloop
  endfacet
  facet normal 1 0 0
    outer loop
      vertex -58 -19 8
      vertex -58 -36 8
      vertex -58 46 2
    endloop
  endfacet
  facet normal 1 0 0
    outer loop
      vertex -58 -46 29
      vertex -58 -46 2
      vertex -58 -36 8
    endloop
  endfacet
  facet normal 1 0 0
    outer loop
      vertex -58 -46 29
      vertex -58 -36 8
      vertex -58 -36 15
    endloop
  endfacet
  facet normal 1 0 0
    outer loop
      vertex -58 -46 29
      vertex -58 -36 15
      vertex -58 -19 15
    endloop
  endfacet
  facet normal 1 0 0
    outer loop
      vertex -58 -9 8
      vertex -58 -19 8
      vertex -58 46 2
    endloop
  endfacet
  facet normal 1 0 0
    outer loop
      vertex -58 4 8
      vertex -58 -9 8
      vertex -58 46 2
    endloop
  endfacet
  facet normal 1 0 0
    outer loop
      vertex -58 4 12
      vertex -58 4 8
      vertex -58 46 2
    endloop
  endfacet
  facet normal 1 0 0
    outer loop
      vertex -58 -46 29
      vertex -58 4 12
      vertex -58 46 2
    endloop
  endfacet
  facet normal 1 0 0
    outer loop
      vertex -58 -46 29
      vertex -58 -19 15
      vertex -58 4 12
    endloop
  endfacet
  facet normal 1 0 0
    outer loop
      vertex -58 -9 8
      vertex -58 -9 12
      vertex -58 -19 15
    endloop
  endfacet
  facet normal 1 0 0
    outer loop
      vertex -58 -9 12
      vertex -58 4 12
      vertex -58 -19 15
    endloop
  endfacet
  facet normal 1 0 0
    outer loop
      vertex -58 -19 15
      vertex -58 -19 8
      vertex -58 -9 8
    endloop
  endfacet
  facet normal 0 1 0
    outer loop
      vertex -22 -46 8
      vertex -24 -46 14
      vertex -22 -46 17
    endloop
  endfacet
  facet normal 0 1 0
    outer loop
      vertex 47 -46 22
      vertex -58 -46 29
      vertex 58 -46 29
    endloop
  endfacet
  facet normal 0 1 0
    outer loop
      vertex -58 -46 2
      vertex -58 -46 29
      vertex -47 -46 14
    endloop
  endfacet
  facet normal 0 1 0
    outer loop
      vertex -58 -46 2
      vertex -47 -46 14
      vertex -47 -46 8
    endloop
  endfacet
  facet normal 0 1 0
    outer loop
      vertex -58 -46 2
      vertex -47 -46 8
      vertex 58 -46 2
    endloop
  endfacet
  facet normal 0 1 0
    outer loop
      vertex -47 -46 8
      vertex -24 -46 8
      vertex 58 -46 2
    endloop
  endfacet
  facet normal 0 1 0
    outer loop
      vertex -47 -46 14
      vertex -58 -46 29
      vertex -24 -46 14
    endloop
  endfacet
  facet normal 0 1 0
    outer loop
      vertex -22 -46 17
      vertex -58 -46 29
      vertex -5 -46 17
    endloop
  endfacet
  facet normal 0 1 0
    outer loop
      vertex -24 -46 14
      vertex -58 -46 29
      vertex -22 -46 17
    endloop
  endfacet
  facet normal 0 1 0
    outer loop
      vertex -24 -46 8
      vertex -22 -46 8
      vertex 58 -46 2
    endloop
  endfacet
  facet normal 0 1 0
    outer loop
      vertex 58 -46 2
      vertex 47 -46 8
      vertex 58 -46 29
    endloop
  endfacet
  facet normal 0 1 0
    outer loop
      vertex 29 -46 23
      vertex -58 -46 29
      vertex 47 -46 22
    endloop
  endfacet
  facet normal 0 1 0
    outer loop
      vertex 47 -46 8
      vertex 47 -46 22
      vertex 58 -46 29
    endloop
  endfacet
  facet normal 0 1 0
    outer loop
      vertex -5 -46 17
      vertex -58 -46 29
      vertex -5 -46 23
    endloop
  endfacet
  facet normal 0 1 0
    outer loop
      vertex 29 -46 22
      vertex 29 -46 23
      vertex 47 -46 22
    endloop
  endfacet
  facet normal 0 1 0
    outer loop
      vertex -5 -46 23
      vertex -58 -46 29
      vertex 29 -46 23
    endloop
  endfacet
  facet normal 0 1 0
    outer loop
      vertex 47 -46 8
      vertex 58 -46 2
      vertex -22 -46 8
    endloop
  endfacet
  facet normal 0 1 0
    outer loop
      vertex -24 -46 14
      vertex -22 -46 8
      vertex -24 -46 8
    endloop
  endfacet
  facet normal -1 0 0
    outer loop
      vertex 58 -46 2
      vertex 58 -46 29
      vertex 58 46 2
    endloop
  endfacet
  facet normal -1 0 0
    outer loop
      vertex 58 46 2
      vertex 58 -46 29
      vertex 58 46 29
    endloop
  endfacet
  facet normal 0 -1 0
    outer loop
      vertex -51 46 8
      vertex -58 46 2
      vertex 58 46 2
    endloop
  endfacet
  facet normal 0 -1 0
    outer loop
      vertex 58 46 29
      vertex -58 46 29
      vertex 58 46 2
    endloop
  endfacet
  facet normal 0 -1 0
    outer loop
      vertex -43 46 8
      vertex -51 46 8
      vertex 58 46 2
    endloop
  endfacet
  facet normal 0 -1 0
    outer loop
      vertex -58 46 29
      vertex -58 46 2
      vertex -51 46 8
    endloop
  endfacet
  facet normal 0 -1 0
    outer loop
      vertex -58 46 29
      vertex -51 46 8
      vertex -51 46 16
    endloop
  endfacet
  facet normal 0 -1 0
    outer loop
      vertex -58 46 29
      vertex -43 46 16
      vertex 58 46 2
    endloop
  endfacet
  facet normal 0 -1 0
    outer loop
      vertex -58 46 29
      vertex -51 46 16
      vertex -43 46 16
    endloop
  endfacet
  facet normal 0 -1 0
    outer loop
      vertex -43 46 16
      vertex -43 46 8
      vertex 58 46 2
    endloop
  endfacet
  facet normal 0 0 1
    outer loop
      vertex -55 -43 2
      vertex -58 -46 2
      vertex 58 -46 2
    endloop
  endfacet
  facet normal 0 0 1
    outer loop
      vertex -49 -43 2
      vertex -55 -43 2
      vertex 58 -46 2
    endloop
  endfacet
  facet normal 0 0 1
    outer loop
      vertex -58 46 2
      vertex -58 -46 2
      vertex -55 -43 2
    endloop
  endfacet
  facet normal 0 0 1
    outer loop
      vertex -55 43 2
      vertex -49 43 2
      vertex -58 46 2
    endloop
  endfacet
  facet normal 0 0 1
    outer loop
      vertex -58 46 2
      vertex -55 -43 2
      vertex -55 -37 2
    endloop
  endfacet
  facet normal 0 0 1
    outer loop
      vertex 49 -43 2
      vertex -49 -37 2
      vertex 58 -46 2
    endloop
  endfacet
  facet normal 0 0 1
    outer loop
      vertex -58 46 2
      vertex -55 -37 2
      vertex -49 -37 2
    endloop
  endfacet
  facet normal 0 0 1
    outer loop
      vertex 49 -43 2
      vertex -49 43 2
      vertex -49 37 2
    endloop
  endfacet
  facet normal 0 0 1
    outer loop
      vertex 49 -43 2
      vertex 49 -37 2
      vertex -49 43 2
    endloop
  endfacet
  facet normal 0 0 1
    outer loop
      vertex -58 46 2
      vertex -49 -37 2
      vertex -55 37 2
    endloop
  endfacet
  facet normal 0 0 1
    outer loop
      vertex -58 46 2
      vertex -55 37 2
      vertex -55 43 2
    endloop
  endfacet
  facet normal 0 0 1
    outer loop
      vertex 58 46 2
      vertex -58 46 2
      vertex -49 43 2
    endloop
  endfacet
  facet normal 0 0 1
    outer loop
      vertex 49 -43 2
      vertex -49 37 2
      vertex -55 37 2
    endloop
  endfacet
  facet normal 0 0 1
    outer loop
      vertex -55 37 2
      vertex -49 -37 2
      vertex 49 -43 2
    endloop
  endfacet
  facet normal 0 0 1
    outer loop
      vertex 49 37 2
      vertex -49 43 2
      vertex 49 -37 2
    endloop
  endfacet
  facet normal 0 0 1
    outer loop
      vertex 58 46 2
      vertex 55 -37 2
      vertex 58 -46 2
    endloop
  endfacet
  facet normal 0 0 1
    outer loop
      vertex 58 46 2
      vertex 49 -37 2
      vertex 55 -37 2
    endloop
  endfacet
  facet normal 0 0 1
    outer loop
      vertex 55 -37 2
      vertex 55 -43 2
      vertex 58 -46 2
    endloop
  endfacet
  facet normal 0 0 1
    outer loop
      vertex 49 43 2
      vertex -49 43 2
      vertex 49 37 2
    endloop
  endfacet
  facet normal 0 0 1
    outer loop
      vertex 58 46 2
      vertex -49 43 2
      vertex 49 43 2
    endloop
  endfacet
  facet normal 0 0 1
    outer loop
      vertex 58 46 2
      vertex 49 43 2
      vertex 55 43 2
    endloop
  endfacet
  facet normal 0 0 1
    outer loop
      vertex 58 46 2
      vertex 55 37 2
      vertex 49 -37 2
    endloop
  endfacet
  facet normal 0 0 1
    outer loop
      vertex 58 46 2
      vertex 55 43 2
      vertex 55 37 2
    endloop
  endfacet
  facet normal 0 0 1
    outer loop
      vertex -49 -37 2
      vertex -49 -43 2
      vertex 58 -46 2
    endloop
  endfacet
  facet normal 0 0 1
    outer loop
      vertex 55 37 2
      vertex 49 37 2
      vertex 49 -37 2
    endloop
  endfacet
  facet normal 0 0 1
    outer loop
      vertex 55 -43 2
      vertex 49 -43 2
      vertex 58 -46 2
    endloop
  endfacet
  facet normal -1 0 0
    outer loop
      vertex -55 -43 2
      vertex -55 -43 6
      vertex -55 -37 2
    endloop
  endfacet
  facet normal -1 0 0
    outer loop
      vertex -55 -37 2
      vertex -55 -43 6
      vertex -55 -37 6
    endloop
  endfacet
  facet normal 0 -1 0
    outer loop
      vertex -55 -43 6
      vertex -55 -43 2
      vertex -49 -43 2
    endloop
  endfacet
  facet normal 0 -1 0
    outer loop
      vertex -49 -43 6
      vertex -55 -43 6
      vertex -49 -43 2
    endloop
  endfacet
  facet normal 1 0 0
    outer loop
      vertex -49 -43 6
      vertex -49 -43 2
      vertex -49 -37 2
    endloop
  endfacet
  facet normal 1 0 0
    outer loop
      vertex -49 -37 6
      vertex -49 -43 6
      vertex -49 -37 2
    endloop
  endfacet
  facet normal 0 1 0
    outer loop
      vertex -55 -37 2
      vertex -55 -37 6
      vertex -49 -37 2
    endloop
  endfacet
  facet normal 0 1 0
    outer loop
      vertex -49 -37 2
      vertex -55 -37 6
      vertex -49 -37 6
    endloop
  endfacet
  facet normal -1 0 0
    outer loop
      vertex -55 37 2
      vertex -55 37 6
      vertex -55 43 2
    endloop
  endfacet
  facet normal -1 0 0
    outer loop
      vertex -55 43 2
      vertex -55 37 6
      vertex -55 43 6
    endloop
  endfacet
  facet normal 0 -1 0
    outer loop
      vertex -55 37 6
      vertex -55 37 2
      vertex -49 37 2
    endloop
  endfacet
  facet normal 0 -1 0
    outer loop
      vertex -49 37 6
      vertex -55 37 6
      vertex -49 37 2
    endloop
  endfacet
  facet normal 1 0 0
    outer loop
      vertex -49 37 6
      vertex -49 37 2
      vertex -49 43 2
    endloop
  endfacet
  facet normal 1 0 0
    outer loop
      vertex -49 43 6
      vertex -49 37 6
      vertex -49 43 2
    endloop
  endfacet
  facet normal 0 1 0
    outer loop
      vertex -55 43 2
      vertex -55 43 6
      vertex -49 43 2
    endloop
  endfacet
  facet normal 0 1 0
    outer loop
      vertex -49 43 2
      vertex -55 43 6
      vertex -49 43 6
    endloop
  endfacet
  facet normal -1 0 0
    outer loop
      vertex 49 -43 2
      vertex 49 -43 6
      vertex 49 -37 2
    endloop
  endfacet
  facet normal -1 0 0
    outer loop
      vertex 49 -37 2
      vertex 49 -43 6
      vertex 49 -37 6
    endloop
  endfacet
  facet normal 0 -1 0
    outer loop
      vertex 49 -43 6
      vertex 49 -43 2
      vertex 55 -43 2
    endloop
  endfacet
  facet normal 0 -1 0
    outer loop
      vertex 55 -43 6
      vertex 49 -43 6
      vertex 55 -43 2
    endloop
  endfacet
  facet normal 1 0 0
    outer loop
      vertex 55 -43 6
      vertex 55 -43 2
      vertex 55 -37 2
    endloop
  endfacet
  facet normal 1 0 0
    outer loop
      vertex 55 -37 6
      vertex 55 -43 6
      vertex 55 -37 2
    endloop
  endfacet
  facet normal 0 1 0
    outer loop
      vertex 49 -37 2
      vertex 49 -37 6
      vertex 55 -37 2
    endloop
  endfacet
  facet normal 0 1 0
    outer loop
      vertex 55 -37 2
      vertex 49 -37 6
      vertex 55 -37 6
    endloop
  endfacet
  facet normal -1 0 0
    outer loop
      vertex 49 37 2
      vertex 49 37 6
      vertex 49 43 2
    endloop
  endfacet
  facet normal -1 0 0
    outer loop
      vertex 49 43 2
      vertex 49 37 6
      vertex 49 43 6
    endloop
  endfacet
  facet normal 0 -1 0
    outer loop
      vertex 49 37 6
      vertex 49 37 2
      vertex 55 37 2
    endloop
  endfacet
  facet normal 0 -1 0
    outer loop
      vertex 55 37 6
      vertex 49 37 6
      vertex 55 37 2
    endloop
  endfacet
  facet normal 1 0 0
    outer loop
      vertex 55 37 6
      vertex 55 37 2
      vertex 55 43 2
    endloop
  endfacet
  facet normal 1 0 0
    outer loop
      vertex 55 43 6
      vertex 55 37 6
      vertex 55 43 2
    endloop
  endfacet
  facet normal 0 1 0
    outer loop
      vertex 49 43 2
      vertex 49 43 6
      vertex 55 43 2
    endloop
  endfacet
  facet normal 0 1 0
    outer loop
      vertex 55 43 2
      vertex 49 43 6
      vertex 55 43 6
    endloop
  endfacet
  facet normal 0 0 1
    outer loop
      vertex -55 -37 6
      vertex -55 -43 6
      vertex -49 -43 6
    endloop
  endfacet
  facet normal 0 0 1
    outer loop
      vertex -49 -37 6
      vertex -55 -37 6
      vertex -49 -43 6
    endloop
  endfacet
  facet normal 0 0 1
    outer loop
      vertex -55 43 6
      vertex -55 37 6
      vertex -49 37 6
    endloop
  endfacet
  facet normal 0 0 1
    outer loop
      vertex -49 43 6
      vertex -55 43 6
      vertex -49 37 6
    endloop
  endfacet
  facet normal 0 0 1
    outer loop
      vertex 49 -37 6
      vertex 49 -43 6
      vertex 55 -43 6
    endloop
  endfacet
  facet normal 0 0 1
    outer loop
      vertex 55 -37 6
      vertex 49 -37 6
      vertex 55 -43 6
    endloop
  endfacet
  facet normal 0 0 1
    outer loop
      vertex 49 43 6
      vertex 49 37 6
      vertex 55 37 6
    endloop
  endfacet
  facet normal 0 0 1
    outer loop
      vertex 55 43 6
      vertex 49 43 6
      vertex 55 37 6
    endloop
  endfacet
endsolid OpenSCAD_Model
