solid OpenSCAD_Model
  facet normal -1 0 0
    outer loop
      vertex -60 48 2
      vertex -60 48 0
      vertex -60 -48 2
    endloop
  endfacet
  facet normal -1 0 0
    outer loop
      vertex -60 -48 2
      vertex -60 48 0
      vertex -60 -48 1.17566e-14
    endloop
  endfacet
  facet normal 0 1 -1.22465e-16
    outer loop
      vertex -60 48 2
      vertex 60 48 2
      vertex -60 48 0
    endloop
  endfacet
  facet normal 0 1 -1.22465e-16
    outer loop
      vertex -60 48 0
      vertex 60 48 2
      vertex 60 48 0
    endloop
  endfacet
  facet normal 0 1.22465e-16 1
    outer loop
      vertex -58 -46 2
      vertex -60 48 2
      vertex -60 -48 2
    endloop
  endfacet
  facet normal 0 1.22465e-16 1
    outer loop
      vertex -58 46 2
      vertex 58 46 2
      vertex 60 48 2
    endloop
  endfacet
  facet normal 0 1.22465e-16 1
    outer loop
      vertex -58 46 2
      vertex -60 48 2
      vertex -58 -46 2
    endloop
  endfacet
  facet normal 0 1.22465e-16 1
    outer loop
      vertex 60 48 2
      vertex -60 48 2
      vertex -58 46 2
    endloop
  endfacet
  facet normal 0 1.22465e-16 1
    outer loop
      vertex 60 -48 2
      vertex 60 48 2
      vertex 58 46 2
    endloop
  endfacet
  facet normal 0 1.22465e-16 1
    outer loop
      vertex 60 -48 2
      vertex 58 -46 2
      vertex -60 -48 2
    endloop
  endfacet
  facet normal 0 1.22465e-16 1
    outer loop
      vertex 60 -48 2
      vertex 58 46 2
      vertex 58 -46 2
    endloop
  endfacet
  facet normal 0 1.22465e-16 1
    outer loop
      vertex 58 -46 2
      vertex -58 -46 2
      vertex -60 -48 2
    endloop
  endfacet
  facet normal 0 -1 1.22465e-16
    outer loop
      vertex 60 -48 2
      vertex -60 -48 2
      vertex -60 -48 1.17566e-14
    endloop
  endfacet
  facet normal 0 -1 1.22465e-16
    outer loop
      vertex 60 -48 1.17566e-14
      vertex 60 -48 2
      vertex -60 -48 1.17566e-14
    endloop
  endfacet
  facet normal 0 -1.22465e-16 -1
    outer loop
      vertex 51 -38 1.0532e-14
      vertex 60 48 0
      vertex 60 -48 1.17566e-14
    endloop
  endfacet
  facet normal 0 -1.22465e-16 -1
    outer loop
      vertex -30 36 1.46958e-15
      vertex 60 48 0
      vertex -54 23 3.06162e-15
    endloop
  endfacet
  facet normal 0 -1.22465e-16 -1
    outer loop
      vertex -60 48 0
      vertex -54 23 3.06162e-15
      vertex -60 -48 1.17566e-14
    endloop
  endfacet
  facet normal 0 -1.22465e-16 -1
    outer loop
      vertex -30 41 8.57253e-16
      vertex 60 48 0
      vertex -30 36 1.46958e-15
    endloop
  endfacet
  facet normal 0 -1.22465e-16 -1
    outer loop
      vertex -54 23 3.06162e-15
      vertex -54 17 3.79641e-15
      vertex -60 -48 1.17566e-14
    endloop
  endfacet
  facet normal 0 -1.22465e-16 -1
    outer loop
      vertex -54 17 3.79641e-15
      vertex -50 17 3.79641e-15
      vertex -60 -48 1.17566e-14
    endloop
  endfacet
  facet normal 0 -1.22465e-16 -1
    outer loop
      vertex -54 23 3.06162e-15
      vertex 60 48 0
      vertex -50 23 3.06162e-15
    endloop
  endfacet
  facet normal 0 -1.22465e-16 -1
    outer loop
      vertex -60 48 0
      vertex 60 48 0
      vertex -40 41 8.57253e-16
    endloop
  endfacet
  facet normal 0 -1.22465e-16 -1
    outer loop
      vertex -60 48 0
      vertex -40 41 8.57253e-16
      vertex -54 23 3.06162e-15
    endloop
  endfacet
  facet normal 0 -1.22465e-16 -1
    outer loop
      vertex 51 -38 1.0532e-14
      vertex 60 -48 1.17566e-14
      vertex -30 -38 1.0532e-14
    endloop
  endfacet
  facet normal 0 -1.22465e-16 -1
    outer loop
      vertex -40 41 8.57253e-16
      vertex -40 36 1.46958e-15
      vertex -54 23 3.06162e-15
    endloop
  endfacet
  facet normal 0 -1.22465e-16 -1
    outer loop
      vertex -40 36 1.46958e-15
      vertex -30 36 1.46958e-15
      vertex -54 23 3.06162e-15
    endloop
  endfacet
  facet normal 0 -1.22465e-16 -1
    outer loop
      vertex -40 41 8.57253e-16
      vertex 60 48 0
      vertex -30 41 8.57253e-16
    endloop
  endfacet
  facet normal 0 -1.22465e-16 -1
    outer loop
      vertex -60 -48 1.17566e-14
      vertex -30 -35 1.01646e-14
      vertex -30 -38 1.0532e-14
    endloop
  endfacet
  facet normal 0 -1.22465e-16 -1
    outer loop
      vertex -60 -48 1.17566e-14
      vertex -30 -38 1.0532e-14
      vertex 60 -48 1.17566e-14
    endloop
  endfacet
  facet normal 0 -1.22465e-16 -1
    outer loop
      vertex 52 16 3.91887e-15
      vertex 60 48 0
      vertex 51 -38 1.0532e-14
    endloop
  endfacet
  facet normal 0 -1.22465e-16 -1
    outer loop
      vertex 52 41 8.57253e-16
      vertex 60 48 0
      vertex 52 29 2.32683e-15
    endloop
  endfacet
  facet normal 0 -1.22465e-16 -1
    outer loop
      vertex 23 28 2.44929e-15
      vertex 8 22 3.18408e-15
      vertex 1 22 3.18408e-15
    endloop
  endfacet
  facet normal 0 -1.22465e-16 -1
    outer loop
      vertex -50 17 3.79641e-15
      vertex -20 15 4.04133e-15
      vertex -60 -48 1.17566e-14
    endloop
  endfacet
  facet normal 0 -1.22465e-16 -1
    outer loop
      vertex -20 15 4.04133e-15
      vertex -20 12 4.40873e-15
      vertex -60 -48 1.17566e-14
    endloop
  endfacet
  facet normal 0 -1.22465e-16 -1
    outer loop
      vertex 1 16 3.91887e-15
      vertex -20 15 4.04133e-15
      vertex 1 22 3.18408e-15
    endloop
  endfacet
  facet normal 0 -1.22465e-16 -1
    outer loop
      vertex 23 31 2.0819e-15
      vertex 60 48 0
      vertex 23 28 2.44929e-15
    endloop
  endfacet
  facet normal 0 -1.22465e-16 -1
    outer loop
      vertex 45 -35 1.01646e-14
      vertex -30 -35 1.01646e-14
      vertex 45 12 4.40873e-15
    endloop
  endfacet
  facet normal 0 -1.22465e-16 -1
    outer loop
      vertex 34 28 2.44929e-15
      vertex 52 29 2.32683e-15
      vertex 52 28 2.44929e-15
    endloop
  endfacet
  facet normal 0 -1.22465e-16 -1
    outer loop
      vertex 49 41 8.57253e-16
      vertex 60 48 0
      vertex 52 41 8.57253e-16
    endloop
  endfacet
  facet normal 0 -1.22465e-16 -1
    outer loop
      vertex 12 28 2.44929e-15
      vertex -20 15 4.04133e-15
      vertex 12 31 2.0819e-15
    endloop
  endfacet
  facet normal 0 -1.22465e-16 -1
    outer loop
      vertex 34 28 2.44929e-15
      vertex 26 22 3.18408e-15
      vertex 49 41 8.57253e-16
    endloop
  endfacet
  facet normal 0 -1.22465e-16 -1
    outer loop
      vertex -50 17 3.79641e-15
      vertex 60 48 0
      vertex 12 31 2.0819e-15
    endloop
  endfacet
  facet normal 0 -1.22465e-16 -1
    outer loop
      vertex -50 17 3.79641e-15
      vertex 12 31 2.0819e-15
      vertex -20 15 4.04133e-15
    endloop
  endfacet
  facet normal 0 -1.22465e-16 -1
    outer loop
      vertex 23 28 2.44929e-15
      vertex 1 22 3.18408e-15
      vertex 12 28 2.44929e-15
    endloop
  endfacet
  facet normal 0 -1.22465e-16 -1
    outer loop
      vertex -20 15 4.04133e-15
      vertex 12 28 2.44929e-15
      vertex 1 22 3.18408e-15
    endloop
  endfacet
  facet normal 0 -1.22465e-16 -1
    outer loop
      vertex 12 31 2.0819e-15
      vertex 60 48 0
      vertex 23 31 2.0819e-15
    endloop
  endfacet
  facet normal 0 -1.22465e-16 -1
    outer loop
      vertex 49 29 2.32683e-15
      vertex 34 28 2.44929e-15
      vertex 49 41 8.57253e-16
    endloop
  endfacet
  facet normal 0 -1.22465e-16 -1
    outer loop
      vertex 51 15 4.04133e-15
      vertex 52 16 3.91887e-15
      vertex 51 -38 1.0532e-14
    endloop
  endfacet
  facet normal 0 -1.22465e-16 -1
    outer loop
      vertex 8 16 3.91887e-15
      vertex 60 48 0
      vertex 49 41 8.57253e-16
    endloop
  endfacet
  facet normal 0 -1.22465e-16 -1
    outer loop
      vertex 8 16 3.91887e-15
      vertex 49 41 8.57253e-16
      vertex 26 22 3.18408e-15
    endloop
  endfacet
  facet normal 0 -1.22465e-16 -1
    outer loop
      vertex -50 23 3.06162e-15
      vertex 60 48 0
      vertex -50 17 3.79641e-15
    endloop
  endfacet
  facet normal 0 -1.22465e-16 -1
    outer loop
      vertex 8 22 3.18408e-15
      vertex 23 28 2.44929e-15
      vertex 8 16 3.91887e-15
    endloop
  endfacet
  facet normal 0 -1.22465e-16 -1
    outer loop
      vertex 23 28 2.44929e-15
      vertex 60 48 0
      vertex 8 16 3.91887e-15
    endloop
  endfacet
  facet normal 0 -1.22465e-16 -1
    outer loop
      vertex -20 15 4.04133e-15
      vertex 1 16 3.91887e-15
      vertex 8 16 3.91887e-15
    endloop
  endfacet
  facet normal 0 -1.22465e-16 -1
    outer loop
      vertex 34 22 3.18408e-15
      vertex 26 22 3.18408e-15
      vertex 34 28 2.44929e-15
    endloop
  endfacet
  facet normal 0 -1.22465e-16 -1
    outer loop
      vertex 52 28 2.44929e-15
      vertex 60 48 0
      vertex 52 16 3.91887e-15
    endloop
  endfacet
  facet normal 0 -1.22465e-16 -1
    outer loop
      vertex 52 16 3.91887e-15
      vertex 51 15 4.04133e-15
      vertex 26 16 3.91887e-15
    endloop
  endfacet
  facet normal 0 -1.22465e-16 -1
    outer loop
      vertex 8 16 3.91887e-15
      vertex 26 22 3.18408e-15
      vertex 26 16 3.91887e-15
    endloop
  endfacet
  facet normal 0 -1.22465e-16 -1
    outer loop
      vertex -20 15 4.04133e-15
      vertex 8 16 3.91887e-15
      vertex 26 16 3.91887e-15
    endloop
  endfacet
  facet normal 0 -1.22465e-16 -1
    outer loop
      vertex 52 29 2.32683e-15
      vertex 60 48 0
      vertex 52 28 2.44929e-15
    endloop
  endfacet
  facet normal 0 -1.22465e-16 -1
    outer loop
      vertex 34 28 2.44929e-15
      vertex 49 29 2.32683e-15
      vertex 52 29 2.32683e-15
    endloop
  endfacet
  facet normal 0 -1.22465e-16 -1
    outer loop
      vertex -20 15 4.04133e-15
      vertex 26 16 3.91887e-15
      vertex 51 15 4.04133e-15
    endloop
  endfacet
  facet normal 0 -1.22465e-16 -1
    outer loop
      vertex 45 12 4.40873e-15
      vertex -30 -35 1.01646e-14
      vertex -60 -48 1.17566e-14
    endloop
  endfacet
  facet normal 0 -1.22465e-16 -1
    outer loop
      vertex 45 12 4.40873e-15
      vertex -60 -48 1.17566e-14
      vertex -20 12 4.40873e-15
    endloop
  endfacet
  facet normal 1 0 0
    outer loop
      vertex 60 48 0
      vertex 60 48 2
      vertex 60 -48 2
    endloop
  endfacet
  facet normal 1 0 0
    outer loop
      vertex 60 -48 1.17566e-14
      vertex 60 48 0
      vertex 60 -48 2
    endloop
  endfacet
  facet normal -1 0 0
    outer loop
      vertex -58 46 11
      vertex -58 46 2
      vertex -58 44 11
    endloop
  endfacet
  facet normal -1 0 0
    outer loop
      vertex -58 44 4
      vertex -58 46 2
      vertex -58 -46 2
    endloop
  endfacet
  facet normal -1 0 0
    outer loop
      vertex -58 -44 11
      vertex -58 -46 2
      vertex -58 -46 11
    endloop
  endfacet
  facet normal -1 0 0
    outer loop
      vertex -58 -44 4
      vertex -58 -46 2
      vertex -58 -44 11
    endloop
  endfacet
  facet normal -1 0 0
    outer loop
      vertex -58 44 11
      vertex -58 46 2
      vertex -58 44 4
    endloop
  endfacet
  facet normal -1 0 0
    outer loop
      vertex -58 44 4
      vertex -58 -46 2
      vertex -58 -44 4
    endloop
  endfacet
  facet normal 0 -1 1.22465e-16
    outer loop
      vertex -53 -46 11
      vertex -58 -46 11
      vertex -58 -46 2
    endloop
  endfacet
  facet normal 0 -1 1.22465e-16
    outer loop
      vertex -53 -46 4
      vertex -53 -46 11
      vertex -58 -46 2
    endloop
  endfacet
  facet normal 0 -1 1.22465e-16
    outer loop
      vertex 58 -46 11
      vertex 53 -46 11
      vertex 58 -46 2
    endloop
  endfacet
  facet normal 0 -1 1.22465e-16
    outer loop
      vertex 53 -46 11
      vertex 53 -46 4
      vertex 58 -46 2
    endloop
  endfacet
  facet normal 0 -1 1.22465e-16
    outer loop
      vertex 58 -46 2
      vertex -53 -46 4
      vertex -58 -46 2
    endloop
  endfacet
  facet normal 0 -1 1.22465e-16
    outer loop
      vertex 53 -46 4
      vertex -53 -46 4
      vertex 58 -46 2
    endloop
  endfacet
  facet normal 1 0 0
    outer loop
      vertex 58 46 2
      vertex 58 46 11
      vertex 58 44 11
    endloop
  endfacet
  facet normal 1 0 0
    outer loop
      vertex 58 -44 4
      vertex 58 46 2
      vertex 58 44 4
    endloop
  endfacet
  facet normal 1 0 0
    outer loop
      vertex 58 44 4
      vertex 58 46 2
      vertex 58 44 11
    endloop
  endfacet
  facet normal 1 0 0
    outer loop
      vertex 58 -46 2
      vertex 58 46 2
      vertex 58 -44 4
    endloop
  endfacet
  facet normal 1 0 0
    outer loop
      vertex 58 -46 11
      vertex 58 -44 4
      vertex 58 -44 11
    endloop
  endfacet
  facet normal 1 0 0
    outer loop
      vertex 58 -46 2
      vertex 58 -44 4
      vertex 58 -46 11
    endloop
  endfacet
  facet normal 0 1 -1.22465e-16
    outer loop
      vertex -58 46 11
      vertex -53 46 11
      vertex -58 46 2
    endloop
  endfacet
  facet normal 0 1 -1.22465e-16
    outer loop
      vertex -58 46 2
      vertex -53 46 11
      vertex -53 46 4
    endloop
  endfacet
  facet normal 0 1 -1.22465e-16
    outer loop
      vertex -58 46 2
      vertex -53 46 4
      vertex 53 46 4
    endloop
  endfacet
  facet normal 0 1 -1.22465e-16
    outer loop
      vertex 53 46 4
      vertex 53 46 11
      vertex 58 46 11
    endloop
  endfacet
  facet normal 0 1 -1.22465e-16
    outer loop
      vertex 53 46 4
      vertex 58 46 11
      vertex 58 46 2
    endloop
  endfacet
  facet normal 0 1 -1.22465e-16
    outer loop
      vertex 53 46 4
      vertex 58 46 2
      vertex -58 46 2
    endloop
  endfacet
  facet normal 1 0 0
    outer loop
      vertex -54 17 3
      vertex -54 17 3.79641e-15
      vertex -54 23 3.06162e-15
    endloop
  endfacet
  facet normal 1 0 0
    outer loop
      vertex -54 23 3
      vertex -54 17 3
      vertex -54 23 3.06162e-15
    endloop
  endfacet
  facet normal 0 -1 1.22465e-16
    outer loop
      vertex -54 23 3.06162e-15
      vertex -50 23 3.06162e-15
      vertex -50 23 3
    endloop
  endfacet
  facet normal 0 -1 1.22465e-16
    outer loop
      vertex -54 23 3
      vertex -54 23 3.06162e-15
      vertex -50 23 3
    endloop
  endfacet
  facet normal -1 0 0
    outer loop
      vertex -50 17 3.79641e-15
      vertex -50 17 3
      vertex -50 23 3.06162e-15
    endloop
  endfacet
  facet normal -1 0 0
    outer loop
      vertex -50 23 3.06162e-15
      vertex -50 17 3
      vertex -50 23 3
    endloop
  endfacet
  facet normal 0 1 -1.22465e-16
    outer loop
      vertex -50 17 3.79641e-15
      vertex -54 17 3.79641e-15
      vertex -50 17 3
    endloop
  endfacet
  facet normal 0 1 -1.22465e-16
    outer loop
      vertex -50 17 3
      vertex -54 17 3.79641e-15
      vertex -54 17 3
    endloop
  endfacet
  facet normal 1 0 0
    outer loop
      vertex -40 36 3
      vertex -40 36 1.46958e-15
      vertex -40 41 8.57253e-16
    endloop
  endfacet
  facet normal 1 0 0
    outer loop
      vertex -40 41 3
      vertex -40 36 3
      vertex -40 41 8.57253e-16
    endloop
  endfacet
  facet normal 0 -1 1.22465e-16
    outer loop
      vertex -40 41 8.57253e-16
      vertex -30 41 8.57253e-16
      vertex -30 41 3
    endloop
  endfacet
  facet normal 0 -1 1.22465e-16
    outer loop
      vertex -40 41 3
      vertex -40 41 8.57253e-16
      vertex -30 41 3
    endloop
  endfacet
  facet normal -1 0 0
    outer loop
      vertex -30 36 1.46958e-15
      vertex -30 36 3
      vertex -30 41 8.57253e-16
    endloop
  endfacet
  facet normal -1 0 0
    outer loop
      vertex -30 41 8.57253e-16
      vertex -30 36 3
      vertex -30 41 3
    endloop
  endfacet
  facet normal 0 1 -1.22465e-16
    outer loop
      vertex -30 36 1.46958e-15
      vertex -40 36 1.46958e-15
      vertex -30 36 3
    endloop
  endfacet
  facet normal 0 1 -1.22465e-16
    outer loop
      vertex -30 36 3
      vertex -40 36 1.46958e-15
      vertex -40 36 3
    endloop
  endfacet
  facet normal 1 0 0
    outer loop
      vertex -30 -38 3
      vertex -30 -38 1.0532e-14
      vertex -30 -35 1.01646e-14
    endloop
  endfacet
  facet normal 1 0 0
    outer loop
      vertex -30 -35 3
      vertex -30 -38 3
      vertex -30 -35 1.01646e-14
    endloop
  endfacet
  facet normal 0 -1 1.22465e-16
    outer loop
      vertex -30 -35 1.01646e-14
      vertex 45 -35 1.01646e-14
      vertex 45 -35 3
    endloop
  endfacet
  facet normal 0 -1 1.22465e-16
    outer loop
      vertex -30 -35 3
      vertex -30 -35 1.01646e-14
      vertex 45 -35 3
    endloop
  endfacet
  facet normal 1 0 0
    outer loop
      vertex 45 -35 3
      vertex 45 -35 1.01646e-14
      vertex 45 12 4.40873e-15
    endloop
  endfacet
  facet normal 1 0 0
    outer loop
      vertex 45 12 3
      vertex 45 -35 3
      vertex 45 12 4.40873e-15
    endloop
  endfacet
  facet normal 0 1 -1.22465e-16
    outer loop
      vertex 45 12 4.40873e-15
      vertex -20 12 4.40873e-15
      vertex 45 12 3
    endloop
  endfacet
  facet normal 0 1 -1.22465e-16
    outer loop
      vertex 45 12 3
      vertex -20 12 4.40873e-15
      vertex -20 12 3
    endloop
  endfacet
  facet normal 1 0 0
    outer loop
      vertex -20 12 3
      vertex -20 12 4.40873e-15
      vertex -20 15 4.04133e-15
    endloop
  endfacet
  facet normal 1 0 0
    outer loop
      vertex -20 15 3
      vertex -20 12 3
      vertex -20 15 4.04133e-15
    endloop
  endfacet
  facet normal 0 -1 1.22465e-16
    outer loop
      vertex -20 15 4.04133e-15
      vertex 51 15 4.04133e-15
      vertex 51 15 3
    endloop
  endfacet
  facet normal 0 -1 1.22465e-16
    outer loop
      vertex -20 15 3
      vertex -20 15 4.04133e-15
      vertex 51 15 3
    endloop
  endfacet
  facet normal -1 0 0
    outer loop
      vertex 51 -38 1.0532e-14
      vertex 51 -38 3
      vertex 51 15 4.04133e-15
    endloop
  endfacet
  facet normal -1 0 0
    outer loop
      vertex 51 15 4.04133e-15
      vertex 51 -38 3
      vertex 51 15 3
    endloop
  endfacet
  facet normal 0 1 -1.22465e-16
    outer loop
      vertex 51 -38 1.0532e-14
      vertex -30 -38 1.0532e-14
      vertex 51 -38 3
    endloop
  endfacet
  facet normal 0 1 -1.22465e-16
    outer loop
      vertex 51 -38 3
      vertex -30 -38 1.0532e-14
      vertex -30 -38 3
    endloop
  endfacet
  facet normal 1 0 0
    outer loop
      vertex 1 16 3
      vertex 1 16 3.91887e-15
      vertex 1 22 3.18408e-15
    endloop
  endfacet
  facet normal 1 0 0
    outer loop
      vertex 1 22 3
      vertex 1 16 3
      vertex 1 22 3.18408e-15
    endloop
  endfacet
  facet normal 0 -1 1.22465e-16
    outer loop
      vertex 1 22 3.18408e-15
      vertex 8 22 3.18408e-15
      vertex 8 22 3
    endloop
  endfacet
  facet normal 0 -1 1.22465e-16
    outer loop
      vertex 1 22 3
      vertex 1 22 3.18408e-15
      vertex 8 22 3
    endloop
  endfacet
  facet normal -1 0 0
    outer loop
      vertex 8 16 3.91887e-15
      vertex 8 16 3
      vertex 8 22 3.18408e-15
    endloop
  endfacet
  facet normal -1 0 0
    outer loop
      vertex 8 22 3.18408e-15
      vertex 8 16 3
      vertex 8 22 3
    endloop
  endfacet
  facet normal 0 1 -1.22465e-16
    outer loop
      vertex 8 16 3.91887e-15
      vertex 1 16 3.91887e-15
      vertex 8 16 3
    endloop
  endfacet
  facet normal 0 1 -1.22465e-16
    outer loop
      vertex 8 16 3
      vertex 1 16 3.91887e-15
      vertex 1 16 3
    endloop
  endfacet
  facet normal 1 0 0
    outer loop
      vertex 12 28 3
      vertex 12 28 2.44929e-15
      vertex 12 31 2.0819e-15
    endloop
  endfacet
  facet normal 1 0 0
    outer loop
      vertex 12 31 3
      vertex 12 28 3
      vertex 12 31 2.0819e-15
    endloop
  endfacet
  facet normal 0 -1 1.22465e-16
    outer loop
      vertex 12 31 2.0819e-15
      vertex 23 31 2.0819e-15
      vertex 23 31 3
    endloop
  endfacet
  facet normal 0 -1 1.22465e-16
    outer loop
      vertex 12 31 3
      vertex 12 31 2.0819e-15
      vertex 23 31 3
    endloop
  endfacet
  facet normal -1 0 0
    outer loop
      vertex 23 28 2.44929e-15
      vertex 23 28 3
      vertex 23 31 2.0819e-15
    endloop
  endfacet
  facet normal -1 0 0
    outer loop
      vertex 23 31 2.0819e-15
      vertex 23 28 3
      vertex 23 31 3
    endloop
  endfacet
  facet normal 0 1 -1.22465e-16
    outer loop
      vertex 23 28 2.44929e-15
      vertex 12 28 2.44929e-15
      vertex 23 28 3
    endloop
  endfacet
  facet normal 0 1 -1.22465e-16
    outer loop
      vertex 23 28 3
      vertex 12 28 2.44929e-15
      vertex 12 28 3
    endloop
  endfacet
  facet normal 1 0 0
    outer loop
      vertex 26 16 3
      vertex 26 16 3.91887e-15
      vertex 26 22 3.18408e-15
    endloop
  endfacet
  facet normal 1 0 0
    outer loop
      vertex 26 22 3
      vertex 26 16 3
      vertex 26 22 3.18408e-15
    endloop
  endfacet
  facet normal 0 -1 1.22465e-16
    outer loop
      vertex 26 22 3.18408e-15
      vertex 34 22 3.18408e-15
      vertex 34 22 3
    endloop
  endfacet
  facet normal 0 -1 1.22465e-16
    outer loop
      vertex 26 22 3
      vertex 26 22 3.18408e-15
      vertex 34 22 3
    endloop
  endfacet
  facet normal 1 0 0
    outer loop
      vertex 34 22 3
      vertex 34 22 3.18408e-15
      vertex 34 28 2.44929e-15
    endloop
  endfacet
  facet normal 1 0 0
    outer loop
      vertex 34 28 3
      vertex 34 22 3
      vertex 34 28 2.44929e-15
    endloop
  endfacet
  facet normal 0 -1 1.22465e-16
    outer loop
      vertex 34 28 2.44929e-15
      vertex 52 28 2.44929e-15
      vertex 52 28 3
    endloop
  endfacet
  facet normal 0 -1 1.22465e-16
    outer loop
      vertex 34 28 3
      vertex 34 28 2.44929e-15
      vertex 52 28 3
    endloop
  endfacet
  facet normal -1 0 0
    outer loop
      vertex 52 16 3.91887e-15
      vertex 52 16 3
      vertex 52 28 2.44929e-15
    endloop
  endfacet
  facet normal -1 0 0
    outer loop
      vertex 52 28 2.44929e-15
      vertex 52 16 3
      vertex 52 28 3
    endloop
  endfacet
  facet normal 0 1 -1.22465e-16
    outer loop
      vertex 52 16 3.91887e-15
      vertex 26 16 3.91887e-15
      vertex 52 16 3
    endloop
  endfacet
  facet normal 0 1 -1.22465e-16
    outer loop
      vertex 52 16 3
      vertex 26 16 3.91887e-15
      vertex 26 16 3
    endloop
  endfacet
  facet normal 1 0 0
    outer loop
      vertex 49 29 3
      vertex 49 29 2.32683e-15
      vertex 49 41 8.57253e-16
    endloop
  endfacet
  facet normal 1 0 0
    outer loop
      vertex 49 41 3
      vertex 49 29 3
      vertex 49 41 8.57253e-16
    endloop
  endfacet
  facet normal 0 -1 1.22465e-16
    outer loop
      vertex 49 41 8.57253e-16
      vertex 52 41 8.57253e-16
      vertex 52 41 3
    endloop
  endfacet
  facet normal 0 -1 1.22465e-16
    outer loop
      vertex 49 41 3
      vertex 49 41 8.57253e-16
      vertex 52 41 3
    endloop
  endfacet
  facet normal -1 0 0
    outer loop
      vertex 52 29 2.32683e-15
      vertex 52 29 3
      vertex 52 41 8.57253e-16
    endloop
  endfacet
  facet normal -1 0 0
    outer loop
      vertex 52 41 8.57253e-16
      vertex 52 29 3
      vertex 52 41 3
    endloop
  endfacet
  facet normal 0 1 -1.22465e-16
    outer loop
      vertex 52 29 2.32683e-15
      vertex 49 29 2.32683e-15
      vertex 52 29 3
    endloop
  endfacet
  facet normal 0 1 -1.22465e-16
    outer loop
      vertex 52 29 3
      vertex 49 29 2.32683e-15
      vertex 49 29 3
    endloop
  endfacet
  facet normal 0 1.22465e-16 1
    outer loop
      vertex -53 46 11
      vertex -58 46 11
      vertex -58 44 11
    endloop
  endfacet
  facet normal 0 1.22465e-16 1
    outer loop
      vertex -53 44 11
      vertex -53 46 11
      vertex -58 44 11
    endloop
  endfacet
  facet normal 0 -1 1.22465e-16
    outer loop
      vertex -53 44 11
      vertex -58 44 11
      vertex -58 44 4
    endloop
  endfacet
  facet normal 0 -1 1.22465e-16
    outer loop
      vertex -53 44 4
      vertex -53 44 11
      vertex -57 44 4
    endloop
  endfacet
  facet normal 0 -1 1.22465e-16
    outer loop
      vertex -57 44 4
      vertex -53 44 11
      vertex -58 44 4
    endloop
  endfacet
  facet normal 0 1.22465e-16 1
    outer loop
      vertex -57 44 4
      vertex -58 44 4
      vertex -58 -44 4
    endloop
  endfacet
  facet normal 0 1.22465e-16 1
    outer loop
      vertex -57 -44 4
      vertex -57 44 4
      vertex -58 -44 4
    endloop
  endfacet
  facet normal 0 1 -1.22465e-16
    outer loop
      vertex -58 -44 11
      vertex -53 -44 11
      vertex -58 -44 4
    endloop
  endfacet
  facet normal 0 1 -1.22465e-16
    outer loop
      vertex -57 -44 4
      vertex -53 -44 11
      vertex -53 -44 4
    endloop
  endfacet
  facet normal 0 1 -1.22465e-16
    outer loop
      vertex -58 -44 4
      vertex -53 -44 11
      vertex -57 -44 4
    endloop
  endfacet
  facet normal 0 1.22465e-16 1
    outer loop
      vertex -53 -44 11
      vertex -58 -44 11
      vertex -58 -46 11
    endloop
  endfacet
  facet normal 0 1.22465e-16 1
    outer loop
      vertex -53 -46 11
      vertex -53 -44 11
      vertex -58 -46 11
    endloop
  endfacet
  facet normal 1 0 0
    outer loop
      vertex -53 -44 4
      vertex -53 -44 11
      vertex -53 -46 11
    endloop
  endfacet
  facet normal 1 0 0
    outer loop
      vertex -53 -45 4
      vertex -53 -44 4
      vertex -53 -46 11
    endloop
  endfacet
  facet normal 1 0 0
    outer loop
      vertex -53 -46 4
      vertex -53 -45 4
      vertex -53 -46 11
    endloop
  endfacet
  facet normal 0 1.22465e-16 1
    outer loop
      vertex 53 -45 4
      vertex -53 -45 4
      vertex -53 -46 4
    endloop
  endfacet
  facet normal 0 1.22465e-16 1
    outer loop
      vertex 53 -46 4
      vertex 53 -45 4
      vertex -53 -46 4
    endloop
  endfacet
  facet normal -1 0 0
    outer loop
      vertex 53 -44 11
      vertex 53 -44 4
      vertex 53 -46 11
    endloop
  endfacet
  facet normal -1 0 0
    outer loop
      vertex 53 -46 11
      vertex 53 -44 4
      vertex 53 -45 4
    endloop
  endfacet
  facet normal -1 0 0
    outer loop
      vertex 53 -46 11
      vertex 53 -45 4
      vertex 53 -46 4
    endloop
  endfacet
  facet normal 0 1.22465e-16 1
    outer loop
      vertex 58 -44 11
      vertex 53 -44 11
      vertex 53 -46 11
    endloop
  endfacet
  facet normal 0 1.22465e-16 1
    outer loop
      vertex 58 -46 11
      vertex 58 -44 11
      vertex 53 -46 11
    endloop
  endfacet
  facet normal 0 1 -1.22465e-16
    outer loop
      vertex 53 -44 11
      vertex 58 -44 11
      vertex 53 -44 4
    endloop
  endfacet
  facet normal 0 1 -1.22465e-16
    outer loop
      vertex 57 -44 4
      vertex 58 -44 11
      vertex 58 -44 4
    endloop
  endfacet
  facet normal 0 1 -1.22465e-16
    outer loop
      vertex 53 -44 4
      vertex 58 -44 11
      vertex 57 -44 4
    endloop
  endfacet
  facet normal 0 1.22465e-16 1
    outer loop
      vertex 58 44 4
      vertex 57 44 4
      vertex 57 -44 4
    endloop
  endfacet
  facet normal 0 1.22465e-16 1
    outer loop
      vertex 58 -44 4
      vertex 58 44 4
      vertex 57 -44 4
    endloop
  endfacet
  facet normal 0 -1 1.22465e-16
    outer loop
      vertex 58 44 11
      vertex 53 44 11
      vertex 53 44 4
    endloop
  endfacet
  facet normal 0 -1 1.22465e-16
    outer loop
      vertex 58 44 4
      vertex 58 44 11
      vertex 57 44 4
    endloop
  endfacet
  facet normal 0 -1 1.22465e-16
    outer loop
      vertex 57 44 4
      vertex 58 44 11
      vertex 53 44 4
    endloop
  endfacet
  facet normal 0 1.22465e-16 1
    outer loop
      vertex 58 46 11
      vertex 53 46 11
      vertex 53 44 11
    endloop
  endfacet
  facet normal 0 1.22465e-16 1
    outer loop
      vertex 58 44 11
      vertex 58 46 11
      vertex 53 44 11
    endloop
  endfacet
  facet normal -1 0 0
    outer loop
      vertex 53 46 11
      vertex 53 46 4
      vertex 53 44 11
    endloop
  endfacet
  facet normal -1 0 0
    outer loop
      vertex 53 44 11
      vertex 53 46 4
      vertex 53 45 4
    endloop
  endfacet
  facet normal -1 0 0
    outer loop
      vertex 53 44 11
      vertex 53 45 4
      vertex 53 44 4
    endloop
  endfacet
  facet normal 0 1.22465e-16 1
    outer loop
      vertex 53 46 4
      vertex -53 46 4
      vertex -53 45 4
    endloop
  endfacet
  facet normal 0 1.22465e-16 1
    outer loop
      vertex 53 45 4
      vertex 53 46 4
      vertex -53 45 4
    endloop
  endfacet
  facet normal 1 0 0
    outer loop
      vertex -53 46 4
      vertex -53 46 11
      vertex -53 44 11
    endloop
  endfacet
  facet normal 1 0 0
    outer loop
      vertex -53 45 4
      vertex -53 46 4
      vertex -53 44 11
    endloop
  endfacet
  facet normal 1 0 0
    outer loop
      vertex -53 44 4
      vertex -53 45 4
      vertex -53 44 11
    endloop
  endfacet
  facet normal 0 1.22465e-16 1
    outer loop
      vertex 51 -38 3
      vertex 57 -45 3
      vertex 57 45 3
    endloop
  endfacet
  facet normal 0 1.22465e-16 1
    outer loop
      vertex -30 36 3
      vertex -54 23 3
      vertex 57 45 3
    endloop
  endfacet
  facet normal 0 1.22465e-16 1
    outer loop
      vertex -57 45 3
      vertex -57 -45 3
      vertex -54 23 3
    endloop
  endfacet
  facet normal 0 1.22465e-16 1
    outer loop
      vertex -54 23 3
      vertex -50 23 3
      vertex 57 45 3
    endloop
  endfacet
  facet normal 0 1.22465e-16 1
    outer loop
      vertex -50 23 3
      vertex -50 17 3
      vertex 57 45 3
    endloop
  endfacet
  facet normal 0 1.22465e-16 1
    outer loop
      vertex -30 36 3
      vertex -40 36 3
      vertex -54 23 3
    endloop
  endfacet
  facet normal 0 1.22465e-16 1
    outer loop
      vertex -54 23 3
      vertex -57 -45 3
      vertex -54 17 3
    endloop
  endfacet
  facet normal 0 1.22465e-16 1
    outer loop
      vertex -57 45 3
      vertex -40 41 3
      vertex 57 45 3
    endloop
  endfacet
  facet normal 0 1.22465e-16 1
    outer loop
      vertex -57 45 3
      vertex -54 23 3
      vertex -40 41 3
    endloop
  endfacet
  facet normal 0 1.22465e-16 1
    outer loop
      vertex -40 41 3
      vertex -30 41 3
      vertex 57 45 3
    endloop
  endfacet
  facet normal 0 1.22465e-16 1
    outer loop
      vertex -30 41 3
      vertex -30 36 3
      vertex 57 45 3
    endloop
  endfacet
  facet normal 0 1.22465e-16 1
    outer loop
      vertex -40 41 3
      vertex -54 23 3
      vertex -40 36 3
    endloop
  endfacet
  facet normal 0 1.22465e-16 1
    outer loop
      vertex -20 15 3
      vertex 26 16 3
      vertex 8 16 3
    endloop
  endfacet
  facet normal 0 1.22465e-16 1
    outer loop
      vertex 1 16 3
      vertex 1 22 3
      vertex -20 15 3
    endloop
  endfacet
  facet normal 0 1.22465e-16 1
    outer loop
      vertex 12 31 3
      vertex 23 31 3
      vertex 57 45 3
    endloop
  endfacet
  facet normal 0 1.22465e-16 1
    outer loop
      vertex -30 -35 3
      vertex 45 -35 3
      vertex 45 12 3
    endloop
  endfacet
  facet normal 0 1.22465e-16 1
    outer loop
      vertex -50 17 3
      vertex -57 -45 3
      vertex -20 12 3
    endloop
  endfacet
  facet normal 0 1.22465e-16 1
    outer loop
      vertex 23 31 3
      vertex 23 28 3
      vertex 49 41 3
    endloop
  endfacet
  facet normal 0 1.22465e-16 1
    outer loop
      vertex -50 17 3
      vertex -20 12 3
      vertex -20 15 3
    endloop
  endfacet
  facet normal 0 1.22465e-16 1
    outer loop
      vertex 52 16 3
      vertex 26 16 3
      vertex 51 15 3
    endloop
  endfacet
  facet normal 0 1.22465e-16 1
    outer loop
      vertex -57 -45 3
      vertex -30 -38 3
      vertex -30 -35 3
    endloop
  endfacet
  facet normal 0 1.22465e-16 1
    outer loop
      vertex -57 -45 3
      vertex 57 -45 3
      vertex -30 -38 3
    endloop
  endfacet
  facet normal 0 1.22465e-16 1
    outer loop
      vertex 23 31 3
      vertex 49 41 3
      vertex 57 45 3
    endloop
  endfacet
  facet normal 0 1.22465e-16 1
    outer loop
      vertex 1 22 3
      vertex 12 28 3
      vertex -20 15 3
    endloop
  endfacet
  facet normal 0 1.22465e-16 1
    outer loop
      vertex -50 17 3
      vertex 12 31 3
      vertex 57 45 3
    endloop
  endfacet
  facet normal 0 1.22465e-16 1
    outer loop
      vertex -50 17 3
      vertex -20 15 3
      vertex 12 31 3
    endloop
  endfacet
  facet normal 0 1.22465e-16 1
    outer loop
      vertex 49 41 3
      vertex 23 28 3
      vertex 8 16 3
    endloop
  endfacet
  facet normal 0 1.22465e-16 1
    outer loop
      vertex 8 22 3
      vertex 8 16 3
      vertex 23 28 3
    endloop
  endfacet
  facet normal 0 1.22465e-16 1
    outer loop
      vertex 23 28 3
      vertex 12 28 3
      vertex 1 22 3
    endloop
  endfacet
  facet normal 0 1.22465e-16 1
    outer loop
      vertex 12 31 3
      vertex -20 15 3
      vertex 12 28 3
    endloop
  endfacet
  facet normal 0 1.22465e-16 1
    outer loop
      vertex 52 28 3
      vertex 52 16 3
      vertex 57 45 3
    endloop
  endfacet
  facet normal 0 1.22465e-16 1
    outer loop
      vertex 52 41 3
      vertex 52 29 3
      vertex 57 45 3
    endloop
  endfacet
  facet normal 0 1.22465e-16 1
    outer loop
      vertex 8 16 3
      vertex 26 22 3
      vertex 34 28 3
    endloop
  endfacet
  facet normal 0 1.22465e-16 1
    outer loop
      vertex 52 29 3
      vertex 52 28 3
      vertex 57 45 3
    endloop
  endfacet
  facet normal 0 1.22465e-16 1
    outer loop
      vertex 51 -38 3
      vertex -30 -38 3
      vertex 57 -45 3
    endloop
  endfacet
  facet normal 0 1.22465e-16 1
    outer loop
      vertex 34 28 3
      vertex 49 41 3
      vertex 8 16 3
    endloop
  endfacet
  facet normal 0 1.22465e-16 1
    outer loop
      vertex 23 28 3
      vertex 1 22 3
      vertex 8 22 3
    endloop
  endfacet
  facet normal 0 1.22465e-16 1
    outer loop
      vertex -20 15 3
      vertex 8 16 3
      vertex 1 16 3
    endloop
  endfacet
  facet normal 0 1.22465e-16 1
    outer loop
      vertex 51 15 3
      vertex 51 -38 3
      vertex 52 16 3
    endloop
  endfacet
  facet normal 0 1.22465e-16 1
    outer loop
      vertex 52 16 3
      vertex 51 -38 3
      vertex 57 45 3
    endloop
  endfacet
  facet normal 0 1.22465e-16 1
    outer loop
      vertex 49 29 3
      vertex 49 41 3
      vertex 34 28 3
    endloop
  endfacet
  facet normal 0 1.22465e-16 1
    outer loop
      vertex 34 28 3
      vertex 52 29 3
      vertex 49 29 3
    endloop
  endfacet
  facet normal 0 1.22465e-16 1
    outer loop
      vertex -50 17 3
      vertex -54 17 3
      vertex -57 -45 3
    endloop
  endfacet
  facet normal 0 1.22465e-16 1
    outer loop
      vertex 34 22 3
      vertex 34 28 3
      vertex 26 22 3
    endloop
  endfacet
  facet normal 0 1.22465e-16 1
    outer loop
      vertex 8 16 3
      vertex 26 16 3
      vertex 26 22 3
    endloop
  endfacet
  facet normal 0 1.22465e-16 1
    outer loop
      vertex 34 28 3
      vertex 52 28 3
      vertex 52 29 3
    endloop
  endfacet
  facet normal 0 1.22465e-16 1
    outer loop
      vertex 45 12 3
      vertex -57 -45 3
      vertex -30 -35 3
    endloop
  endfacet
  facet normal 0 1.22465e-16 1
    outer loop
      vertex 45 12 3
      vertex -20 12 3
      vertex -57 -45 3
    endloop
  endfacet
  facet normal 0 1.22465e-16 1
    outer loop
      vertex 49 41 3
      vertex 52 41 3
      vertex 57 45 3
    endloop
  endfacet
  facet normal 0 1.22465e-16 1
    outer loop
      vertex -20 15 3
      vertex 51 15 3
      vertex 26 16 3
    endloop
  endfacet
  facet normal 0 -1.22465e-16 -1
    outer loop
      vertex -53 44 4
      vertex -57 44 4
      vertex -53 45 4
    endloop
  endfacet
  facet normal 0 -1.22465e-16 -1
    outer loop
      vertex -53 45 4
      vertex -57 44 4
      vertex -57 45 4
    endloop
  endfacet
  facet normal 1 0 0
    outer loop
      vertex -57 -44 4
      vertex -57 -45 4
      vertex -57 -45 3
    endloop
  endfacet
  facet normal 1 0 0
    outer loop
      vertex -57 44 4
      vertex -57 -44 4
      vertex -57 -45 3
    endloop
  endfacet
  facet normal 1 0 0
    outer loop
      vertex -57 45 3
      vertex -57 44 4
      vertex -57 -45 3
    endloop
  endfacet
  facet normal 1 0 0
    outer loop
      vertex -57 45 4
      vertex -57 44 4
      vertex -57 45 3
    endloop
  endfacet
  facet normal 0 -1.22465e-16 -1
    outer loop
      vertex -53 -45 4
      vertex -57 -45 4
      vertex -53 -44 4
    endloop
  endfacet
  facet normal 0 -1.22465e-16 -1
    outer loop
      vertex -53 -44 4
      vertex -57 -45 4
      vertex -57 -44 4
    endloop
  endfacet
  facet normal 0 1 -1.22465e-16
    outer loop
      vertex 57 -45 4
      vertex 57 -45 3
      vertex 53 -45 4
    endloop
  endfacet
  facet normal 0 1 -1.22465e-16
    outer loop
      vertex 53 -45 4
      vertex 57 -45 3
      vertex -53 -45 4
    endloop
  endfacet
  facet normal 0 1 -1.22465e-16
    outer loop
      vertex -53 -45 4
      vertex 57 -45 3
      vertex -57 -45 3
    endloop
  endfacet
  facet normal 0 1 -1.22465e-16
    outer loop
      vertex -53 -45 4
      vertex -57 -45 3
      vertex -57 -45 4
    endloop
  endfacet
  facet normal 0 -1.22465e-16 -1
    outer loop
      vertex 57 -45 4
      vertex 53 -45 4
      vertex 57 -44 4
    endloop
  endfacet
  facet normal 0 -1.22465e-16 -1
    outer loop
      vertex 57 -44 4
      vertex 53 -45 4
      vertex 53 -44 4
    endloop
  endfacet
  facet normal -1 0 0
    outer loop
      vertex 57 -45 3
      vertex 57 -45 4
      vertex 57 45 3
    endloop
  endfacet
  facet normal -1 0 0
    outer loop
      vertex 57 45 3
      vertex 57 -45 4
      vertex 57 -44 4
    endloop
  endfacet
  facet normal -1 0 0
    outer loop
      vertex 57 45 3
      vertex 57 -44 4
      vertex 57 44 4
    endloop
  endfacet
  facet normal -1 0 0
    outer loop
      vertex 57 45 3
      vertex 57 44 4
      vertex 57 45 4
    endloop
  endfacet
  facet normal 0 -1.22465e-16 -1
    outer loop
      vertex 57 44 4
      vertex 53 44 4
      vertex 57 45 4
    endloop
  endfacet
  facet normal 0 -1.22465e-16 -1
    outer loop
      vertex 57 45 4
      vertex 53 44 4
      vertex 53 45 4
    endloop
  endfacet
  facet normal 0 -1 1.22465e-16
    outer loop
      vertex -57 45 3
      vertex 57 45 3
      vertex 57 45 4
    endloop
  endfacet
  facet normal 0 -1 1.22465e-16
    outer loop
      vertex -53 45 4
      vertex -57 45 3
      vertex 53 45 4
    endloop
  endfacet
  facet normal 0 -1 1.22465e-16
    outer loop
      vertex 53 45 4
      vertex -57 45 3
      vertex 57 45 4
    endloop
  endfacet
  facet normal 0 -1 1.22465e-16
    outer loop
      vertex -57 45 4
      vertex -57 45 3
      vertex -53 45 4
    endloop
  endfacet
endsolid OpenSCAD_Model
