solid OpenSCAD_Model
  facet normal -1 0 0
    outer loop
      vertex -25 0 3
      vertex -25 70 3
      vertex -25 0 0
    endloop
  endfacet
  facet normal -1 0 0
    outer loop
      vertex -25 0 0
      vertex -25 70 3
      vertex -25 70 0
    endloop
  endfacet
  facet normal 0 0 1
    outer loop
      vertex -25 0 3
      vertex 25 0 3
      vertex 25 70 3
    endloop
  endfacet
  facet normal 0 0 1
    outer loop
      vertex -25 70 3
      vertex -25 0 3
      vertex 25 70 3
    endloop
  endfacet
  facet normal 0 -1 0
    outer loop
      vertex -25 0 0
      vertex 25 0 0
      vertex 25 0 3
    endloop
  endfacet
  facet normal 0 -1 0
    outer loop
      vertex -25 0 3
      vertex -25 0 0
      vertex 25 0 3
    endloop
  endfacet
  facet normal 0 0 -1
    outer loop
      vertex -25 70 0
      vertex 25 70 0
      vertex -25 0 0
    endloop
  endfacet
  facet normal 0 0 -1
    outer loop
      vertex -25 0 0
      vertex 25 70 0
      vertex 25 0 0
    endloop
  endfacet
  facet normal 0 1 0
    outer loop
      vertex -25 70 3
      vertex 25 70 3
      vertex -25 70 0
    endloop
  endfacet
  facet normal 0 1 0
    outer loop
      vertex -25 70 0
      vertex 25 70 3
      vertex 25 70 0
    endloop
  endfacet
  facet normal 1 0 0
    outer loop
      vertex 25 0 0
      vertex 25 70 0
      vertex 25 70 3
    endloop
  endfacet
  facet normal 1 0 0
    outer loop
      vertex 25 0 3
      vertex 25 0 0
      vertex 25 70 3
    endloop
  endfacet
endsolid OpenSCAD_Model
