solid OpenSCAD_Model
  facet normal -1 0 0
    outer loop
      vertex 2.5 -30 0
      vertex 2.5 -3 5
      vertex 2.5 -3 0
    endloop
  endfacet
  facet normal -1 -0 0
    outer loop
      vertex 2.5 -3 5
      vertex 2.5 -30 0
      vertex 2.5 -30 5
    endloop
  endfacet
  facet normal 0 -1 0
    outer loop
      vertex 2.5 -30 0
      vertex 27.5 -30 5
      vertex 2.5 -30 5
    endloop
  endfacet
  facet normal 0 -1 -0
    outer loop
      vertex 27.5 -30 5
      vertex 2.5 -30 0
      vertex 27.5 -30 0
    endloop
  endfacet
  facet normal 1 -0 0
    outer loop
      vertex 7.5 -25 5
      vertex 7.5 -3 0
      vertex 7.5 -3 5
    endloop
  endfacet
  facet normal 1 0 0
    outer loop
      vertex 7.5 -3 0
      vertex 7.5 -25 5
      vertex 7.5 -25 0
    endloop
  endfacet
  facet normal 0 1 -0
    outer loop
      vertex 10 0 0
      vertex 0 0 10
      vertex 10 0 10
    endloop
  endfacet
  facet normal 0 1 0
    outer loop
      vertex 0 0 10
      vertex 10 0 0
      vertex 0 0 0
    endloop
  endfacet
  facet normal 0 0 -1
    outer loop
      vertex 27.5 -30 0
      vertex 22.5 -25 0
      vertex 27.5 -20 0
    endloop
  endfacet
  facet normal 0 0 -1
    outer loop
      vertex 27.5 -30 0
      vertex 7.5 -25 0
      vertex 22.5 -25 0
    endloop
  endfacet
  facet normal 0 0 -1
    outer loop
      vertex 2.5 -3 0
      vertex 7.5 -25 0
      vertex 2.5 -30 0
    endloop
  endfacet
  facet normal 0 0 -1
    outer loop
      vertex 2.5 -30 0
      vertex 7.5 -25 0
      vertex 27.5 -30 0
    endloop
  endfacet
  facet normal -0 0 -1
    outer loop
      vertex 27.5 -20 0
      vertex 22.5 -25 0
      vertex 22.5 -20 0
    endloop
  endfacet
  facet normal 0 0 -1
    outer loop
      vertex 7.5 -3 0
      vertex 10 0 0
      vertex 10 -3 0
    endloop
  endfacet
  facet normal 0 0 -1
    outer loop
      vertex 7.5 -25 0
      vertex 2.5 -3 0
      vertex 7.5 -3 0
    endloop
  endfacet
  facet normal 0 0 -1
    outer loop
      vertex 2.5 -3 0
      vertex 10 0 0
      vertex 7.5 -3 0
    endloop
  endfacet
  facet normal 0 0 -1
    outer loop
      vertex 0 0 0
      vertex 2.5 -3 0
      vertex 0 -3 0
    endloop
  endfacet
  facet normal 0 0 -1
    outer loop
      vertex 2.5 -3 0
      vertex 0 0 0
      vertex 10 0 0
    endloop
  endfacet
  facet normal 0 0 1
    outer loop
      vertex 7.5 -3 5
      vertex 2.5 -3 5
      vertex 7.5 -25 5
    endloop
  endfacet
  facet normal 0 0 1
    outer loop
      vertex 22.5 -25 5
      vertex 27.5 -20 5
      vertex 22.5 -20 5
    endloop
  endfacet
  facet normal 0 0 1
    outer loop
      vertex 27.5 -20 5
      vertex 22.5 -25 5
      vertex 27.5 -30 5
    endloop
  endfacet
  facet normal -0 0 1
    outer loop
      vertex 7.5 -25 5
      vertex 27.5 -30 5
      vertex 22.5 -25 5
    endloop
  endfacet
  facet normal 0 0 1
    outer loop
      vertex 7.5 -25 5
      vertex 2.5 -30 5
      vertex 27.5 -30 5
    endloop
  endfacet
  facet normal 0 0 1
    outer loop
      vertex 2.5 -30 5
      vertex 7.5 -25 5
      vertex 2.5 -3 5
    endloop
  endfacet
  facet normal 1 -0 0
    outer loop
      vertex 27.5 -30 5
      vertex 27.5 -20 0
      vertex 27.5 -20 5
    endloop
  endfacet
  facet normal 1 0 0
    outer loop
      vertex 27.5 -20 0
      vertex 27.5 -30 5
      vertex 27.5 -30 0
    endloop
  endfacet
  facet normal 0 1 -0
    outer loop
      vertex 22.5 -25 0
      vertex 7.5 -25 5
      vertex 22.5 -25 5
    endloop
  endfacet
  facet normal 0 1 0
    outer loop
      vertex 7.5 -25 5
      vertex 22.5 -25 0
      vertex 7.5 -25 0
    endloop
  endfacet
  facet normal -1 0 0
    outer loop
      vertex 22.5 -25 0
      vertex 22.5 -20 5
      vertex 22.5 -20 0
    endloop
  endfacet
  facet normal -1 -0 0
    outer loop
      vertex 22.5 -20 5
      vertex 22.5 -25 0
      vertex 22.5 -25 5
    endloop
  endfacet
  facet normal 0 1 -0
    outer loop
      vertex 27.5 -20 0
      vertex 22.5 -20 5
      vertex 27.5 -20 5
    endloop
  endfacet
  facet normal 0 1 0
    outer loop
      vertex 22.5 -20 5
      vertex 27.5 -20 0
      vertex 22.5 -20 0
    endloop
  endfacet
  facet normal -1 0 0
    outer loop
      vertex 0 -3 0
      vertex 0 0 10
      vertex 0 0 0
    endloop
  endfacet
  facet normal -1 -0 0
    outer loop
      vertex 0 0 10
      vertex 0 -3 0
      vertex 0 -3 10
    endloop
  endfacet
  facet normal 0 -1 0
    outer loop
      vertex 0 -3 10
      vertex 2.5 -3 5
      vertex 10 -3 10
    endloop
  endfacet
  facet normal 0 -1 0
    outer loop
      vertex 0 -3 0
      vertex 2.5 -3 5
      vertex 0 -3 10
    endloop
  endfacet
  facet normal 0 -1 -0
    outer loop
      vertex 2.5 -3 5
      vertex 0 -3 0
      vertex 2.5 -3 0
    endloop
  endfacet
  facet normal 0 -1 0
    outer loop
      vertex 7.5 -3 5
      vertex 10 -3 10
      vertex 2.5 -3 5
    endloop
  endfacet
  facet normal 0 -1 0
    outer loop
      vertex 10 -3 0
      vertex 7.5 -3 5
      vertex 7.5 -3 0
    endloop
  endfacet
  facet normal 0 -1 0
    outer loop
      vertex 7.5 -3 5
      vertex 10 -3 0
      vertex 10 -3 10
    endloop
  endfacet
  facet normal 1 -0 0
    outer loop
      vertex 10 -3 10
      vertex 10 0 0
      vertex 10 0 10
    endloop
  endfacet
  facet normal 1 0 0
    outer loop
      vertex 10 0 0
      vertex 10 -3 10
      vertex 10 -3 0
    endloop
  endfacet
  facet normal -0 0 1
    outer loop
      vertex 0 0 10
      vertex 10 -3 10
      vertex 10 0 10
    endloop
  endfacet
  facet normal 0 0 1
    outer loop
      vertex 10 -3 10
      vertex 0 0 10
      vertex 0 -3 10
    endloop
  endfacet
endsolid OpenSCAD_Model
