solid OpenSCAD_Model
  facet normal -1 0 0
    outer loop
      vertex 0 0 0
      vertex 0 0 90
      vertex 0 189 0
    endloop
  endfacet
  facet normal -1 0 0
    outer loop
      vertex 0 189 0
      vertex 0 0 90
      vertex 0 189 90
    endloop
  endfacet
  facet normal 0 -1 0
    outer loop
      vertex 0 0 90
      vertex 0 0 0
      vertex 150 0 0
    endloop
  endfacet
  facet normal 0 -1 0
    outer loop
      vertex 150 0 90
      vertex 0 0 90
      vertex 150 0 0
    endloop
  endfacet
  facet normal 0 0 -1
    outer loop
      vertex 0 0 0
      vertex 0 189 0
      vertex 150 0 0
    endloop
  endfacet
  facet normal 0 0 -1
    outer loop
      vertex 150 0 0
      vertex 0 189 0
      vertex 150 189 0
    endloop
  endfacet
  facet normal 0 1 0
    outer loop
      vertex 0 189 0
      vertex 0 189 90
      vertex 150 189 0
    endloop
  endfacet
  facet normal 0 1 0
    outer loop
      vertex 150 189 0
      vertex 0 189 90
      vertex 150 189 90
    endloop
  endfacet
  facet normal 0 0 1
    outer loop
      vertex 3 3 90
      vertex 0 0 90
      vertex 150 0 90
    endloop
  endfacet
  facet normal 0 0 1
    outer loop
      vertex 93 3 90
      vertex 3 3 90
      vertex 150 0 90
    endloop
  endfacet
  facet normal 0 0 1
    outer loop
      vertex 0 189 90
      vertex 0 0 90
      vertex 3 3 90
    endloop
  endfacet
  facet normal 0 0 1
    outer loop
      vertex 150 189 90
      vertex 0 189 90
      vertex 3 186 90
    endloop
  endfacet
  facet normal 0 0 1
    outer loop
      vertex 150 189 90
      vertex 3 186 90
      vertex 93 186 90
    endloop
  endfacet
  facet normal 0 0 1
    outer loop
      vertex 96 3 90
      vertex 93 3 90
      vertex 150 0 90
    endloop
  endfacet
  facet normal 0 0 1
    outer loop
      vertex 146 3 90
      vertex 96 3 90
      vertex 150 0 90
    endloop
  endfacet
  facet normal 0 0 1
    outer loop
      vertex 93 186 90
      vertex 93 3 90
      vertex 96 3 90
    endloop
  endfacet
  facet normal 0 0 1
    outer loop
      vertex 150 189 90
      vertex 93 186 90
      vertex 96 186 90
    endloop
  endfacet
  facet normal 0 0 1
    outer loop
      vertex 150 189 90
      vertex 146 186 90
      vertex 150 0 90
    endloop
  endfacet
  facet normal 0 0 1
    outer loop
      vertex 150 189 90
      vertex 96 186 90
      vertex 146 186 90
    endloop
  endfacet
  facet normal 0 0 1
    outer loop
      vertex 146 186 90
      vertex 146 3 90
      vertex 150 0 90
    endloop
  endfacet
  facet normal 0 0 1
    outer loop
      vertex 96 3 90
      vertex 96 186 90
      vertex 93 186 90
    endloop
  endfacet
  facet normal 0 0 1
    outer loop
      vertex 3 3 90
      vertex 3 186 90
      vertex 0 189 90
    endloop
  endfacet
  facet normal 1 0 0
    outer loop
      vertex 150 0 90
      vertex 150 0 0
      vertex 150 189 0
    endloop
  endfacet
  facet normal 1 0 0
    outer loop
      vertex 150 189 90
      vertex 150 0 90
      vertex 150 189 0
    endloop
  endfacet
  facet normal 1 0 0
    outer loop
      vertex 3 186 3
      vertex 3 186 90
      vertex 3 3 90
    endloop
  endfacet
  facet normal 1 0 0
    outer loop
      vertex 3 3 3
      vertex 3 186 3
      vertex 3 3 90
    endloop
  endfacet
  facet normal 0 1 0
    outer loop
      vertex 93 3 90
      vertex 93 3 3
      vertex 3 3 90
    endloop
  endfacet
  facet normal 0 1 0
    outer loop
      vertex 3 3 90
      vertex 93 3 3
      vertex 3 3 3
    endloop
  endfacet
  facet normal -1 0 0
    outer loop
      vertex 93 186 90
      vertex 93 186 3
      vertex 93 3 90
    endloop
  endfacet
  facet normal -1 0 0
    outer loop
      vertex 93 3 90
      vertex 93 186 3
      vertex 93 3 3
    endloop
  endfacet
  facet normal 0 -1 0
    outer loop
      vertex 93 186 3
      vertex 93 186 90
      vertex 3 186 90
    endloop
  endfacet
  facet normal 0 -1 0
    outer loop
      vertex 3 186 3
      vertex 93 186 3
      vertex 3 186 90
    endloop
  endfacet
  facet normal 1 0 0
    outer loop
      vertex 96 186 3
      vertex 96 186 90
      vertex 96 3 90
    endloop
  endfacet
  facet normal 1 0 0
    outer loop
      vertex 96 3 3
      vertex 96 186 3
      vertex 96 3 90
    endloop
  endfacet
  facet normal 0 1 0
    outer loop
      vertex 146 3 90
      vertex 146 3 3
      vertex 96 3 90
    endloop
  endfacet
  facet normal 0 1 0
    outer loop
      vertex 96 3 90
      vertex 146 3 3
      vertex 96 3 3
    endloop
  endfacet
  facet normal -1 0 0
    outer loop
      vertex 146 186 90
      vertex 146 186 3
      vertex 146 3 90
    endloop
  endfacet
  facet normal -1 0 0
    outer loop
      vertex 146 3 90
      vertex 146 186 3
      vertex 146 3 3
    endloop
  endfacet
  facet normal 0 -1 0
    outer loop
      vertex 146 186 3
      vertex 146 186 90
      vertex 96 186 90
    endloop
  endfacet
  facet normal 0 -1 0
    outer loop
      vertex 96 186 3
      vertex 146 186 3
      vertex 96 186 90
    endloop
  endfacet
  facet normal 0 0 1
    outer loop
      vertex 93 3 3
      vertex 93 186 3
      vertex 3 186 3
    endloop
  endfacet
  facet normal 0 0 1
    outer loop
      vertex 3 3 3
      vertex 93 3 3
      vertex 3 186 3
    endloop
  endfacet
  facet normal 0 0 1
    outer loop
      vertex 146 3 3
      vertex 146 186 3
      vertex 96 186 3
    endloop
  endfacet
  facet normal 0 0 1
    outer loop
      vertex 96 3 3
      vertex 146 3 3
      vertex 96 186 3
    endloop
  endfacet
endsolid OpenSCAD_Model
