solid OpenSCAD_Model
  facet normal -1 0 0
    outer loop
      vertex 0 -3 0
      vertex 0 0 28
      vertex 0 0 0
    endloop
  endfacet
  facet normal -1 -0 0
    outer loop
      vertex 0 0 28
      vertex 0 -3 0
      vertex 0 -3 28
    endloop
  endfacet
  facet normal 0 -1 0
    outer loop
      vertex 7 -3 0
      vertex 21 -3 3.5
      vertex 7 -3 3.5
    endloop
  endfacet
  facet normal 0 -1 -0
    outer loop
      vertex 21 -3 3.5
      vertex 7 -3 0
      vertex 21 -3 0
    endloop
  endfacet
  facet normal 0 -1 0
    outer loop
      vertex 7 -3 3.5
      vertex 0 -3 28
      vertex 3.5 -3 3.5
    endloop
  endfacet
  facet normal 0 -1 0
    outer loop
      vertex 0 -3 0
      vertex 3.5 -3 3.5
      vertex 0 -3 28
    endloop
  endfacet
  facet normal 0 -1 -0
    outer loop
      vertex 3.5 -3 3.5
      vertex 0 -3 0
      vertex 3.5 -3 0
    endloop
  endfacet
  facet normal 0 -1 0
    outer loop
      vertex 0 -3 28
      vertex 7 -3 3.5
      vertex 28 -3 28
    endloop
  endfacet
  facet normal 0 -1 0
    outer loop
      vertex 21 -3 3.5
      vertex 28 -3 28
      vertex 7 -3 3.5
    endloop
  endfacet
  facet normal 0 -1 0
    outer loop
      vertex 24.5 -3 3.5
      vertex 28 -3 28
      vertex 21 -3 3.5
    endloop
  endfacet
  facet normal 0 -1 0
    outer loop
      vertex 28 -3 0
      vertex 24.5 -3 3.5
      vertex 24.5 -3 0
    endloop
  endfacet
  facet normal 0 -1 0
    outer loop
      vertex 24.5 -3 3.5
      vertex 28 -3 0
      vertex 28 -3 28
    endloop
  endfacet
  facet normal 1 -0 0
    outer loop
      vertex 28 -3 28
      vertex 28 0 0
      vertex 28 0 28
    endloop
  endfacet
  facet normal 1 0 0
    outer loop
      vertex 28 0 0
      vertex 28 -3 28
      vertex 28 -3 0
    endloop
  endfacet
  facet normal 0 0 1
    outer loop
      vertex 2 0 28
      vertex 0 0 28
      vertex 2 -1 28
    endloop
  endfacet
  facet normal 0 0 1
    outer loop
      vertex 26 -1 28
      vertex 28 0 28
      vertex 26 0 28
    endloop
  endfacet
  facet normal 0 0 1
    outer loop
      vertex 28 0 28
      vertex 26 -1 28
      vertex 28 -3 28
    endloop
  endfacet
  facet normal -0 0 1
    outer loop
      vertex 2 -1 28
      vertex 28 -3 28
      vertex 26 -1 28
    endloop
  endfacet
  facet normal 0 0 1
    outer loop
      vertex 2 -1 28
      vertex 0 -3 28
      vertex 28 -3 28
    endloop
  endfacet
  facet normal 0 0 1
    outer loop
      vertex 0 -3 28
      vertex 2 -1 28
      vertex 0 0 28
    endloop
  endfacet
  facet normal 0 1 -0
    outer loop
      vertex 2 0 0
      vertex 0 0 28
      vertex 2 0 28
    endloop
  endfacet
  facet normal 0 1 0
    outer loop
      vertex 0 0 28
      vertex 2 0 0
      vertex 0 0 0
    endloop
  endfacet
  facet normal 0 1 -0
    outer loop
      vertex 28 0 0
      vertex 26 0 28
      vertex 28 0 28
    endloop
  endfacet
  facet normal 0 1 0
    outer loop
      vertex 26 0 28
      vertex 28 0 0
      vertex 26 0 0
    endloop
  endfacet
  facet normal 0 0 -1
    outer loop
      vertex 25.5 -29 0
      vertex 24.5 -28 0
      vertex 25.5 -28 0
    endloop
  endfacet
  facet normal 0 0 -1
    outer loop
      vertex 24.5 -28 0
      vertex 21 -28 0
      vertex 24.5 -3 0
    endloop
  endfacet
  facet normal 0 0 -1
    outer loop
      vertex 25.5 -29 0
      vertex 21 -28 0
      vertex 24.5 -28 0
    endloop
  endfacet
  facet normal 0 0 -1
    outer loop
      vertex 25.5 -29 0
      vertex 7 -28 0
      vertex 21 -28 0
    endloop
  endfacet
  facet normal 0 0 -1
    outer loop
      vertex 7 -28 0
      vertex 3.5 -28 0
      vertex 7 -3 0
    endloop
  endfacet
  facet normal 0 0 -1
    outer loop
      vertex 1.7 -29 0
      vertex 7 -28 0
      vertex 25.5 -29 0
    endloop
  endfacet
  facet normal -0 0 -1
    outer loop
      vertex 7 -28 0
      vertex 1.7 -29 0
      vertex 3.5 -28 0
    endloop
  endfacet
  facet normal -0 0 -1
    outer loop
      vertex 3.5 -28 0
      vertex 1.7 -29 0
      vertex 1.7 -28 0
    endloop
  endfacet
  facet normal 0 0 -1
    outer loop
      vertex 28 -3 0
      vertex 26 -1 0
      vertex 28 0 0
    endloop
  endfacet
  facet normal 0 0 -1
    outer loop
      vertex 24.5 -3 0
      vertex 26 -1 0
      vertex 28 -3 0
    endloop
  endfacet
  facet normal 0 0 -1
    outer loop
      vertex 21 -3 0
      vertex 24.5 -3 0
      vertex 21 -28 0
    endloop
  endfacet
  facet normal 0 0 -1
    outer loop
      vertex 21 -3 0
      vertex 26 -1 0
      vertex 24.5 -3 0
    endloop
  endfacet
  facet normal 0 0 -1
    outer loop
      vertex 7 -3 0
      vertex 26 -1 0
      vertex 21 -3 0
    endloop
  endfacet
  facet normal 0 0 -1
    outer loop
      vertex 3.5 -3 0
      vertex 7 -3 0
      vertex 3.5 -28 0
    endloop
  endfacet
  facet normal 0 0 -1
    outer loop
      vertex 2 -1 0
      vertex 7 -3 0
      vertex 3.5 -3 0
    endloop
  endfacet
  facet normal 0 0 -1
    outer loop
      vertex 7 -3 0
      vertex 2 -1 0
      vertex 26 -1 0
    endloop
  endfacet
  facet normal 0 0 -1
    outer loop
      vertex 0 -3 0
      vertex 2 -1 0
      vertex 3.5 -3 0
    endloop
  endfacet
  facet normal 0 0 -1
    outer loop
      vertex 0 0 0
      vertex 2 -1 0
      vertex 0 -3 0
    endloop
  endfacet
  facet normal 0 0 -1
    outer loop
      vertex 2 -1 0
      vertex 0 0 0
      vertex 2 0 0
    endloop
  endfacet
  facet normal -0 0 -1
    outer loop
      vertex 28 0 0
      vertex 26 -1 0
      vertex 26 0 0
    endloop
  endfacet
  facet normal 1 -0 0
    outer loop
      vertex 2 -1 28
      vertex 2 0 0
      vertex 2 0 28
    endloop
  endfacet
  facet normal 1 0 0
    outer loop
      vertex 2 0 0
      vertex 2 -1 28
      vertex 2 -1 0
    endloop
  endfacet
  facet normal 0 1 -0
    outer loop
      vertex 26 -1 0
      vertex 2 -1 28
      vertex 26 -1 28
    endloop
  endfacet
  facet normal 0 1 0
    outer loop
      vertex 2 -1 28
      vertex 26 -1 0
      vertex 2 -1 0
    endloop
  endfacet
  facet normal -1 0 0
    outer loop
      vertex 26 -1 0
      vertex 26 0 28
      vertex 26 0 0
    endloop
  endfacet
  facet normal -1 -0 0
    outer loop
      vertex 26 0 28
      vertex 26 -1 0
      vertex 26 -1 28
    endloop
  endfacet
  facet normal -1 0 0
    outer loop
      vertex 3.5 -28 0
      vertex 3.5 -3 3.5
      vertex 3.5 -3 0
    endloop
  endfacet
  facet normal -1 -0 0
    outer loop
      vertex 3.5 -3 3.5
      vertex 3.5 -28 0
      vertex 3.5 -28 3.5
    endloop
  endfacet
  facet normal 0 1 -0
    outer loop
      vertex 21 -28 0
      vertex 7 -28 3.5
      vertex 21 -28 3.5
    endloop
  endfacet
  facet normal 0 1 0
    outer loop
      vertex 7 -28 3.5
      vertex 21 -28 0
      vertex 7 -28 0
    endloop
  endfacet
  facet normal 0 1 0
    outer loop
      vertex 21 -28 3.5
      vertex 25.5 -28 23.8
      vertex 24.5 -28 3.5
    endloop
  endfacet
  facet normal 0 1 -0
    outer loop
      vertex 25.5 -28 0
      vertex 24.5 -28 3.5
      vertex 25.5 -28 23.8
    endloop
  endfacet
  facet normal 0 1 0
    outer loop
      vertex 24.5 -28 3.5
      vertex 25.5 -28 0
      vertex 24.5 -28 0
    endloop
  endfacet
  facet normal 0 1 0
    outer loop
      vertex 7 -28 3.5
      vertex 25.5 -28 23.8
      vertex 21 -28 3.5
    endloop
  endfacet
  facet normal 0 1 0
    outer loop
      vertex 25.5 -28 23.8
      vertex 7 -28 3.5
      vertex 1.7 -28 23.8
    endloop
  endfacet
  facet normal 0 1 -0
    outer loop
      vertex 3.5 -28 3.5
      vertex 1.7 -28 23.8
      vertex 7 -28 3.5
    endloop
  endfacet
  facet normal 0 1 0
    outer loop
      vertex 1.7 -28 0
      vertex 3.5 -28 3.5
      vertex 3.5 -28 0
    endloop
  endfacet
  facet normal 0 1 0
    outer loop
      vertex 3.5 -28 3.5
      vertex 1.7 -28 0
      vertex 1.7 -28 23.8
    endloop
  endfacet
  facet normal 1 -0 0
    outer loop
      vertex 7 -28 3.5
      vertex 7 -3 0
      vertex 7 -3 3.5
    endloop
  endfacet
  facet normal 1 0 0
    outer loop
      vertex 7 -3 0
      vertex 7 -28 3.5
      vertex 7 -28 0
    endloop
  endfacet
  facet normal -0 0 1
    outer loop
      vertex 3.5 -3 3.5
      vertex 7 -28 3.5
      vertex 7 -3 3.5
    endloop
  endfacet
  facet normal 0 0 1
    outer loop
      vertex 7 -28 3.5
      vertex 3.5 -3 3.5
      vertex 3.5 -28 3.5
    endloop
  endfacet
  facet normal -1 0 0
    outer loop
      vertex 21 -28 0
      vertex 21 -3 3.5
      vertex 21 -3 0
    endloop
  endfacet
  facet normal -1 -0 0
    outer loop
      vertex 21 -3 3.5
      vertex 21 -28 0
      vertex 21 -28 3.5
    endloop
  endfacet
  facet normal 1 -0 0
    outer loop
      vertex 24.5 -28 3.5
      vertex 24.5 -3 0
      vertex 24.5 -3 3.5
    endloop
  endfacet
  facet normal 1 0 0
    outer loop
      vertex 24.5 -3 0
      vertex 24.5 -28 3.5
      vertex 24.5 -28 0
    endloop
  endfacet
  facet normal -0 0 1
    outer loop
      vertex 21 -3 3.5
      vertex 24.5 -28 3.5
      vertex 24.5 -3 3.5
    endloop
  endfacet
  facet normal 0 0 1
    outer loop
      vertex 24.5 -28 3.5
      vertex 21 -3 3.5
      vertex 21 -28 3.5
    endloop
  endfacet
  facet normal -1 0 0
    outer loop
      vertex 1.7 -29 0
      vertex 1.7 -28 23.8
      vertex 1.7 -28 0
    endloop
  endfacet
  facet normal -1 -0 0
    outer loop
      vertex 1.7 -28 23.8
      vertex 1.7 -29 0
      vertex 1.7 -29 23.8
    endloop
  endfacet
  facet normal 0 -1 0
    outer loop
      vertex 1.7 -29 0
      vertex 25.5 -29 23.8
      vertex 1.7 -29 23.8
    endloop
  endfacet
  facet normal 0 -1 -0
    outer loop
      vertex 25.5 -29 23.8
      vertex 1.7 -29 0
      vertex 25.5 -29 0
    endloop
  endfacet
  facet normal 1 -0 0
    outer loop
      vertex 25.5 -29 23.8
      vertex 25.5 -28 0
      vertex 25.5 -28 23.8
    endloop
  endfacet
  facet normal 1 0 0
    outer loop
      vertex 25.5 -28 0
      vertex 25.5 -29 23.8
      vertex 25.5 -29 0
    endloop
  endfacet
  facet normal -0 0 1
    outer loop
      vertex 1.7 -28 23.8
      vertex 25.5 -29 23.8
      vertex 25.5 -28 23.8
    endloop
  endfacet
  facet normal 0 0 1
    outer loop
      vertex 25.5 -29 23.8
      vertex 1.7 -28 23.8
      vertex 1.7 -29 23.8
    endloop
  endfacet
endsolid OpenSCAD_Model
