solid OpenSCAD_Model
  facet normal -1 0 0
    outer loop
      vertex 0 0 0
      vertex 0 0 45
      vertex 0 98 0
    endloop
  endfacet
  facet normal -1 0 0
    outer loop
      vertex 0 98 0
      vertex 0 0 45
      vertex 0 32 45
    endloop
  endfacet
  facet normal -1 0 0
    outer loop
      vertex 0 34 45
      vertex 0 32 45
      vertex 0 32 66.6667
    endloop
  endfacet
  facet normal -1 0 0
    outer loop
      vertex 0 98 0
      vertex 0 32 45
      vertex 0 34 45
    endloop
  endfacet
  facet normal -1 0 0
    outer loop
      vertex 0 64 45
      vertex 0 98 0
      vertex 0 34 45
    endloop
  endfacet
  facet normal -1 0 0
    outer loop
      vertex 0 66 45
      vertex 0 64 88.3333
      vertex 0 66 88.3333
    endloop
  endfacet
  facet normal -1 0 0
    outer loop
      vertex 0 66 45
      vertex 0 64 45
      vertex 0 64 88.3333
    endloop
  endfacet
  facet normal -1 0 0
    outer loop
      vertex 0 98 0
      vertex 0 64 45
      vertex 0 66 45
    endloop
  endfacet
  facet normal -1 0 0
    outer loop
      vertex 0 96 45
      vertex 0 98 0
      vertex 0 66 45
    endloop
  endfacet
  facet normal -1 0 0
    outer loop
      vertex 0 98 0
      vertex 0 96 45
      vertex 0 96 110
    endloop
  endfacet
  facet normal -1 0 0
    outer loop
      vertex 0 98 0
      vertex 0 96 110
      vertex 0 98 110
    endloop
  endfacet
  facet normal -1 0 0
    outer loop
      vertex 0 34 45
      vertex 0 32 66.6667
      vertex 0 34 66.6667
    endloop
  endfacet
  facet normal 0 -1 0
    outer loop
      vertex 0 0 45
      vertex 0 0 0
      vertex 185 0 0
    endloop
  endfacet
  facet normal 0 -1 0
    outer loop
      vertex 185 0 45
      vertex 0 0 45
      vertex 185 0 0
    endloop
  endfacet
  facet normal 0 0 -1
    outer loop
      vertex 0 0 0
      vertex 0 98 0
      vertex 185 0 0
    endloop
  endfacet
  facet normal 0 0 -1
    outer loop
      vertex 185 0 0
      vertex 0 98 0
      vertex 185 98 0
    endloop
  endfacet
  facet normal 0 1 0
    outer loop
      vertex 0 98 0
      vertex 0 98 110
      vertex 185 98 0
    endloop
  endfacet
  facet normal 0 1 0
    outer loop
      vertex 185 98 0
      vertex 0 98 110
      vertex 185 98 110
    endloop
  endfacet
  facet normal 0 0 1
    outer loop
      vertex 0 98 110
      vertex 0 96 110
      vertex 185 96 110
    endloop
  endfacet
  facet normal 0 0 1
    outer loop
      vertex 185 98 110
      vertex 0 98 110
      vertex 185 96 110
    endloop
  endfacet
  facet normal 0 -1 0
    outer loop
      vertex 61 96 45
      vertex 63 96 45
      vertex 0 96 110
    endloop
  endfacet
  facet normal 0 -1 0
    outer loop
      vertex 0 96 110
      vertex 0 96 45
      vertex 2 96 45
    endloop
  endfacet
  facet normal 0 -1 0
    outer loop
      vertex 61 96 2
      vertex 0 96 110
      vertex 2 96 45
    endloop
  endfacet
  facet normal 0 -1 0
    outer loop
      vertex 2 96 2
      vertex 61 96 2
      vertex 2 96 45
    endloop
  endfacet
  facet normal 0 -1 0
    outer loop
      vertex 61 96 2
      vertex 61 96 45
      vertex 0 96 110
    endloop
  endfacet
  facet normal 0 -1 0
    outer loop
      vertex 63 96 45
      vertex 122 96 2
      vertex 0 96 110
    endloop
  endfacet
  facet normal 0 -1 0
    outer loop
      vertex 122 96 45
      vertex 124 96 45
      vertex 0 96 110
    endloop
  endfacet
  facet normal 0 -1 0
    outer loop
      vertex 63 96 2
      vertex 122 96 2
      vertex 63 96 45
    endloop
  endfacet
  facet normal 0 -1 0
    outer loop
      vertex 122 96 2
      vertex 122 96 45
      vertex 0 96 110
    endloop
  endfacet
  facet normal 0 -1 0
    outer loop
      vertex 124 96 45
      vertex 183 96 45
      vertex 0 96 110
    endloop
  endfacet
  facet normal 0 -1 0
    outer loop
      vertex 124 96 2
      vertex 183 96 2
      vertex 124 96 45
    endloop
  endfacet
  facet normal 0 -1 0
    outer loop
      vertex 183 96 2
      vertex 183 96 45
      vertex 124 96 45
    endloop
  endfacet
  facet normal 0 -1 0
    outer loop
      vertex 183 96 45
      vertex 185 96 45
      vertex 0 96 110
    endloop
  endfacet
  facet normal 0 -1 0
    outer loop
      vertex 185 96 45
      vertex 185 96 110
      vertex 0 96 110
    endloop
  endfacet
  facet normal 0 0 1
    outer loop
      vertex 0 96 45
      vertex 0 66 45
      vertex 2 66 45
    endloop
  endfacet
  facet normal 0 0 1
    outer loop
      vertex 2 96 45
      vertex 0 96 45
      vertex 2 66 45
    endloop
  endfacet
  facet normal 0 1 0
    outer loop
      vertex 0 66 45
      vertex 0 66 88.3333
      vertex 2 66 45
    endloop
  endfacet
  facet normal 0 1 0
    outer loop
      vertex 2 66 45
      vertex 0 66 88.3333
      vertex 185 66 88.3333
    endloop
  endfacet
  facet normal 0 1 0
    outer loop
      vertex 183 66 45
      vertex 185 66 88.3333
      vertex 185 66 45
    endloop
  endfacet
  facet normal 0 1 0
    outer loop
      vertex 2 66 45
      vertex 185 66 88.3333
      vertex 61 66 45
    endloop
  endfacet
  facet normal 0 1 0
    outer loop
      vertex 124 66 45
      vertex 183 66 2
      vertex 124 66 2
    endloop
  endfacet
  facet normal 0 1 0
    outer loop
      vertex 183 66 45
      vertex 183 66 2
      vertex 124 66 45
    endloop
  endfacet
  facet normal 0 1 0
    outer loop
      vertex 183 66 45
      vertex 124 66 45
      vertex 185 66 88.3333
    endloop
  endfacet
  facet normal 0 1 0
    outer loop
      vertex 124 66 45
      vertex 122 66 45
      vertex 185 66 88.3333
    endloop
  endfacet
  facet normal 0 1 0
    outer loop
      vertex 61 66 2
      vertex 2 66 45
      vertex 61 66 45
    endloop
  endfacet
  facet normal 0 1 0
    outer loop
      vertex 122 66 45
      vertex 63 66 45
      vertex 185 66 88.3333
    endloop
  endfacet
  facet normal 0 1 0
    outer loop
      vertex 122 66 2
      vertex 63 66 45
      vertex 122 66 45
    endloop
  endfacet
  facet normal 0 1 0
    outer loop
      vertex 63 66 45
      vertex 61 66 45
      vertex 185 66 88.3333
    endloop
  endfacet
  facet normal 0 1 0
    outer loop
      vertex 63 66 45
      vertex 122 66 2
      vertex 63 66 2
    endloop
  endfacet
  facet normal 0 1 0
    outer loop
      vertex 2 66 45
      vertex 61 66 2
      vertex 2 66 2
    endloop
  endfacet
  facet normal 0 0 1
    outer loop
      vertex 0 66 88.3333
      vertex 0 64 88.3333
      vertex 185 64 88.3333
    endloop
  endfacet
  facet normal 0 0 1
    outer loop
      vertex 185 66 88.3333
      vertex 0 66 88.3333
      vertex 185 64 88.3333
    endloop
  endfacet
  facet normal 0 -1 0
    outer loop
      vertex 61 64 45
      vertex 63 64 45
      vertex 0 64 88.3333
    endloop
  endfacet
  facet normal 0 -1 0
    outer loop
      vertex 0 64 88.3333
      vertex 0 64 45
      vertex 2 64 45
    endloop
  endfacet
  facet normal 0 -1 0
    outer loop
      vertex 61 64 2
      vertex 0 64 88.3333
      vertex 2 64 45
    endloop
  endfacet
  facet normal 0 -1 0
    outer loop
      vertex 2 64 2
      vertex 61 64 2
      vertex 2 64 45
    endloop
  endfacet
  facet normal 0 -1 0
    outer loop
      vertex 61 64 2
      vertex 61 64 45
      vertex 0 64 88.3333
    endloop
  endfacet
  facet normal 0 -1 0
    outer loop
      vertex 63 64 45
      vertex 122 64 45
      vertex 0 64 88.3333
    endloop
  endfacet
  facet normal 0 -1 0
    outer loop
      vertex 124 64 45
      vertex 183 64 45
      vertex 0 64 88.3333
    endloop
  endfacet
  facet normal 0 -1 0
    outer loop
      vertex 63 64 2
      vertex 122 64 2
      vertex 63 64 45
    endloop
  endfacet
  facet normal 0 -1 0
    outer loop
      vertex 122 64 2
      vertex 122 64 45
      vertex 63 64 45
    endloop
  endfacet
  facet normal 0 -1 0
    outer loop
      vertex 122 64 45
      vertex 124 64 45
      vertex 0 64 88.3333
    endloop
  endfacet
  facet normal 0 -1 0
    outer loop
      vertex 124 64 2
      vertex 183 64 2
      vertex 124 64 45
    endloop
  endfacet
  facet normal 0 -1 0
    outer loop
      vertex 183 64 2
      vertex 183 64 45
      vertex 124 64 45
    endloop
  endfacet
  facet normal 0 -1 0
    outer loop
      vertex 183 64 45
      vertex 185 64 45
      vertex 0 64 88.3333
    endloop
  endfacet
  facet normal 0 -1 0
    outer loop
      vertex 185 64 45
      vertex 185 64 88.3333
      vertex 0 64 88.3333
    endloop
  endfacet
  facet normal 0 0 1
    outer loop
      vertex 0 64 45
      vertex 0 34 45
      vertex 2 34 45
    endloop
  endfacet
  facet normal 0 0 1
    outer loop
      vertex 2 64 45
      vertex 0 64 45
      vertex 2 34 45
    endloop
  endfacet
  facet normal 0 1 0
    outer loop
      vertex 0 34 45
      vertex 0 34 66.6667
      vertex 2 34 45
    endloop
  endfacet
  facet normal 0 1 0
    outer loop
      vertex 2 34 45
      vertex 0 34 66.6667
      vertex 185 34 66.6667
    endloop
  endfacet
  facet normal 0 1 0
    outer loop
      vertex 183 34 45
      vertex 185 34 66.6667
      vertex 185 34 45
    endloop
  endfacet
  facet normal 0 1 0
    outer loop
      vertex 2 34 45
      vertex 185 34 66.6667
      vertex 61 34 45
    endloop
  endfacet
  facet normal 0 1 0
    outer loop
      vertex 124 34 45
      vertex 183 34 2
      vertex 124 34 2
    endloop
  endfacet
  facet normal 0 1 0
    outer loop
      vertex 183 34 45
      vertex 183 34 2
      vertex 124 34 45
    endloop
  endfacet
  facet normal 0 1 0
    outer loop
      vertex 183 34 45
      vertex 124 34 45
      vertex 185 34 66.6667
    endloop
  endfacet
  facet normal 0 1 0
    outer loop
      vertex 124 34 45
      vertex 122 34 45
      vertex 185 34 66.6667
    endloop
  endfacet
  facet normal 0 1 0
    outer loop
      vertex 61 34 2
      vertex 2 34 45
      vertex 61 34 45
    endloop
  endfacet
  facet normal 0 1 0
    outer loop
      vertex 122 34 45
      vertex 63 34 45
      vertex 185 34 66.6667
    endloop
  endfacet
  facet normal 0 1 0
    outer loop
      vertex 122 34 2
      vertex 63 34 45
      vertex 122 34 45
    endloop
  endfacet
  facet normal 0 1 0
    outer loop
      vertex 63 34 45
      vertex 61 34 45
      vertex 185 34 66.6667
    endloop
  endfacet
  facet normal 0 1 0
    outer loop
      vertex 63 34 45
      vertex 122 34 2
      vertex 63 34 2
    endloop
  endfacet
  facet normal 0 1 0
    outer loop
      vertex 2 34 45
      vertex 61 34 2
      vertex 2 34 2
    endloop
  endfacet
  facet normal 0 0 1
    outer loop
      vertex 0 34 66.6667
      vertex 0 32 66.6667
      vertex 185 32 66.6667
    endloop
  endfacet
  facet normal 0 0 1
    outer loop
      vertex 185 34 66.6667
      vertex 0 34 66.6667
      vertex 185 32 66.6667
    endloop
  endfacet
  facet normal 0 -1 0
    outer loop
      vertex 61 32 45
      vertex 63 32 45
      vertex 0 32 66.6667
    endloop
  endfacet
  facet normal 0 -1 0
    outer loop
      vertex 0 32 66.6667
      vertex 0 32 45
      vertex 2 32 45
    endloop
  endfacet
  facet normal 0 -1 0
    outer loop
      vertex 61 32 2
      vertex 0 32 66.6667
      vertex 2 32 45
    endloop
  endfacet
  facet normal 0 -1 0
    outer loop
      vertex 2 32 2
      vertex 61 32 2
      vertex 2 32 45
    endloop
  endfacet
  facet normal 0 -1 0
    outer loop
      vertex 61 32 2
      vertex 61 32 45
      vertex 0 32 66.6667
    endloop
  endfacet
  facet normal 0 -1 0
    outer loop
      vertex 63 32 45
      vertex 122 32 45
      vertex 0 32 66.6667
    endloop
  endfacet
  facet normal 0 -1 0
    outer loop
      vertex 124 32 45
      vertex 183 32 45
      vertex 0 32 66.6667
    endloop
  endfacet
  facet normal 0 -1 0
    outer loop
      vertex 63 32 2
      vertex 122 32 2
      vertex 63 32 45
    endloop
  endfacet
  facet normal 0 -1 0
    outer loop
      vertex 122 32 2
      vertex 122 32 45
      vertex 63 32 45
    endloop
  endfacet
  facet normal 0 -1 0
    outer loop
      vertex 122 32 45
      vertex 124 32 45
      vertex 0 32 66.6667
    endloop
  endfacet
  facet normal 0 -1 0
    outer loop
      vertex 124 32 2
      vertex 183 32 2
      vertex 124 32 45
    endloop
  endfacet
  facet normal 0 -1 0
    outer loop
      vertex 183 32 2
      vertex 183 32 45
      vertex 124 32 45
    endloop
  endfacet
  facet normal 0 -1 0
    outer loop
      vertex 183 32 45
      vertex 185 32 45
      vertex 0 32 66.6667
    endloop
  endfacet
  facet normal 0 -1 0
    outer loop
      vertex 185 32 45
      vertex 185 32 66.6667
      vertex 0 32 66.6667
    endloop
  endfacet
  facet normal 0 0 1
    outer loop
      vertex 124 2 45
      vertex 0 0 45
      vertex 185 0 45
    endloop
  endfacet
  facet normal 0 0 1
    outer loop
      vertex 2 2 45
      vertex 2 32 45
      vertex 0 32 45
    endloop
  endfacet
  facet normal 0 0 1
    outer loop
      vertex 185 32 45
      vertex 183 32 45
      vertex 185 0 45
    endloop
  endfacet
  facet normal 0 0 1
    outer loop
      vertex 183 32 45
      vertex 183 2 45
      vertex 185 0 45
    endloop
  endfacet
  facet normal 0 0 1
    outer loop
      vertex 122 32 45
      vertex 122 2 45
      vertex 124 2 45
    endloop
  endfacet
  facet normal 0 0 1
    outer loop
      vertex 122 2 45
      vertex 0 0 45
      vertex 124 2 45
    endloop
  endfacet
  facet normal 0 0 1
    outer loop
      vertex 61 32 45
      vertex 61 2 45
      vertex 63 2 45
    endloop
  endfacet
  facet normal 0 0 1
    outer loop
      vertex 63 2 45
      vertex 0 0 45
      vertex 122 2 45
    endloop
  endfacet
  facet normal 0 0 1
    outer loop
      vertex 61 2 45
      vertex 0 0 45
      vertex 63 2 45
    endloop
  endfacet
  facet normal 0 0 1
    outer loop
      vertex 2 2 45
      vertex 0 0 45
      vertex 61 2 45
    endloop
  endfacet
  facet normal 0 0 1
    outer loop
      vertex 0 32 45
      vertex 0 0 45
      vertex 2 2 45
    endloop
  endfacet
  facet normal 0 0 1
    outer loop
      vertex 183 2 45
      vertex 124 2 45
      vertex 185 0 45
    endloop
  endfacet
  facet normal 0 0 1
    outer loop
      vertex 63 2 45
      vertex 63 32 45
      vertex 61 32 45
    endloop
  endfacet
  facet normal 0 0 1
    outer loop
      vertex 124 2 45
      vertex 124 32 45
      vertex 122 32 45
    endloop
  endfacet
  facet normal 1 0 0
    outer loop
      vertex 185 0 45
      vertex 185 0 0
      vertex 185 98 0
    endloop
  endfacet
  facet normal 1 0 0
    outer loop
      vertex 185 64 88.3333
      vertex 185 64 45
      vertex 185 66 88.3333
    endloop
  endfacet
  facet normal 1 0 0
    outer loop
      vertex 185 96 45
      vertex 185 66 45
      vertex 185 98 0
    endloop
  endfacet
  facet normal 1 0 0
    outer loop
      vertex 185 98 110
      vertex 185 96 45
      vertex 185 98 0
    endloop
  endfacet
  facet normal 1 0 0
    outer loop
      vertex 185 66 45
      vertex 185 64 45
      vertex 185 98 0
    endloop
  endfacet
  facet normal 1 0 0
    outer loop
      vertex 185 64 45
      vertex 185 34 45
      vertex 185 98 0
    endloop
  endfacet
  facet normal 1 0 0
    outer loop
      vertex 185 32 66.6667
      vertex 185 32 45
      vertex 185 34 66.6667
    endloop
  endfacet
  facet normal 1 0 0
    outer loop
      vertex 185 66 88.3333
      vertex 185 64 45
      vertex 185 66 45
    endloop
  endfacet
  facet normal 1 0 0
    outer loop
      vertex 185 34 45
      vertex 185 32 45
      vertex 185 98 0
    endloop
  endfacet
  facet normal 1 0 0
    outer loop
      vertex 185 32 45
      vertex 185 0 45
      vertex 185 98 0
    endloop
  endfacet
  facet normal 1 0 0
    outer loop
      vertex 185 34 66.6667
      vertex 185 32 45
      vertex 185 34 45
    endloop
  endfacet
  facet normal 1 0 0
    outer loop
      vertex 185 96 110
      vertex 185 96 45
      vertex 185 98 110
    endloop
  endfacet
  facet normal 0 0 1
    outer loop
      vertex 183 96 45
      vertex 183 66 45
      vertex 185 66 45
    endloop
  endfacet
  facet normal 0 0 1
    outer loop
      vertex 185 96 45
      vertex 183 96 45
      vertex 185 66 45
    endloop
  endfacet
  facet normal -1 0 0
    outer loop
      vertex 183 66 2
      vertex 183 66 45
      vertex 183 96 2
    endloop
  endfacet
  facet normal -1 0 0
    outer loop
      vertex 183 96 2
      vertex 183 66 45
      vertex 183 96 45
    endloop
  endfacet
  facet normal 0 0 1
    outer loop
      vertex 124 96 2
      vertex 124 66 2
      vertex 183 66 2
    endloop
  endfacet
  facet normal 0 0 1
    outer loop
      vertex 183 96 2
      vertex 124 96 2
      vertex 183 66 2
    endloop
  endfacet
  facet normal 1 0 0
    outer loop
      vertex 124 66 45
      vertex 124 66 2
      vertex 124 96 2
    endloop
  endfacet
  facet normal 1 0 0
    outer loop
      vertex 124 96 45
      vertex 124 66 45
      vertex 124 96 2
    endloop
  endfacet
  facet normal 0 0 1
    outer loop
      vertex 122 96 45
      vertex 122 66 45
      vertex 124 66 45
    endloop
  endfacet
  facet normal 0 0 1
    outer loop
      vertex 124 96 45
      vertex 122 96 45
      vertex 124 66 45
    endloop
  endfacet
  facet normal -1 0 0
    outer loop
      vertex 122 66 2
      vertex 122 66 45
      vertex 122 96 2
    endloop
  endfacet
  facet normal -1 0 0
    outer loop
      vertex 122 96 2
      vertex 122 66 45
      vertex 122 96 45
    endloop
  endfacet
  facet normal 0 0 1
    outer loop
      vertex 63 96 2
      vertex 63 66 2
      vertex 122 66 2
    endloop
  endfacet
  facet normal 0 0 1
    outer loop
      vertex 122 96 2
      vertex 63 96 2
      vertex 122 66 2
    endloop
  endfacet
  facet normal 1 0 0
    outer loop
      vertex 63 66 45
      vertex 63 66 2
      vertex 63 96 2
    endloop
  endfacet
  facet normal 1 0 0
    outer loop
      vertex 63 96 45
      vertex 63 66 45
      vertex 63 96 2
    endloop
  endfacet
  facet normal 0 0 1
    outer loop
      vertex 61 96 45
      vertex 61 66 45
      vertex 63 66 45
    endloop
  endfacet
  facet normal 0 0 1
    outer loop
      vertex 63 96 45
      vertex 61 96 45
      vertex 63 66 45
    endloop
  endfacet
  facet normal -1 0 0
    outer loop
      vertex 61 66 2
      vertex 61 66 45
      vertex 61 96 2
    endloop
  endfacet
  facet normal -1 0 0
    outer loop
      vertex 61 96 2
      vertex 61 66 45
      vertex 61 96 45
    endloop
  endfacet
  facet normal 0 0 1
    outer loop
      vertex 2 96 2
      vertex 2 66 2
      vertex 61 66 2
    endloop
  endfacet
  facet normal 0 0 1
    outer loop
      vertex 61 96 2
      vertex 2 96 2
      vertex 61 66 2
    endloop
  endfacet
  facet normal 1 0 0
    outer loop
      vertex 2 66 45
      vertex 2 66 2
      vertex 2 96 2
    endloop
  endfacet
  facet normal 1 0 0
    outer loop
      vertex 2 96 45
      vertex 2 66 45
      vertex 2 96 2
    endloop
  endfacet
  facet normal 0 0 1
    outer loop
      vertex 183 64 45
      vertex 183 34 45
      vertex 185 34 45
    endloop
  endfacet
  facet normal 0 0 1
    outer loop
      vertex 185 64 45
      vertex 183 64 45
      vertex 185 34 45
    endloop
  endfacet
  facet normal -1 0 0
    outer loop
      vertex 183 34 2
      vertex 183 34 45
      vertex 183 64 2
    endloop
  endfacet
  facet normal -1 0 0
    outer loop
      vertex 183 64 2
      vertex 183 34 45
      vertex 183 64 45
    endloop
  endfacet
  facet normal 0 0 1
    outer loop
      vertex 124 64 2
      vertex 124 34 2
      vertex 183 34 2
    endloop
  endfacet
  facet normal 0 0 1
    outer loop
      vertex 183 64 2
      vertex 124 64 2
      vertex 183 34 2
    endloop
  endfacet
  facet normal 1 0 0
    outer loop
      vertex 124 34 45
      vertex 124 34 2
      vertex 124 64 2
    endloop
  endfacet
  facet normal 1 0 0
    outer loop
      vertex 124 64 45
      vertex 124 34 45
      vertex 124 64 2
    endloop
  endfacet
  facet normal 0 0 1
    outer loop
      vertex 122 64 45
      vertex 122 34 45
      vertex 124 34 45
    endloop
  endfacet
  facet normal 0 0 1
    outer loop
      vertex 124 64 45
      vertex 122 64 45
      vertex 124 34 45
    endloop
  endfacet
  facet normal -1 0 0
    outer loop
      vertex 122 34 2
      vertex 122 34 45
      vertex 122 64 2
    endloop
  endfacet
  facet normal -1 0 0
    outer loop
      vertex 122 64 2
      vertex 122 34 45
      vertex 122 64 45
    endloop
  endfacet
  facet normal 0 0 1
    outer loop
      vertex 63 64 2
      vertex 63 34 2
      vertex 122 34 2
    endloop
  endfacet
  facet normal 0 0 1
    outer loop
      vertex 122 64 2
      vertex 63 64 2
      vertex 122 34 2
    endloop
  endfacet
  facet normal 1 0 0
    outer loop
      vertex 63 34 45
      vertex 63 34 2
      vertex 63 64 2
    endloop
  endfacet
  facet normal 1 0 0
    outer loop
      vertex 63 64 45
      vertex 63 34 45
      vertex 63 64 2
    endloop
  endfacet
  facet normal 0 0 1
    outer loop
      vertex 61 64 45
      vertex 61 34 45
      vertex 63 34 45
    endloop
  endfacet
  facet normal 0 0 1
    outer loop
      vertex 63 64 45
      vertex 61 64 45
      vertex 63 34 45
    endloop
  endfacet
  facet normal -1 0 0
    outer loop
      vertex 61 34 2
      vertex 61 34 45
      vertex 61 64 2
    endloop
  endfacet
  facet normal -1 0 0
    outer loop
      vertex 61 64 2
      vertex 61 34 45
      vertex 61 64 45
    endloop
  endfacet
  facet normal 0 0 1
    outer loop
      vertex 2 64 2
      vertex 2 34 2
      vertex 61 34 2
    endloop
  endfacet
  facet normal 0 0 1
    outer loop
      vertex 61 64 2
      vertex 2 64 2
      vertex 61 34 2
    endloop
  endfacet
  facet normal 1 0 0
    outer loop
      vertex 2 34 45
      vertex 2 34 2
      vertex 2 64 2
    endloop
  endfacet
  facet normal 1 0 0
    outer loop
      vertex 2 64 45
      vertex 2 34 45
      vertex 2 64 2
    endloop
  endfacet
  facet normal -1 0 0
    outer loop
      vertex 183 2 2
      vertex 183 2 45
      vertex 183 32 2
    endloop
  endfacet
  facet normal -1 0 0
    outer loop
      vertex 183 32 2
      vertex 183 2 45
      vertex 183 32 45
    endloop
  endfacet
  facet normal 0 0 1
    outer loop
      vertex 124 32 2
      vertex 124 2 2
      vertex 183 2 2
    endloop
  endfacet
  facet normal 0 0 1
    outer loop
      vertex 183 32 2
      vertex 124 32 2
      vertex 183 2 2
    endloop
  endfacet
  facet normal 1 0 0
    outer loop
      vertex 124 2 45
      vertex 124 2 2
      vertex 124 32 2
    endloop
  endfacet
  facet normal 1 0 0
    outer loop
      vertex 124 32 45
      vertex 124 2 45
      vertex 124 32 2
    endloop
  endfacet
  facet normal -1 0 0
    outer loop
      vertex 122 2 2
      vertex 122 2 45
      vertex 122 32 2
    endloop
  endfacet
  facet normal -1 0 0
    outer loop
      vertex 122 32 2
      vertex 122 2 45
      vertex 122 32 45
    endloop
  endfacet
  facet normal 0 0 1
    outer loop
      vertex 63 32 2
      vertex 63 2 2
      vertex 122 2 2
    endloop
  endfacet
  facet normal 0 0 1
    outer loop
      vertex 122 32 2
      vertex 63 32 2
      vertex 122 2 2
    endloop
  endfacet
  facet normal 1 0 0
    outer loop
      vertex 63 2 45
      vertex 63 2 2
      vertex 63 32 2
    endloop
  endfacet
  facet normal 1 0 0
    outer loop
      vertex 63 32 45
      vertex 63 2 45
      vertex 63 32 2
    endloop
  endfacet
  facet normal -1 0 0
    outer loop
      vertex 61 2 2
      vertex 61 2 45
      vertex 61 32 2
    endloop
  endfacet
  facet normal -1 0 0
    outer loop
      vertex 61 32 2
      vertex 61 2 45
      vertex 61 32 45
    endloop
  endfacet
  facet normal 0 0 1
    outer loop
      vertex 2 32 2
      vertex 2 2 2
      vertex 61 2 2
    endloop
  endfacet
  facet normal 0 0 1
    outer loop
      vertex 61 32 2
      vertex 2 32 2
      vertex 61 2 2
    endloop
  endfacet
  facet normal 1 0 0
    outer loop
      vertex 2 2 45
      vertex 2 2 2
      vertex 2 32 2
    endloop
  endfacet
  facet normal 1 0 0
    outer loop
      vertex 2 32 45
      vertex 2 2 45
      vertex 2 32 2
    endloop
  endfacet
  facet normal 0 1 0
    outer loop
      vertex 2 2 2
      vertex 2 2 45
      vertex 61 2 2
    endloop
  endfacet
  facet normal 0 1 0
    outer loop
      vertex 61 2 2
      vertex 2 2 45
      vertex 61 2 45
    endloop
  endfacet
  facet normal 0 1 0
    outer loop
      vertex 63 2 2
      vertex 63 2 45
      vertex 122 2 2
    endloop
  endfacet
  facet normal 0 1 0
    outer loop
      vertex 122 2 2
      vertex 63 2 45
      vertex 122 2 45
    endloop
  endfacet
  facet normal 0 1 0
    outer loop
      vertex 124 2 2
      vertex 124 2 45
      vertex 183 2 2
    endloop
  endfacet
  facet normal 0 1 0
    outer loop
      vertex 183 2 2
      vertex 124 2 45
      vertex 183 2 45
    endloop
  endfacet
  facet normal 0 -6.12323e-17 -1
    outer loop
      vertex 18.25 -1.5 27.1905
      vertex 18.25 -0.5 27.1905
      vertex 21.2425 -1.5 27.1905
    endloop
  endfacet
  facet normal 0 -6.12323e-17 -1
    outer loop
      vertex 21.2425 -1.5 27.1905
      vertex 18.25 -0.5 27.1905
      vertex 21.2425 -0.5 27.1905
    endloop
  endfacet
  facet normal -1 0 0
    outer loop
      vertex 18.25 -1.5 27.1905
      vertex 18.25 -1.5 28.6215
      vertex 18.25 -0.5 27.1905
    endloop
  endfacet
  facet normal -1 0 0
    outer loop
      vertex 18.25 -0.5 27.1905
      vertex 18.25 -1.5 28.6215
      vertex 18.25 -0.5 28.6215
    endloop
  endfacet
  facet normal 0 -1 6.12323e-17
    outer loop
      vertex 18.25 -1.5 28.6215
      vertex 18.25 -1.5 27.1905
      vertex 21.2425 -1.5 27.1905
    endloop
  endfacet
  facet normal 0 -1 6.12323e-17
    outer loop
      vertex 22.444 -1.5 27.1905
      vertex 18.25 -1.5 28.6215
      vertex 21.2425 -1.5 27.1905
    endloop
  endfacet
  facet normal 0 -1 6.12323e-17
    outer loop
      vertex 21.2425 -1.5 16.5
      vertex 22.444 -1.5 16.5
      vertex 21.2425 -1.5 27.1905
    endloop
  endfacet
  facet normal 0 -1 6.12323e-17
    outer loop
      vertex 22.444 -1.5 16.5
      vertex 22.444 -1.5 27.1905
      vertex 21.2425 -1.5 27.1905
    endloop
  endfacet
  facet normal 0 -1 6.12323e-17
    outer loop
      vertex 22.444 -1.5 27.1905
      vertex 25.447 -1.5 27.1905
      vertex 18.25 -1.5 28.6215
    endloop
  endfacet
  facet normal 0 -1 6.12323e-17
    outer loop
      vertex 25.447 -1.5 27.1905
      vertex 25.447 -1.5 28.6215
      vertex 18.25 -1.5 28.6215
    endloop
  endfacet
  facet normal -1 0 0
    outer loop
      vertex 21.2425 -1.5 16.5
      vertex 21.2425 -1.5 27.1905
      vertex 21.2425 -0.5 16.5
    endloop
  endfacet
  facet normal -1 0 0
    outer loop
      vertex 21.2425 -0.5 16.5
      vertex 21.2425 -1.5 27.1905
      vertex 21.2425 -0.5 27.1905
    endloop
  endfacet
  facet normal 0 1 -6.12323e-17
    outer loop
      vertex 18.25 -0.5 27.1905
      vertex 18.25 -0.5 28.6215
      vertex 21.2425 -0.5 27.1905
    endloop
  endfacet
  facet normal 0 1 -6.12323e-17
    outer loop
      vertex 21.2425 -0.5 27.1905
      vertex 18.25 -0.5 28.6215
      vertex 25.447 -0.5 28.6215
    endloop
  endfacet
  facet normal 0 1 -6.12323e-17
    outer loop
      vertex 22.444 -0.5 27.1905
      vertex 25.447 -0.5 28.6215
      vertex 25.447 -0.5 27.1905
    endloop
  endfacet
  facet normal 0 1 -6.12323e-17
    outer loop
      vertex 21.2425 -0.5 27.1905
      vertex 25.447 -0.5 28.6215
      vertex 22.444 -0.5 27.1905
    endloop
  endfacet
  facet normal 0 1 -6.12323e-17
    outer loop
      vertex 22.444 -0.5 27.1905
      vertex 22.444 -0.5 16.5
      vertex 21.2425 -0.5 27.1905
    endloop
  endfacet
  facet normal 0 1 -6.12323e-17
    outer loop
      vertex 21.2425 -0.5 27.1905
      vertex 22.444 -0.5 16.5
      vertex 21.2425 -0.5 16.5
    endloop
  endfacet
  facet normal 0 6.12323e-17 1
    outer loop
      vertex 18.25 -0.5 28.6215
      vertex 18.25 -1.5 28.6215
      vertex 25.447 -1.5 28.6215
    endloop
  endfacet
  facet normal 0 6.12323e-17 1
    outer loop
      vertex 25.447 -0.5 28.6215
      vertex 18.25 -0.5 28.6215
      vertex 25.447 -1.5 28.6215
    endloop
  endfacet
  facet normal 1 0 0
    outer loop
      vertex 25.447 -1.5 28.6215
      vertex 25.447 -1.5 27.1905
      vertex 25.447 -0.5 27.1905
    endloop
  endfacet
  facet normal 1 0 0
    outer loop
      vertex 25.447 -0.5 28.6215
      vertex 25.447 -1.5 28.6215
      vertex 25.447 -0.5 27.1905
    endloop
  endfacet
  facet normal 0 -6.12323e-17 -1
    outer loop
      vertex 22.444 -1.5 27.1905
      vertex 22.444 -0.5 27.1905
      vertex 25.447 -1.5 27.1905
    endloop
  endfacet
  facet normal 0 -6.12323e-17 -1
    outer loop
      vertex 25.447 -1.5 27.1905
      vertex 22.444 -0.5 27.1905
      vertex 25.447 -0.5 27.1905
    endloop
  endfacet
  facet normal 1 0 0
    outer loop
      vertex 22.444 -1.5 27.1905
      vertex 22.444 -1.5 16.5
      vertex 22.444 -0.5 16.5
    endloop
  endfacet
  facet normal 1 0 0
    outer loop
      vertex 22.444 -0.5 27.1905
      vertex 22.444 -1.5 27.1905
      vertex 22.444 -0.5 16.5
    endloop
  endfacet
  facet normal 0 -6.12323e-17 -1
    outer loop
      vertex 21.2425 -1.5 16.5
      vertex 21.2425 -0.5 16.5
      vertex 22.444 -1.5 16.5
    endloop
  endfacet
  facet normal 0 -6.12323e-17 -1
    outer loop
      vertex 22.444 -1.5 16.5
      vertex 21.2425 -0.5 16.5
      vertex 22.444 -0.5 16.5
    endloop
  endfacet
  facet normal -0.966322 -1.57572e-17 -0.257335
    outer loop
      vertex 34.75 -1.5 28.6215
      vertex 34.75 -0.5 28.6215
      vertex 37.978 -1.5 16.5
    endloop
  endfacet
  facet normal -0.966322 -1.57572e-17 -0.257335
    outer loop
      vertex 37.978 -1.5 16.5
      vertex 34.75 -0.5 28.6215
      vertex 37.978 -0.5 16.5
    endloop
  endfacet
  facet normal 0 6.12323e-17 1
    outer loop
      vertex 34.75 -0.5 28.6215
      vertex 34.75 -1.5 28.6215
      vertex 35.944 -1.5 28.6215
    endloop
  endfacet
  facet normal 0 6.12323e-17 1
    outer loop
      vertex 35.944 -0.5 28.6215
      vertex 34.75 -0.5 28.6215
      vertex 35.944 -1.5 28.6215
    endloop
  endfacet
  facet normal 0 -1 6.12323e-17
    outer loop
      vertex 35.944 -1.5 28.6215
      vertex 34.75 -1.5 28.6215
      vertex 37.978 -1.5 16.5
    endloop
  endfacet
  facet normal 0 -1 6.12323e-17
    outer loop
      vertex 38.5465 -1.5 17.832
      vertex 35.944 -1.5 28.6215
      vertex 37.978 -1.5 16.5
    endloop
  endfacet
  facet normal 0 -1 6.12323e-17
    outer loop
      vertex 42.37 -1.5 28.6215
      vertex 41.245 -1.5 28.6215
      vertex 39.109 -1.5 16.5
    endloop
  endfacet
  facet normal 0 -1 6.12323e-17
    outer loop
      vertex 41.245 -1.5 28.6215
      vertex 38.995 -1.5 19.8165
      vertex 39.109 -1.5 16.5
    endloop
  endfacet
  facet normal 0 -1 6.12323e-17
    outer loop
      vertex 39.109 -1.5 16.5
      vertex 38.5465 -1.5 17.832
      vertex 37.978 -1.5 16.5
    endloop
  endfacet
  facet normal 0 -1 6.12323e-17
    outer loop
      vertex 38.1085 -1.5 19.8165
      vertex 35.944 -1.5 28.6215
      vertex 38.5465 -1.5 17.832
    endloop
  endfacet
  facet normal 0 -1 6.12323e-17
    outer loop
      vertex 38.995 -1.5 19.8165
      vertex 38.5465 -1.5 17.832
      vertex 39.109 -1.5 16.5
    endloop
  endfacet
  facet normal 0 -6.12323e-17 -1
    outer loop
      vertex 37.978 -1.5 16.5
      vertex 37.978 -0.5 16.5
      vertex 39.109 -1.5 16.5
    endloop
  endfacet
  facet normal 0 -6.12323e-17 -1
    outer loop
      vertex 39.109 -1.5 16.5
      vertex 37.978 -0.5 16.5
      vertex 39.109 -0.5 16.5
    endloop
  endfacet
  facet normal 0 1 -6.12323e-17
    outer loop
      vertex 34.75 -0.5 28.6215
      vertex 35.944 -0.5 28.6215
      vertex 37.978 -0.5 16.5
    endloop
  endfacet
  facet normal 0 1 -6.12323e-17
    outer loop
      vertex 37.978 -0.5 16.5
      vertex 35.944 -0.5 28.6215
      vertex 38.1085 -0.5 19.8165
    endloop
  endfacet
  facet normal 0 1 -6.12323e-17
    outer loop
      vertex 37.978 -0.5 16.5
      vertex 38.1085 -0.5 19.8165
      vertex 38.5465 -0.5 17.832
    endloop
  endfacet
  facet normal 0 1 -6.12323e-17
    outer loop
      vertex 38.995 -0.5 19.8165
      vertex 41.245 -0.5 28.6215
      vertex 38.5465 -0.5 17.832
    endloop
  endfacet
  facet normal 0 1 -6.12323e-17
    outer loop
      vertex 38.5465 -0.5 17.832
      vertex 41.245 -0.5 28.6215
      vertex 42.37 -0.5 28.6215
    endloop
  endfacet
  facet normal 0 1 -6.12323e-17
    outer loop
      vertex 38.5465 -0.5 17.832
      vertex 42.37 -0.5 28.6215
      vertex 39.109 -0.5 16.5
    endloop
  endfacet
  facet normal 0 1 -6.12323e-17
    outer loop
      vertex 38.5465 -0.5 17.832
      vertex 39.109 -0.5 16.5
      vertex 37.978 -0.5 16.5
    endloop
  endfacet
  facet normal 0.971089 1.46173e-17 0.238719
    outer loop
      vertex 35.944 -0.5 28.6215
      vertex 35.944 -1.5 28.6215
      vertex 38.1085 -1.5 19.8165
    endloop
  endfacet
  facet normal 0.971089 1.46173e-17 0.238719
    outer loop
      vertex 38.1085 -0.5 19.8165
      vertex 35.944 -0.5 28.6215
      vertex 38.1085 -1.5 19.8165
    endloop
  endfacet
  facet normal 0.976499 1.3197e-17 0.215524
    outer loop
      vertex 38.1085 -0.5 19.8165
      vertex 38.1085 -1.5 19.8165
      vertex 38.5465 -1.5 17.832
    endloop
  endfacet
  facet normal 0.976499 1.3197e-17 0.215524
    outer loop
      vertex 38.5465 -0.5 17.832
      vertex 38.1085 -0.5 19.8165
      vertex 38.5465 -1.5 17.832
    endloop
  endfacet
  facet normal -0.9754 1.34982e-17 0.220442
    outer loop
      vertex 38.5465 -1.5 17.832
      vertex 38.995 -1.5 19.8165
      vertex 38.5465 -0.5 17.832
    endloop
  endfacet
  facet normal -0.9754 1.34982e-17 0.220442
    outer loop
      vertex 38.5465 -0.5 17.832
      vertex 38.995 -1.5 19.8165
      vertex 38.995 -0.5 19.8165
    endloop
  endfacet
  facet normal -0.968867 1.516e-17 0.247581
    outer loop
      vertex 38.995 -1.5 19.8165
      vertex 41.245 -1.5 28.6215
      vertex 38.995 -0.5 19.8165
    endloop
  endfacet
  facet normal -0.968867 1.516e-17 0.247581
    outer loop
      vertex 38.995 -0.5 19.8165
      vertex 41.245 -1.5 28.6215
      vertex 41.245 -0.5 28.6215
    endloop
  endfacet
  facet normal 0 6.12323e-17 1
    outer loop
      vertex 41.245 -0.5 28.6215
      vertex 41.245 -1.5 28.6215
      vertex 42.37 -1.5 28.6215
    endloop
  endfacet
  facet normal 0 6.12323e-17 1
    outer loop
      vertex 42.37 -0.5 28.6215
      vertex 41.245 -0.5 28.6215
      vertex 42.37 -1.5 28.6215
    endloop
  endfacet
  facet normal 0.965665 -1.59075e-17 -0.259789
    outer loop
      vertex 42.37 -1.5 28.6215
      vertex 39.109 -1.5 16.5
      vertex 39.109 -0.5 16.5
    endloop
  endfacet
  facet normal 0.965665 -1.59075e-17 -0.259789
    outer loop
      vertex 42.37 -0.5 28.6215
      vertex 42.37 -1.5 28.6215
      vertex 39.109 -0.5 16.5
    endloop
  endfacet
  facet normal 0 -6.12323e-17 -1
    outer loop
      vertex 67.75 -1.5 27.1905
      vertex 67.75 -0.5 27.1905
      vertex 70.7425 -1.5 27.1905
    endloop
  endfacet
  facet normal 0 -6.12323e-17 -1
    outer loop
      vertex 70.7425 -1.5 27.1905
      vertex 67.75 -0.5 27.1905
      vertex 70.7425 -0.5 27.1905
    endloop
  endfacet
  facet normal -1 0 0
    outer loop
      vertex 67.75 -1.5 27.1905
      vertex 67.75 -1.5 28.6215
      vertex 67.75 -0.5 27.1905
    endloop
  endfacet
  facet normal -1 0 0
    outer loop
      vertex 67.75 -0.5 27.1905
      vertex 67.75 -1.5 28.6215
      vertex 67.75 -0.5 28.6215
    endloop
  endfacet
  facet normal 0 -1 6.12323e-17
    outer loop
      vertex 67.75 -1.5 28.6215
      vertex 67.75 -1.5 27.1905
      vertex 70.7425 -1.5 27.1905
    endloop
  endfacet
  facet normal 0 -1 6.12323e-17
    outer loop
      vertex 71.944 -1.5 27.1905
      vertex 67.75 -1.5 28.6215
      vertex 70.7425 -1.5 27.1905
    endloop
  endfacet
  facet normal 0 -1 6.12323e-17
    outer loop
      vertex 70.7425 -1.5 16.5
      vertex 71.944 -1.5 16.5
      vertex 70.7425 -1.5 27.1905
    endloop
  endfacet
  facet normal 0 -1 6.12323e-17
    outer loop
      vertex 71.944 -1.5 16.5
      vertex 71.944 -1.5 27.1905
      vertex 70.7425 -1.5 27.1905
    endloop
  endfacet
  facet normal 0 -1 6.12323e-17
    outer loop
      vertex 71.944 -1.5 27.1905
      vertex 74.947 -1.5 27.1905
      vertex 67.75 -1.5 28.6215
    endloop
  endfacet
  facet normal 0 -1 6.12323e-17
    outer loop
      vertex 74.947 -1.5 27.1905
      vertex 74.947 -1.5 28.6215
      vertex 67.75 -1.5 28.6215
    endloop
  endfacet
  facet normal -1 0 0
    outer loop
      vertex 70.7425 -1.5 16.5
      vertex 70.7425 -1.5 27.1905
      vertex 70.7425 -0.5 16.5
    endloop
  endfacet
  facet normal -1 0 0
    outer loop
      vertex 70.7425 -0.5 16.5
      vertex 70.7425 -1.5 27.1905
      vertex 70.7425 -0.5 27.1905
    endloop
  endfacet
  facet normal 0 1 -6.12323e-17
    outer loop
      vertex 67.75 -0.5 27.1905
      vertex 67.75 -0.5 28.6215
      vertex 70.7425 -0.5 27.1905
    endloop
  endfacet
  facet normal 0 1 -6.12323e-17
    outer loop
      vertex 70.7425 -0.5 27.1905
      vertex 67.75 -0.5 28.6215
      vertex 74.947 -0.5 28.6215
    endloop
  endfacet
  facet normal 0 1 -6.12323e-17
    outer loop
      vertex 71.944 -0.5 27.1905
      vertex 74.947 -0.5 28.6215
      vertex 74.947 -0.5 27.1905
    endloop
  endfacet
  facet normal 0 1 -6.12323e-17
    outer loop
      vertex 70.7425 -0.5 27.1905
      vertex 74.947 -0.5 28.6215
      vertex 71.944 -0.5 27.1905
    endloop
  endfacet
  facet normal 0 1 -6.12323e-17
    outer loop
      vertex 71.944 -0.5 27.1905
      vertex 71.944 -0.5 16.5
      vertex 70.7425 -0.5 27.1905
    endloop
  endfacet
  facet normal 0 1 -6.12323e-17
    outer loop
      vertex 70.7425 -0.5 27.1905
      vertex 71.944 -0.5 16.5
      vertex 70.7425 -0.5 16.5
    endloop
  endfacet
  facet normal 0 6.12323e-17 1
    outer loop
      vertex 67.75 -0.5 28.6215
      vertex 67.75 -1.5 28.6215
      vertex 74.947 -1.5 28.6215
    endloop
  endfacet
  facet normal 0 6.12323e-17 1
    outer loop
      vertex 74.947 -0.5 28.6215
      vertex 67.75 -0.5 28.6215
      vertex 74.947 -1.5 28.6215
    endloop
  endfacet
  facet normal 1 0 0
    outer loop
      vertex 74.947 -1.5 28.6215
      vertex 74.947 -1.5 27.1905
      vertex 74.947 -0.5 27.1905
    endloop
  endfacet
  facet normal 1 0 0
    outer loop
      vertex 74.947 -0.5 28.6215
      vertex 74.947 -1.5 28.6215
      vertex 74.947 -0.5 27.1905
    endloop
  endfacet
  facet normal 0 -6.12323e-17 -1
    outer loop
      vertex 71.944 -1.5 27.1905
      vertex 71.944 -0.5 27.1905
      vertex 74.947 -1.5 27.1905
    endloop
  endfacet
  facet normal 0 -6.12323e-17 -1
    outer loop
      vertex 74.947 -1.5 27.1905
      vertex 71.944 -0.5 27.1905
      vertex 74.947 -0.5 27.1905
    endloop
  endfacet
  facet normal 1 0 0
    outer loop
      vertex 71.944 -1.5 27.1905
      vertex 71.944 -1.5 16.5
      vertex 71.944 -0.5 16.5
    endloop
  endfacet
  facet normal 1 0 0
    outer loop
      vertex 71.944 -0.5 27.1905
      vertex 71.944 -1.5 27.1905
      vertex 71.944 -0.5 16.5
    endloop
  endfacet
  facet normal 0 -6.12323e-17 -1
    outer loop
      vertex 70.7425 -1.5 16.5
      vertex 70.7425 -0.5 16.5
      vertex 71.944 -1.5 16.5
    endloop
  endfacet
  facet normal 0 -6.12323e-17 -1
    outer loop
      vertex 71.944 -1.5 16.5
      vertex 70.7425 -0.5 16.5
      vertex 71.944 -0.5 16.5
    endloop
  endfacet
  facet normal 0 -6.12323e-17 -1
    outer loop
      vertex 87.214 -1.5 16.5
      vertex 87.214 -0.5 16.5
      vertex 88.8175 -1.5 16.5
    endloop
  endfacet
  facet normal 0 -6.12323e-17 -1
    outer loop
      vertex 88.8175 -1.5 16.5
      vertex 87.214 -0.5 16.5
      vertex 88.8175 -0.5 16.5
    endloop
  endfacet
  facet normal -1 0 0
    outer loop
      vertex 87.214 -1.5 16.5
      vertex 87.214 -1.5 28.6215
      vertex 87.214 -0.5 16.5
    endloop
  endfacet
  facet normal -1 0 0
    outer loop
      vertex 87.214 -0.5 16.5
      vertex 87.214 -1.5 28.6215
      vertex 87.214 -0.5 28.6215
    endloop
  endfacet
  facet normal 0 -1 6.12323e-17
    outer loop
      vertex 87.214 -1.5 28.6215
      vertex 87.214 -1.5 16.5
      vertex 88.8175 -1.5 16.5
    endloop
  endfacet
  facet normal 0 -1 6.12323e-17
    outer loop
      vertex 88.8175 -1.5 28.6215
      vertex 87.214 -1.5 28.6215
      vertex 88.8175 -1.5 16.5
    endloop
  endfacet
  facet normal 1 0 0
    outer loop
      vertex 88.8175 -1.5 28.6215
      vertex 88.8175 -1.5 16.5
      vertex 88.8175 -0.5 16.5
    endloop
  endfacet
  facet normal 1 0 0
    outer loop
      vertex 88.8175 -0.5 28.6215
      vertex 88.8175 -1.5 28.6215
      vertex 88.8175 -0.5 16.5
    endloop
  endfacet
  facet normal 0 1 -6.12323e-17
    outer loop
      vertex 87.214 -0.5 16.5
      vertex 87.214 -0.5 28.6215
      vertex 88.8175 -0.5 16.5
    endloop
  endfacet
  facet normal 0 1 -6.12323e-17
    outer loop
      vertex 88.8175 -0.5 16.5
      vertex 87.214 -0.5 28.6215
      vertex 88.8175 -0.5 28.6215
    endloop
  endfacet
  facet normal 0 6.12323e-17 1
    outer loop
      vertex 87.214 -0.5 28.6215
      vertex 87.214 -1.5 28.6215
      vertex 88.8175 -1.5 28.6215
    endloop
  endfacet
  facet normal 0 6.12323e-17 1
    outer loop
      vertex 88.8175 -0.5 28.6215
      vertex 87.214 -0.5 28.6215
      vertex 88.8175 -1.5 28.6215
    endloop
  endfacet
  facet normal 0 -6.12323e-17 -1
    outer loop
      vertex 100.75 -1.5 16.5
      vertex 100.75 -0.5 16.5
      vertex 101.768 -1.5 16.5
    endloop
  endfacet
  facet normal 0 -6.12323e-17 -1
    outer loop
      vertex 101.768 -1.5 16.5
      vertex 100.75 -0.5 16.5
      vertex 101.768 -0.5 16.5
    endloop
  endfacet
  facet normal -1 0 0
    outer loop
      vertex 100.75 -1.5 16.5
      vertex 100.75 -1.5 28.6215
      vertex 100.75 -0.5 16.5
    endloop
  endfacet
  facet normal -1 0 0
    outer loop
      vertex 100.75 -0.5 16.5
      vertex 100.75 -1.5 28.6215
      vertex 100.75 -0.5 28.6215
    endloop
  endfacet
  facet normal 0 -1 6.12323e-17
    outer loop
      vertex 100.75 -1.5 28.6215
      vertex 100.75 -1.5 16.5
      vertex 101.768 -1.5 16.5
    endloop
  endfacet
  facet normal 0 -1 6.12323e-17
    outer loop
      vertex 104.231 -1.5 20.0385
      vertex 102.341 -1.5 28.6215
      vertex 101.768 -1.5 26.8185
    endloop
  endfacet
  facet normal 0 -1 6.12323e-17
    outer loop
      vertex 101.768 -1.5 26.8185
      vertex 100.75 -1.5 28.6215
      vertex 101.768 -1.5 16.5
    endloop
  endfacet
  facet normal 0 -1 6.12323e-17
    outer loop
      vertex 105.031 -1.5 16.5
      vertex 101.768 -1.5 26.8185
      vertex 104.078 -1.5 16.5
    endloop
  endfacet
  facet normal 0 -1 6.12323e-17
    outer loop
      vertex 104.612 -1.5 18.2445
      vertex 101.768 -1.5 26.8185
      vertex 105.031 -1.5 16.5
    endloop
  endfacet
  facet normal 0 -1 6.12323e-17
    outer loop
      vertex 108.37 -1.5 16.5
      vertex 107.351 -1.5 26.646
      vertex 107.351 -1.5 16.5
    endloop
  endfacet
  facet normal 0 -1 6.12323e-17
    outer loop
      vertex 108.37 -1.5 28.6215
      vertex 107.351 -1.5 26.646
      vertex 108.37 -1.5 16.5
    endloop
  endfacet
  facet normal 0 -1 6.12323e-17
    outer loop
      vertex 108.37 -1.5 28.6215
      vertex 106.949 -1.5 28.6215
      vertex 107.351 -1.5 26.646
    endloop
  endfacet
  facet normal 0 -1 6.12323e-17
    outer loop
      vertex 107.351 -1.5 26.646
      vertex 105.037 -1.5 20.1885
      vertex 105.031 -1.5 16.5
    endloop
  endfacet
  facet normal 0 -1 6.12323e-17
    outer loop
      vertex 105.037 -1.5 20.1885
      vertex 104.612 -1.5 18.2445
      vertex 105.031 -1.5 16.5
    endloop
  endfacet
  facet normal 0 -1 6.12323e-17
    outer loop
      vertex 104.231 -1.5 20.0385
      vertex 101.768 -1.5 26.8185
      vertex 104.612 -1.5 18.2445
    endloop
  endfacet
  facet normal 0 -1 6.12323e-17
    outer loop
      vertex 101.768 -1.5 26.8185
      vertex 102.341 -1.5 28.6215
      vertex 100.75 -1.5 28.6215
    endloop
  endfacet
  facet normal 0 -1 6.12323e-17
    outer loop
      vertex 106.949 -1.5 28.6215
      vertex 105.037 -1.5 20.1885
      vertex 107.351 -1.5 26.646
    endloop
  endfacet
  facet normal 1 0 0
    outer loop
      vertex 101.768 -1.5 26.8185
      vertex 101.768 -1.5 16.5
      vertex 101.768 -0.5 16.5
    endloop
  endfacet
  facet normal 1 0 0
    outer loop
      vertex 101.768 -0.5 26.8185
      vertex 101.768 -1.5 26.8185
      vertex 101.768 -0.5 16.5
    endloop
  endfacet
  facet normal 0 1 -6.12323e-17
    outer loop
      vertex 100.75 -0.5 16.5
      vertex 100.75 -0.5 28.6215
      vertex 101.768 -0.5 16.5
    endloop
  endfacet
  facet normal 0 1 -6.12323e-17
    outer loop
      vertex 101.768 -0.5 26.8185
      vertex 100.75 -0.5 28.6215
      vertex 102.341 -0.5 28.6215
    endloop
  endfacet
  facet normal 0 1 -6.12323e-17
    outer loop
      vertex 105.037 -0.5 20.1885
      vertex 106.949 -0.5 28.6215
      vertex 104.612 -0.5 18.2445
    endloop
  endfacet
  facet normal 0 1 -6.12323e-17
    outer loop
      vertex 107.351 -0.5 26.646
      vertex 106.949 -0.5 28.6215
      vertex 108.37 -0.5 28.6215
    endloop
  endfacet
  facet normal 0 1 -6.12323e-17
    outer loop
      vertex 101.768 -0.5 26.8185
      vertex 104.612 -0.5 18.2445
      vertex 104.078 -0.5 16.5
    endloop
  endfacet
  facet normal 0 1 -6.12323e-17
    outer loop
      vertex 104.612 -0.5 18.2445
      vertex 106.949 -0.5 28.6215
      vertex 107.351 -0.5 26.646
    endloop
  endfacet
  facet normal 0 1 -6.12323e-17
    outer loop
      vertex 105.031 -0.5 16.5
      vertex 104.612 -0.5 18.2445
      vertex 107.351 -0.5 26.646
    endloop
  endfacet
  facet normal 0 1 -6.12323e-17
    outer loop
      vertex 101.768 -0.5 26.8185
      vertex 102.341 -0.5 28.6215
      vertex 104.231 -0.5 20.0385
    endloop
  endfacet
  facet normal 0 1 -6.12323e-17
    outer loop
      vertex 104.612 -0.5 18.2445
      vertex 105.031 -0.5 16.5
      vertex 104.078 -0.5 16.5
    endloop
  endfacet
  facet normal 0 1 -6.12323e-17
    outer loop
      vertex 101.768 -0.5 16.5
      vertex 100.75 -0.5 28.6215
      vertex 101.768 -0.5 26.8185
    endloop
  endfacet
  facet normal 0 1 -6.12323e-17
    outer loop
      vertex 107.351 -0.5 26.646
      vertex 108.37 -0.5 28.6215
      vertex 108.37 -0.5 16.5
    endloop
  endfacet
  facet normal 0 1 -6.12323e-17
    outer loop
      vertex 107.351 -0.5 26.646
      vertex 108.37 -0.5 16.5
      vertex 107.351 -0.5 16.5
    endloop
  endfacet
  facet normal 0 1 -6.12323e-17
    outer loop
      vertex 101.768 -0.5 26.8185
      vertex 104.231 -0.5 20.0385
      vertex 104.612 -0.5 18.2445
    endloop
  endfacet
  facet normal 0 6.12323e-17 1
    outer loop
      vertex 100.75 -0.5 28.6215
      vertex 100.75 -1.5 28.6215
      vertex 102.341 -1.5 28.6215
    endloop
  endfacet
  facet normal 0 6.12323e-17 1
    outer loop
      vertex 102.341 -0.5 28.6215
      vertex 100.75 -0.5 28.6215
      vertex 102.341 -1.5 28.6215
    endloop
  endfacet
  facet normal 0.976603 1.31681e-17 0.215051
    outer loop
      vertex 102.341 -0.5 28.6215
      vertex 102.341 -1.5 28.6215
      vertex 104.231 -1.5 20.0385
    endloop
  endfacet
  facet normal 0.976603 1.31681e-17 0.215051
    outer loop
      vertex 104.231 -0.5 20.0385
      vertex 102.341 -0.5 28.6215
      vertex 104.231 -1.5 20.0385
    endloop
  endfacet
  facet normal 0.978184 1.27205e-17 0.207741
    outer loop
      vertex 104.231 -0.5 20.0385
      vertex 104.231 -1.5 20.0385
      vertex 104.612 -1.5 18.2445
    endloop
  endfacet
  facet normal 0.978184 1.27205e-17 0.207741
    outer loop
      vertex 104.612 -0.5 18.2445
      vertex 104.231 -0.5 20.0385
      vertex 104.612 -1.5 18.2445
    endloop
  endfacet
  facet normal -0.976979 1.30631e-17 0.213337
    outer loop
      vertex 104.612 -1.5 18.2445
      vertex 105.037 -1.5 20.1885
      vertex 104.612 -0.5 18.2445
    endloop
  endfacet
  facet normal -0.976979 1.30631e-17 0.213337
    outer loop
      vertex 104.612 -0.5 18.2445
      vertex 105.037 -1.5 20.1885
      vertex 105.037 -0.5 20.1885
    endloop
  endfacet
  facet normal -0.975235 1.35428e-17 0.221171
    outer loop
      vertex 105.037 -1.5 20.1885
      vertex 106.949 -1.5 28.6215
      vertex 105.037 -0.5 20.1885
    endloop
  endfacet
  facet normal -0.975235 1.35428e-17 0.221171
    outer loop
      vertex 105.037 -0.5 20.1885
      vertex 106.949 -1.5 28.6215
      vertex 106.949 -0.5 28.6215
    endloop
  endfacet
  facet normal 0 6.12323e-17 1
    outer loop
      vertex 106.949 -0.5 28.6215
      vertex 106.949 -1.5 28.6215
      vertex 108.37 -1.5 28.6215
    endloop
  endfacet
  facet normal 0 6.12323e-17 1
    outer loop
      vertex 108.37 -0.5 28.6215
      vertex 106.949 -0.5 28.6215
      vertex 108.37 -1.5 28.6215
    endloop
  endfacet
  facet normal 1 0 0
    outer loop
      vertex 108.37 -1.5 28.6215
      vertex 108.37 -1.5 16.5
      vertex 108.37 -0.5 16.5
    endloop
  endfacet
  facet normal 1 0 0
    outer loop
      vertex 108.37 -0.5 28.6215
      vertex 108.37 -1.5 28.6215
      vertex 108.37 -0.5 16.5
    endloop
  endfacet
  facet normal 0 -6.12323e-17 -1
    outer loop
      vertex 107.351 -1.5 16.5
      vertex 107.351 -0.5 16.5
      vertex 108.37 -1.5 16.5
    endloop
  endfacet
  facet normal 0 -6.12323e-17 -1
    outer loop
      vertex 108.37 -1.5 16.5
      vertex 107.351 -0.5 16.5
      vertex 108.37 -0.5 16.5
    endloop
  endfacet
  facet normal -1 0 0
    outer loop
      vertex 107.351 -1.5 16.5
      vertex 107.351 -1.5 26.646
      vertex 107.351 -0.5 16.5
    endloop
  endfacet
  facet normal -1 0 0
    outer loop
      vertex 107.351 -0.5 16.5
      vertex 107.351 -1.5 26.646
      vertex 107.351 -0.5 26.646
    endloop
  endfacet
  facet normal 0.974829 -1.3652e-17 -0.222954
    outer loop
      vertex 107.351 -1.5 26.646
      vertex 105.031 -1.5 16.5
      vertex 105.031 -0.5 16.5
    endloop
  endfacet
  facet normal 0.974829 -1.3652e-17 -0.222954
    outer loop
      vertex 107.351 -0.5 26.646
      vertex 107.351 -1.5 26.646
      vertex 105.031 -0.5 16.5
    endloop
  endfacet
  facet normal 0 -6.12323e-17 -1
    outer loop
      vertex 104.078 -1.5 16.5
      vertex 104.078 -0.5 16.5
      vertex 105.031 -1.5 16.5
    endloop
  endfacet
  facet normal 0 -6.12323e-17 -1
    outer loop
      vertex 105.031 -1.5 16.5
      vertex 104.078 -0.5 16.5
      vertex 105.031 -0.5 16.5
    endloop
  endfacet
  facet normal -0.975845 -1.3377e-17 -0.218462
    outer loop
      vertex 101.768 -1.5 26.8185
      vertex 101.768 -0.5 26.8185
      vertex 104.078 -1.5 16.5
    endloop
  endfacet
  facet normal -0.975845 -1.3377e-17 -0.218462
    outer loop
      vertex 104.078 -1.5 16.5
      vertex 101.768 -0.5 26.8185
      vertex 104.078 -0.5 16.5
    endloop
  endfacet
  facet normal 0.031817 -6.12013e-17 -0.999494
    outer loop
      vertex 117.25 -1.5 16.5
      vertex 117.25 -0.5 16.5
      vertex 118.616 -1.5 16.5435
    endloop
  endfacet
  facet normal 0.031817 -6.12013e-17 -0.999494
    outer loop
      vertex 118.616 -1.5 16.5435
      vertex 117.25 -0.5 16.5
      vertex 118.616 -0.5 16.5435
    endloop
  endfacet
  facet normal -1 0 0
    outer loop
      vertex 117.25 -1.5 16.5
      vertex 117.25 -1.5 28.6215
      vertex 117.25 -0.5 16.5
    endloop
  endfacet
  facet normal -1 0 0
    outer loop
      vertex 117.25 -0.5 16.5
      vertex 117.25 -1.5 28.6215
      vertex 117.25 -0.5 28.6215
    endloop
  endfacet
  facet normal 0 -1 6.12323e-17
    outer loop
      vertex 117.25 -1.5 28.6215
      vertex 117.25 -1.5 16.5
      vertex 118.616 -1.5 16.5435
    endloop
  endfacet
  facet normal 0 -1 6.12323e-17
    outer loop
      vertex 118.601 -1.5 17.931
      vertex 117.25 -1.5 28.6215
      vertex 118.616 -1.5 16.5435
    endloop
  endfacet
  facet normal 0 -1 6.12323e-17
    outer loop
      vertex 118.601 -1.5 22.056
      vertex 124.25 -1.5 22.056
      vertex 118.601 -1.5 23.4795
    endloop
  endfacet
  facet normal 0 -1 6.12323e-17
    outer loop
      vertex 124.87 -1.5 16.5
      vertex 118.601 -1.5 17.931
      vertex 118.616 -1.5 16.5435
    endloop
  endfacet
  facet normal 0 -1 6.12323e-17
    outer loop
      vertex 118.601 -1.5 22.056
      vertex 117.25 -1.5 28.6215
      vertex 118.601 -1.5 17.931
    endloop
  endfacet
  facet normal 0 -1 6.12323e-17
    outer loop
      vertex 118.601 -1.5 23.4795
      vertex 117.25 -1.5 28.6215
      vertex 118.601 -1.5 22.056
    endloop
  endfacet
  facet normal 0 -1 6.12323e-17
    outer loop
      vertex 118.601 -1.5 27.1905
      vertex 124.633 -1.5 27.1905
      vertex 117.25 -1.5 28.6215
    endloop
  endfacet
  facet normal 0 -1 6.12323e-17
    outer loop
      vertex 118.601 -1.5 23.4795
      vertex 118.601 -1.5 27.1905
      vertex 117.25 -1.5 28.6215
    endloop
  endfacet
  facet normal 0 -1 6.12323e-17
    outer loop
      vertex 124.633 -1.5 27.1905
      vertex 124.633 -1.5 28.6215
      vertex 117.25 -1.5 28.6215
    endloop
  endfacet
  facet normal 0 -1 6.12323e-17
    outer loop
      vertex 124.25 -1.5 23.4795
      vertex 118.601 -1.5 23.4795
      vertex 124.25 -1.5 22.056
    endloop
  endfacet
  facet normal 0 -1 6.12323e-17
    outer loop
      vertex 124.87 -1.5 17.931
      vertex 118.601 -1.5 17.931
      vertex 124.87 -1.5 16.5
    endloop
  endfacet
  facet normal -0.00695594 -6.12309e-17 -0.999976
    outer loop
      vertex 118.616 -1.5 16.5435
      vertex 118.616 -0.5 16.5435
      vertex 124.87 -1.5 16.5
    endloop
  endfacet
  facet normal -0.00695594 -6.12309e-17 -0.999976
    outer loop
      vertex 124.87 -1.5 16.5
      vertex 118.616 -0.5 16.5435
      vertex 124.87 -0.5 16.5
    endloop
  endfacet
  facet normal 0 1 -6.12323e-17
    outer loop
      vertex 117.25 -0.5 16.5
      vertex 117.25 -0.5 28.6215
      vertex 118.616 -0.5 16.5435
    endloop
  endfacet
  facet normal 0 1 -6.12323e-17
    outer loop
      vertex 118.601 -0.5 27.1905
      vertex 117.25 -0.5 28.6215
      vertex 124.633 -0.5 28.6215
    endloop
  endfacet
  facet normal 0 1 -6.12323e-17
    outer loop
      vertex 118.601 -0.5 23.4795
      vertex 117.25 -0.5 28.6215
      vertex 118.601 -0.5 27.1905
    endloop
  endfacet
  facet normal 0 1 -6.12323e-17
    outer loop
      vertex 118.601 -0.5 22.056
      vertex 117.25 -0.5 28.6215
      vertex 118.601 -0.5 23.4795
    endloop
  endfacet
  facet normal 0 1 -6.12323e-17
    outer loop
      vertex 118.601 -0.5 22.056
      vertex 118.601 -0.5 23.4795
      vertex 124.25 -0.5 23.4795
    endloop
  endfacet
  facet normal 0 1 -6.12323e-17
    outer loop
      vertex 118.601 -0.5 17.931
      vertex 117.25 -0.5 28.6215
      vertex 118.601 -0.5 22.056
    endloop
  endfacet
  facet normal 0 1 -6.12323e-17
    outer loop
      vertex 124.87 -0.5 17.931
      vertex 118.616 -0.5 16.5435
      vertex 118.601 -0.5 17.931
    endloop
  endfacet
  facet normal 0 1 -6.12323e-17
    outer loop
      vertex 118.616 -0.5 16.5435
      vertex 117.25 -0.5 28.6215
      vertex 118.601 -0.5 17.931
    endloop
  endfacet
  facet normal 0 1 -6.12323e-17
    outer loop
      vertex 118.616 -0.5 16.5435
      vertex 124.87 -0.5 17.931
      vertex 124.87 -0.5 16.5
    endloop
  endfacet
  facet normal 0 1 -6.12323e-17
    outer loop
      vertex 118.601 -0.5 27.1905
      vertex 124.633 -0.5 28.6215
      vertex 124.633 -0.5 27.1905
    endloop
  endfacet
  facet normal 0 1 -6.12323e-17
    outer loop
      vertex 118.601 -0.5 22.056
      vertex 124.25 -0.5 23.4795
      vertex 124.25 -0.5 22.056
    endloop
  endfacet
  facet normal 0 6.12323e-17 1
    outer loop
      vertex 117.25 -0.5 28.6215
      vertex 117.25 -1.5 28.6215
      vertex 124.633 -1.5 28.6215
    endloop
  endfacet
  facet normal 0 6.12323e-17 1
    outer loop
      vertex 124.633 -0.5 28.6215
      vertex 117.25 -0.5 28.6215
      vertex 124.633 -1.5 28.6215
    endloop
  endfacet
  facet normal 1 0 0
    outer loop
      vertex 124.633 -1.5 28.6215
      vertex 124.633 -1.5 27.1905
      vertex 124.633 -0.5 27.1905
    endloop
  endfacet
  facet normal 1 0 0
    outer loop
      vertex 124.633 -0.5 28.6215
      vertex 124.633 -1.5 28.6215
      vertex 124.633 -0.5 27.1905
    endloop
  endfacet
  facet normal 0 -6.12323e-17 -1
    outer loop
      vertex 118.601 -1.5 27.1905
      vertex 118.601 -0.5 27.1905
      vertex 124.633 -1.5 27.1905
    endloop
  endfacet
  facet normal 0 -6.12323e-17 -1
    outer loop
      vertex 124.633 -1.5 27.1905
      vertex 118.601 -0.5 27.1905
      vertex 124.633 -0.5 27.1905
    endloop
  endfacet
  facet normal 1 0 0
    outer loop
      vertex 118.601 -1.5 27.1905
      vertex 118.601 -1.5 23.4795
      vertex 118.601 -0.5 23.4795
    endloop
  endfacet
  facet normal 1 0 0
    outer loop
      vertex 118.601 -0.5 27.1905
      vertex 118.601 -1.5 27.1905
      vertex 118.601 -0.5 23.4795
    endloop
  endfacet
  facet normal 0 6.12323e-17 1
    outer loop
      vertex 118.601 -0.5 23.4795
      vertex 118.601 -1.5 23.4795
      vertex 124.25 -1.5 23.4795
    endloop
  endfacet
  facet normal 0 6.12323e-17 1
    outer loop
      vertex 124.25 -0.5 23.4795
      vertex 118.601 -0.5 23.4795
      vertex 124.25 -1.5 23.4795
    endloop
  endfacet
  facet normal 1 0 0
    outer loop
      vertex 124.25 -1.5 23.4795
      vertex 124.25 -1.5 22.056
      vertex 124.25 -0.5 22.056
    endloop
  endfacet
  facet normal 1 0 0
    outer loop
      vertex 124.25 -0.5 23.4795
      vertex 124.25 -1.5 23.4795
      vertex 124.25 -0.5 22.056
    endloop
  endfacet
  facet normal 0 -6.12323e-17 -1
    outer loop
      vertex 118.601 -1.5 22.056
      vertex 118.601 -0.5 22.056
      vertex 124.25 -1.5 22.056
    endloop
  endfacet
  facet normal 0 -6.12323e-17 -1
    outer loop
      vertex 124.25 -1.5 22.056
      vertex 118.601 -0.5 22.056
      vertex 124.25 -0.5 22.056
    endloop
  endfacet
  facet normal 1 0 0
    outer loop
      vertex 118.601 -1.5 22.056
      vertex 118.601 -1.5 17.931
      vertex 118.601 -0.5 17.931
    endloop
  endfacet
  facet normal 1 0 0
    outer loop
      vertex 118.601 -0.5 22.056
      vertex 118.601 -1.5 22.056
      vertex 118.601 -0.5 17.931
    endloop
  endfacet
  facet normal 0 6.12323e-17 1
    outer loop
      vertex 118.601 -0.5 17.931
      vertex 118.601 -1.5 17.931
      vertex 124.87 -1.5 17.931
    endloop
  endfacet
  facet normal 0 6.12323e-17 1
    outer loop
      vertex 124.87 -0.5 17.931
      vertex 118.601 -0.5 17.931
      vertex 124.87 -1.5 17.931
    endloop
  endfacet
  facet normal 1 0 0
    outer loop
      vertex 124.87 -1.5 17.931
      vertex 124.87 -1.5 16.5
      vertex 124.87 -0.5 16.5
    endloop
  endfacet
  facet normal 1 0 0
    outer loop
      vertex 124.87 -0.5 17.931
      vertex 124.87 -1.5 17.931
      vertex 124.87 -0.5 16.5
    endloop
  endfacet
  facet normal -0.996734 -4.9446e-18 -0.0807515
    outer loop
      vertex 153.214 -1.5 24.738
      vertex 153.214 -0.5 24.738
      vertex 153.668 -1.5 19.128
    endloop
  endfacet
  facet normal -0.996734 -4.9446e-18 -0.0807515
    outer loop
      vertex 153.668 -1.5 19.128
      vertex 153.214 -0.5 24.738
      vertex 153.668 -0.5 19.128
    endloop
  endfacet
  facet normal -1 0 0
    outer loop
      vertex 153.214 -1.5 24.738
      vertex 153.214 -1.5 27.084
      vertex 153.214 -0.5 24.738
    endloop
  endfacet
  facet normal -1 0 0
    outer loop
      vertex 153.214 -0.5 24.738
      vertex 153.214 -1.5 27.084
      vertex 153.214 -0.5 27.084
    endloop
  endfacet
  facet normal 0 -1 6.12323e-17
    outer loop
      vertex 153.214 -1.5 27.084
      vertex 153.214 -1.5 24.738
      vertex 153.668 -1.5 19.128
    endloop
  endfacet
  facet normal 0 -1 6.12323e-17
    outer loop
      vertex 155.057 -1.5 24.738
      vertex 153.214 -1.5 27.084
      vertex 154.627 -1.5 19.128
    endloop
  endfacet
  facet normal 0 -1 6.12323e-17
    outer loop
      vertex 154.627 -1.5 19.128
      vertex 153.214 -1.5 27.084
      vertex 153.668 -1.5 19.128
    endloop
  endfacet
  facet normal 0 -1 6.12323e-17
    outer loop
      vertex 155.057 -1.5 27.084
      vertex 153.214 -1.5 27.084
      vertex 155.057 -1.5 24.738
    endloop
  endfacet
  facet normal 0 -6.12323e-17 -1
    outer loop
      vertex 153.668 -1.5 19.128
      vertex 153.668 -0.5 19.128
      vertex 154.627 -1.5 19.128
    endloop
  endfacet
  facet normal 0 -6.12323e-17 -1
    outer loop
      vertex 154.627 -1.5 19.128
      vertex 153.668 -0.5 19.128
      vertex 154.627 -0.5 19.128
    endloop
  endfacet
  facet normal 0 1 -6.12323e-17
    outer loop
      vertex 153.214 -0.5 24.738
      vertex 153.214 -0.5 27.084
      vertex 153.668 -0.5 19.128
    endloop
  endfacet
  facet normal 0 1 -6.12323e-17
    outer loop
      vertex 153.668 -0.5 19.128
      vertex 153.214 -0.5 27.084
      vertex 155.057 -0.5 27.084
    endloop
  endfacet
  facet normal 0 1 -6.12323e-17
    outer loop
      vertex 153.668 -0.5 19.128
      vertex 155.057 -0.5 27.084
      vertex 155.057 -0.5 24.738
    endloop
  endfacet
  facet normal 0 1 -6.12323e-17
    outer loop
      vertex 153.668 -0.5 19.128
      vertex 155.057 -0.5 24.738
      vertex 154.627 -0.5 19.128
    endloop
  endfacet
  facet normal 0 6.12323e-17 1
    outer loop
      vertex 153.214 -0.5 27.084
      vertex 153.214 -1.5 27.084
      vertex 155.057 -1.5 27.084
    endloop
  endfacet
  facet normal 0 6.12323e-17 1
    outer loop
      vertex 155.057 -0.5 27.084
      vertex 153.214 -0.5 27.084
      vertex 155.057 -1.5 27.084
    endloop
  endfacet
  facet normal 1 0 0
    outer loop
      vertex 155.057 -1.5 27.084
      vertex 155.057 -1.5 24.738
      vertex 155.057 -0.5 24.738
    endloop
  endfacet
  facet normal 1 0 0
    outer loop
      vertex 155.057 -0.5 27.084
      vertex 155.057 -1.5 27.084
      vertex 155.057 -0.5 24.738
    endloop
  endfacet
  facet normal 0.997069 -4.68507e-18 -0.076513
    outer loop
      vertex 155.057 -1.5 24.738
      vertex 154.627 -1.5 19.128
      vertex 154.627 -0.5 19.128
    endloop
  endfacet
  facet normal 0.997069 -4.68507e-18 -0.076513
    outer loop
      vertex 155.057 -0.5 24.738
      vertex 155.057 -1.5 24.738
      vertex 154.627 -0.5 19.128
    endloop
  endfacet
  facet normal 0 -6.12323e-17 -1
    outer loop
      vertex 153.28 -1.5 16.5
      vertex 153.28 -0.5 16.5
      vertex 154.991 -1.5 16.5
    endloop
  endfacet
  facet normal 0 -6.12323e-17 -1
    outer loop
      vertex 154.991 -1.5 16.5
      vertex 153.28 -0.5 16.5
      vertex 154.991 -0.5 16.5
    endloop
  endfacet
  facet normal -1 0 0
    outer loop
      vertex 153.28 -1.5 16.5
      vertex 153.28 -1.5 17.9805
      vertex 153.28 -0.5 16.5
    endloop
  endfacet
  facet normal -1 0 0
    outer loop
      vertex 153.28 -0.5 16.5
      vertex 153.28 -1.5 17.9805
      vertex 153.28 -0.5 17.9805
    endloop
  endfacet
  facet normal 0 -1 6.12323e-17
    outer loop
      vertex 153.28 -1.5 17.9805
      vertex 153.28 -1.5 16.5
      vertex 154.991 -1.5 16.5
    endloop
  endfacet
  facet normal 0 -1 6.12323e-17
    outer loop
      vertex 154.991 -1.5 17.9805
      vertex 153.28 -1.5 17.9805
      vertex 154.991 -1.5 16.5
    endloop
  endfacet
  facet normal 1 0 0
    outer loop
      vertex 154.991 -1.5 17.9805
      vertex 154.991 -1.5 16.5
      vertex 154.991 -0.5 16.5
    endloop
  endfacet
  facet normal 1 0 0
    outer loop
      vertex 154.991 -0.5 17.9805
      vertex 154.991 -1.5 17.9805
      vertex 154.991 -0.5 16.5
    endloop
  endfacet
  facet normal 0 1 -6.12323e-17
    outer loop
      vertex 153.28 -0.5 16.5
      vertex 153.28 -0.5 17.9805
      vertex 154.991 -0.5 16.5
    endloop
  endfacet
  facet normal 0 1 -6.12323e-17
    outer loop
      vertex 154.991 -0.5 16.5
      vertex 153.28 -0.5 17.9805
      vertex 154.991 -0.5 17.9805
    endloop
  endfacet
  facet normal 0 6.12323e-17 1
    outer loop
      vertex 153.28 -0.5 17.9805
      vertex 153.28 -1.5 17.9805
      vertex 154.991 -1.5 17.9805
    endloop
  endfacet
  facet normal 0 6.12323e-17 1
    outer loop
      vertex 154.991 -0.5 17.9805
      vertex 153.28 -0.5 17.9805
      vertex 154.991 -1.5 17.9805
    endloop
  endfacet
endsolid OpenSCAD_Model
