solid OpenSCAD_Model
  facet normal -1 0 0
    outer loop
      vertex 0 0 0
      vertex 0 0 75
      vertex 0 26 0
    endloop
  endfacet
  facet normal -1 0 0
    outer loop
      vertex 0 26 0
      vertex 0 0 75
      vertex 0 26 75
    endloop
  endfacet
  facet normal 0 -1 0
    outer loop
      vertex 0 0 75
      vertex 0 0 0
      vertex 66 0 0
    endloop
  endfacet
  facet normal 0 -1 0
    outer loop
      vertex 66 0 75
      vertex 0 0 75
      vertex 66 0 0
    endloop
  endfacet
  facet normal 0 0 -1
    outer loop
      vertex 0 0 0
      vertex 0 26 0
      vertex 66 0 0
    endloop
  endfacet
  facet normal 0 0 -1
    outer loop
      vertex 66 0 0
      vertex 0 26 0
      vertex 66 26 0
    endloop
  endfacet
  facet normal 0 1 0
    outer loop
      vertex 0 26 0
      vertex 0 26 75
      vertex 66 26 0
    endloop
  endfacet
  facet normal 0 1 0
    outer loop
      vertex 66 26 0
      vertex 0 26 75
      vertex 66 26 75
    endloop
  endfacet
  facet normal 0 0 1
    outer loop
      vertex 3 3 75
      vertex 0 0 75
      vertex 66 0 75
    endloop
  endfacet
  facet normal 0 0 1
    outer loop
      vertex 0 26 75
      vertex 0 0 75
      vertex 3 3 75
    endloop
  endfacet
  facet normal 0 0 1
    outer loop
      vertex 3 23 75
      vertex 63 23 75
      vertex 0 26 75
    endloop
  endfacet
  facet normal 0 0 1
    outer loop
      vertex 0 26 75
      vertex 3 3 75
      vertex 3 23 75
    endloop
  endfacet
  facet normal 0 0 1
    outer loop
      vertex 66 26 75
      vertex 63 23 75
      vertex 66 0 75
    endloop
  endfacet
  facet normal 0 0 1
    outer loop
      vertex 66 26 75
      vertex 0 26 75
      vertex 63 23 75
    endloop
  endfacet
  facet normal 0 0 1
    outer loop
      vertex 63 23 75
      vertex 63 3 75
      vertex 66 0 75
    endloop
  endfacet
  facet normal 0 0 1
    outer loop
      vertex 63 3 75
      vertex 3 3 75
      vertex 66 0 75
    endloop
  endfacet
  facet normal 1 0 0
    outer loop
      vertex 66 0 75
      vertex 66 0 0
      vertex 66 26 0
    endloop
  endfacet
  facet normal 1 0 0
    outer loop
      vertex 66 26 75
      vertex 66 0 75
      vertex 66 26 0
    endloop
  endfacet
  facet normal 1 0 0
    outer loop
      vertex 3 23 3
      vertex 3 23 75
      vertex 3 3 75
    endloop
  endfacet
  facet normal 1 0 0
    outer loop
      vertex 3 3 3
      vertex 3 23 3
      vertex 3 3 75
    endloop
  endfacet
  facet normal 0 1 0
    outer loop
      vertex 63 3 75
      vertex 63 3 3
      vertex 3 3 75
    endloop
  endfacet
  facet normal 0 1 0
    outer loop
      vertex 3 3 75
      vertex 63 3 3
      vertex 3 3 3
    endloop
  endfacet
  facet normal -1 0 0
    outer loop
      vertex 63 23 75
      vertex 63 23 3
      vertex 63 3 75
    endloop
  endfacet
  facet normal -1 0 0
    outer loop
      vertex 63 3 75
      vertex 63 23 3
      vertex 63 3 3
    endloop
  endfacet
  facet normal 0 -1 0
    outer loop
      vertex 63 23 3
      vertex 63 23 75
      vertex 3 23 75
    endloop
  endfacet
  facet normal 0 -1 0
    outer loop
      vertex 3 23 3
      vertex 63 23 3
      vertex 3 23 75
    endloop
  endfacet
  facet normal 0 0 1
    outer loop
      vertex 63 3 3
      vertex 63 23 3
      vertex 3 23 3
    endloop
  endfacet
  facet normal 0 0 1
    outer loop
      vertex 3 3 3
      vertex 63 3 3
      vertex 3 23 3
    endloop
  endfacet
endsolid OpenSCAD_Model
