solid OpenSCAD_Model
  facet normal -1 0 0
    outer loop
      vertex 0 0 0
      vertex 0 0 40
      vertex 0 26 0
    endloop
  endfacet
  facet normal -1 0 0
    outer loop
      vertex 0 26 0
      vertex 0 0 40
      vertex 0 26 40
    endloop
  endfacet
  facet normal 0 -1 0
    outer loop
      vertex 0 0 40
      vertex 0 0 0
      vertex 40 0 0
    endloop
  endfacet
  facet normal 0 -1 0
    outer loop
      vertex 40 0 40
      vertex 0 0 40
      vertex 40 0 0
    endloop
  endfacet
  facet normal 0 0 -1
    outer loop
      vertex 0 0 0
      vertex 0 26 0
      vertex 40 0 0
    endloop
  endfacet
  facet normal 0 0 -1
    outer loop
      vertex 40 0 0
      vertex 0 26 0
      vertex 40 26 0
    endloop
  endfacet
  facet normal 0 1 0
    outer loop
      vertex 0 26 0
      vertex 0 26 40
      vertex 40 26 0
    endloop
  endfacet
  facet normal 0 1 0
    outer loop
      vertex 40 26 0
      vertex 0 26 40
      vertex 40 26 40
    endloop
  endfacet
  facet normal 0 0 1
    outer loop
      vertex 2 2 40
      vertex 0 0 40
      vertex 40 0 40
    endloop
  endfacet
  facet normal 0 0 1
    outer loop
      vertex 0 26 40
      vertex 0 0 40
      vertex 2 2 40
    endloop
  endfacet
  facet normal 0 0 1
    outer loop
      vertex 2 24 40
      vertex 38 24 40
      vertex 0 26 40
    endloop
  endfacet
  facet normal 0 0 1
    outer loop
      vertex 0 26 40
      vertex 2 2 40
      vertex 2 24 40
    endloop
  endfacet
  facet normal 0 0 1
    outer loop
      vertex 40 26 40
      vertex 38 24 40
      vertex 40 0 40
    endloop
  endfacet
  facet normal 0 0 1
    outer loop
      vertex 40 26 40
      vertex 0 26 40
      vertex 38 24 40
    endloop
  endfacet
  facet normal 0 0 1
    outer loop
      vertex 38 24 40
      vertex 38 2 40
      vertex 40 0 40
    endloop
  endfacet
  facet normal 0 0 1
    outer loop
      vertex 38 2 40
      vertex 2 2 40
      vertex 40 0 40
    endloop
  endfacet
  facet normal 1 0 0
    outer loop
      vertex 40 0 40
      vertex 40 0 0
      vertex 40 26 0
    endloop
  endfacet
  facet normal 1 0 0
    outer loop
      vertex 40 26 40
      vertex 40 0 40
      vertex 40 26 0
    endloop
  endfacet
  facet normal 1 0 0
    outer loop
      vertex 2 24 2
      vertex 2 24 40
      vertex 2 2 40
    endloop
  endfacet
  facet normal 1 0 0
    outer loop
      vertex 2 2 2
      vertex 2 24 2
      vertex 2 2 40
    endloop
  endfacet
  facet normal 0 1 0
    outer loop
      vertex 38 2 40
      vertex 38 2 2
      vertex 2 2 40
    endloop
  endfacet
  facet normal 0 1 0
    outer loop
      vertex 2 2 40
      vertex 38 2 2
      vertex 2 2 2
    endloop
  endfacet
  facet normal -1 0 0
    outer loop
      vertex 38 24 40
      vertex 38 24 2
      vertex 38 2 40
    endloop
  endfacet
  facet normal -1 0 0
    outer loop
      vertex 38 2 40
      vertex 38 24 2
      vertex 38 2 2
    endloop
  endfacet
  facet normal 0 -1 0
    outer loop
      vertex 38 24 2
      vertex 38 24 40
      vertex 2 24 40
    endloop
  endfacet
  facet normal 0 -1 0
    outer loop
      vertex 2 24 2
      vertex 38 24 2
      vertex 2 24 40
    endloop
  endfacet
  facet normal 0 0 1
    outer loop
      vertex 38 2 2
      vertex 38 24 2
      vertex 2 24 2
    endloop
  endfacet
  facet normal 0 0 1
    outer loop
      vertex 2 2 2
      vertex 38 2 2
      vertex 2 24 2
    endloop
  endfacet
endsolid OpenSCAD_Model
