solid OpenSCAD_Model
  facet normal -1 0 0
    outer loop
      vertex 0 -21.5 4.77396e-015
      vertex 0 3.10862e-015 14
      vertex 0 0 0
    endloop
  endfacet
  facet normal -1 -0 0
    outer loop
      vertex 0 3.10862e-015 14
      vertex 0 -21.5 4.77396e-015
      vertex 0 -21.5 14
    endloop
  endfacet
  facet normal 0 -1 0
    outer loop
      vertex 0 -21.5 4.77396e-015
      vertex 23.587 -21.5 14
      vertex 0 -21.5 14
    endloop
  endfacet
  facet normal 0 -1 -0
    outer loop
      vertex 23.587 -21.5 14
      vertex 0 -21.5 4.77396e-015
      vertex 23.587 -21.5 4.77396e-015
    endloop
  endfacet
  facet normal 0 0 1
    outer loop
      vertex 55 -10.5 14
      vertex 41.4848 -12.5 14
      vertex 55 -12.5 14
    endloop
  endfacet
  facet normal -0 0 1
    outer loop
      vertex 40.4848 -10.5 14
      vertex 41.4848 -12.5 14
      vertex 55 -10.5 14
    endloop
  endfacet
  facet normal 0 0 1
    outer loop
      vertex 28.9103 -30.5477 14
      vertex 41.4848 -12.5 14
      vertex 40.4848 -10.5 14
    endloop
  endfacet
  facet normal 0 0 1
    outer loop
      vertex 41.4848 -12.5 14
      vertex 28.9103 -30.5477 14
      vertex 30.5263 -31.4808 14
    endloop
  endfacet
  facet normal 0 0 1
    outer loop
      vertex 55 3.10862e-015 14
      vertex 2 -2 14
      vertex 55 -2 14
    endloop
  endfacet
  facet normal 0 0 1
    outer loop
      vertex 2 -2 14
      vertex 0 3.10862e-015 14
      vertex 2 -19.5 14
    endloop
  endfacet
  facet normal -0 0 1
    outer loop
      vertex 0 3.10862e-015 14
      vertex 2 -2 14
      vertex 55 3.10862e-015 14
    endloop
  endfacet
  facet normal -0 0 1
    outer loop
      vertex 2 -19.5 14
      vertex 23.587 -21.5 14
      vertex 24.8964 -19.5 14
    endloop
  endfacet
  facet normal 0 0 1
    outer loop
      vertex 2 -19.5 14
      vertex 0 -21.5 14
      vertex 23.587 -21.5 14
    endloop
  endfacet
  facet normal 0 0 1
    outer loop
      vertex 0 -21.5 14
      vertex 2 -19.5 14
      vertex 0 3.10862e-015 14
    endloop
  endfacet
  facet normal -0 0 1
    outer loop
      vertex 23.587 -21.5 14
      vertex 21.116 -26.0477 14
      vertex 24.8964 -19.5 14
    endloop
  endfacet
  facet normal 0 -0 1
    outer loop
      vertex 21.116 -26.0477 14
      vertex 23.587 -21.5 14
      vertex 21 -25.9808 14
    endloop
  endfacet
  facet normal 0 1 -2.22045e-016
    outer loop
      vertex 55 0 0
      vertex 0 3.10862e-015 14
      vertex 55 3.10862e-015 14
    endloop
  endfacet
  facet normal 0 1 -2.22045e-016
    outer loop
      vertex 0 3.10862e-015 14
      vertex 55 0 0
      vertex 0 0 0
    endloop
  endfacet
  facet normal 0 -2.22045e-016 -1
    outer loop
      vertex 30.5263 -31.4808 6.99013e-015
      vertex 21 -25.9808 5.76889e-015
      vertex 23.587 -21.5 4.77396e-015
    endloop
  endfacet
  facet normal 0 -2.22045e-016 -1
    outer loop
      vertex 41.4848 -12.5 2.77556e-015
      vertex 55 0 0
      vertex 55 -12.5 2.77556e-015
    endloop
  endfacet
  facet normal 0 -2.22045e-016 -1
    outer loop
      vertex 23.587 -21.5 4.77396e-015
      vertex 41.4848 -12.5 2.77556e-015
      vertex 30.5263 -31.4808 6.99013e-015
    endloop
  endfacet
  facet normal 0 -2.22045e-016 -1
    outer loop
      vertex 0 0 0
      vertex 41.4848 -12.5 2.77556e-015
      vertex 23.587 -21.5 4.77396e-015
    endloop
  endfacet
  facet normal 0 -2.22045e-016 -1
    outer loop
      vertex 0 0 0
      vertex 23.587 -21.5 4.77396e-015
      vertex 0 -21.5 4.77396e-015
    endloop
  endfacet
  facet normal 0 -2.22045e-016 -1
    outer loop
      vertex 41.4848 -12.5 2.77556e-015
      vertex 0 0 0
      vertex 55 0 0
    endloop
  endfacet
  facet normal 0 -1 0
    outer loop
      vertex 41.4848 -12.5 2.77556e-015
      vertex 55 -12.5 14
      vertex 41.4848 -12.5 14
    endloop
  endfacet
  facet normal 0 -1 -0
    outer loop
      vertex 55 -12.5 14
      vertex 41.4848 -12.5 2.77556e-015
      vertex 55 -12.5 2.77556e-015
    endloop
  endfacet
  facet normal 1 0 0
    outer loop
      vertex 55 -10.5 14
      vertex 55 -12.5 14
      vertex 55 -10.5 2
    endloop
  endfacet
  facet normal 1 0 0
    outer loop
      vertex 55 -2 2
      vertex 55 3.10862e-015 14
      vertex 55 -2 14
    endloop
  endfacet
  facet normal 1 0 0
    outer loop
      vertex 55 3.10862e-015 14
      vertex 55 -2 2
      vertex 55 0 0
    endloop
  endfacet
  facet normal 1 -0 0
    outer loop
      vertex 55 -10.5 2
      vertex 55 0 0
      vertex 55 -2 2
    endloop
  endfacet
  facet normal 1 0 0
    outer loop
      vertex 55 -10.5 2
      vertex 55 -12.5 2.77556e-015
      vertex 55 0 0
    endloop
  endfacet
  facet normal 1 0 0
    outer loop
      vertex 55 -12.5 2.77556e-015
      vertex 55 -10.5 2
      vertex 55 -12.5 14
    endloop
  endfacet
  facet normal -0.866025 0.5 0
    outer loop
      vertex 23.587 -21.5 4.77396e-015
      vertex 21 -25.9808 14
      vertex 23.587 -21.5 14
    endloop
  endfacet
  facet normal -0.866025 0.5 -6.81196e-008
    outer loop
      vertex 21 -25.9808 14
      vertex 23.587 -21.5 4.77396e-015
      vertex 21 -25.9808 5.76889e-015
    endloop
  endfacet
  facet normal 0.866025 -0.5 0
    outer loop
      vertex 30.5263 -31.4808 14
      vertex 41.4848 -12.5 2.77556e-015
      vertex 41.4848 -12.5 14
    endloop
  endfacet
  facet normal 0.866025 -0.5 6.81196e-008
    outer loop
      vertex 41.4848 -12.5 2.77556e-015
      vertex 30.5263 -31.4808 14
      vertex 30.5263 -31.4808 6.99013e-015
    endloop
  endfacet
  facet normal -0.500002 -0.866024 0
    outer loop
      vertex 21 -25.9808 14
      vertex 21.116 -26.0477 2
      vertex 21.116 -26.0477 14
    endloop
  endfacet
  facet normal -0.5 -0.866025 6.59803e-007
    outer loop
      vertex 21 -25.9808 5.76889e-015
      vertex 28.9103 -30.5477 2
      vertex 21.116 -26.0477 2
    endloop
  endfacet
  facet normal -0.5 -0.866025 3.95839e-007
    outer loop
      vertex 28.9103 -30.5477 2
      vertex 21 -25.9808 5.76889e-015
      vertex 30.5263 -31.4808 6.99013e-015
    endloop
  endfacet
  facet normal -0.499993 -0.866029 1.17987e-007
    outer loop
      vertex 21 -25.9808 5.76889e-015
      vertex 21.116 -26.0477 2
      vertex 21 -25.9808 14
    endloop
  endfacet
  facet normal -0.5 -0.866026 0
    outer loop
      vertex 28.9103 -30.5477 2
      vertex 30.5263 -31.4808 14
      vertex 28.9103 -30.5477 14
    endloop
  endfacet
  facet normal -0.5 -0.866025 1.17987e-007
    outer loop
      vertex 30.5263 -31.4808 14
      vertex 28.9103 -30.5477 2
      vertex 30.5263 -31.4808 6.99013e-015
    endloop
  endfacet
  facet normal 1 -0 0
    outer loop
      vertex 2 -19.5 14
      vertex 2 -2 2
      vertex 2 -2 14
    endloop
  endfacet
  facet normal 1 0 0
    outer loop
      vertex 2 -2 2
      vertex 2 -19.5 14
      vertex 2 -19.5 2
    endloop
  endfacet
  facet normal 0 1 -0
    outer loop
      vertex 24.8964 -19.5 2
      vertex 2 -19.5 14
      vertex 24.8964 -19.5 14
    endloop
  endfacet
  facet normal 0 1 0
    outer loop
      vertex 2 -19.5 14
      vertex 24.8964 -19.5 2
      vertex 2 -19.5 2
    endloop
  endfacet
  facet normal 0 -1 0
    outer loop
      vertex 2 -2 2
      vertex 55 -2 14
      vertex 2 -2 14
    endloop
  endfacet
  facet normal 0 -1 -0
    outer loop
      vertex 55 -2 14
      vertex 2 -2 2
      vertex 55 -2 2
    endloop
  endfacet
  facet normal 0 0 1
    outer loop
      vertex 55 -2 2
      vertex 40.4848 -10.5 2
      vertex 55 -10.5 2
    endloop
  endfacet
  facet normal 0 0 1
    outer loop
      vertex 40.4848 -10.5 2
      vertex 24.8964 -19.5 2
      vertex 28.9103 -30.5477 2
    endloop
  endfacet
  facet normal -0 0 1
    outer loop
      vertex 2 -2 2
      vertex 40.4848 -10.5 2
      vertex 55 -2 2
    endloop
  endfacet
  facet normal 0 0 1
    outer loop
      vertex 40.4848 -10.5 2
      vertex 2 -2 2
      vertex 24.8964 -19.5 2
    endloop
  endfacet
  facet normal 0 0 1
    outer loop
      vertex 24.8964 -19.5 2
      vertex 2 -2 2
      vertex 2 -19.5 2
    endloop
  endfacet
  facet normal 0 0 1
    outer loop
      vertex 28.9103 -30.5477 2
      vertex 24.8964 -19.5 2
      vertex 21.116 -26.0477 2
    endloop
  endfacet
  facet normal 0 1 -0
    outer loop
      vertex 55 -10.5 2
      vertex 40.4848 -10.5 14
      vertex 55 -10.5 14
    endloop
  endfacet
  facet normal 0 1 0
    outer loop
      vertex 40.4848 -10.5 14
      vertex 55 -10.5 2
      vertex 40.4848 -10.5 2
    endloop
  endfacet
  facet normal 0.866025 -0.5 0
    outer loop
      vertex 21.116 -26.0477 14
      vertex 24.8964 -19.5 2
      vertex 24.8964 -19.5 14
    endloop
  endfacet
  facet normal 0.866025 -0.5 0
    outer loop
      vertex 24.8964 -19.5 2
      vertex 21.116 -26.0477 14
      vertex 21.116 -26.0477 2
    endloop
  endfacet
  facet normal -0.866025 0.5 0
    outer loop
      vertex 28.9103 -30.5477 2
      vertex 40.4848 -10.5 14
      vertex 40.4848 -10.5 2
    endloop
  endfacet
  facet normal -0.866025 0.5 0
    outer loop
      vertex 40.4848 -10.5 14
      vertex 28.9103 -30.5477 2
      vertex 28.9103 -30.5477 14
    endloop
  endfacet
endsolid OpenSCAD_Model
